0
SECTION
2
HEADER
9
$INSUNITS
70
4
0
ENDSEC
0
SECTION
2
TABLES
0
TABLE
2
LTYPE
0
LTYPE
72
65
70
64
2
CONTINUOUS
3
______
73
0
40
0
0
ENDTAB
0
TABLE
2
LAYER
0
ENDTAB
0
ENDSEC
0
SECTION
2
ENTITIES
0
LINE
8
0
10
-9
20
9
11
9
21
9
0
LINE
8
0
10
9
20
9
11
9
21
-9
0
LINE
8
0
10
9
20
-9
11
-9
21
-9
0
LINE
8
0
10
-9
20
-9
11
-9
21
9
0
LINE
8
0
10
-9
20
28.05
11
9
21
28.05
0
LINE
8
0
10
9
20
28.05
11
9
21
10.05
0
LINE
8
0
10
9
20
10.05
11
-9
21
10.05
0
LINE
8
0
10
-9
20
10.05
11
-9
21
28.05
0
LINE
8
0
10
-9
20
47.1
11
9
21
47.1
0
LINE
8
0
10
9
20
47.1
11
9
21
29.1
0
LINE
8
0
10
9
20
29.1
11
-9
21
29.1
0
LINE
8
0
10
-9
20
29.1
11
-9
21
47.1
0
LINE
8
0
10
10
20
21.573
11
28
21
21.573
0
LINE
8
0
10
28
20
21.573
11
28
21
3.573
0
LINE
8
0
10
28
20
3.573
11
10
21
3.573
0
LINE
8
0
10
10
20
3.573
11
10
21
21.573
0
LINE
8
0
10
10
20
40.623
11
28
21
40.623
0
LINE
8
0
10
28
20
40.623
11
28
21
22.623
0
LINE
8
0
10
28
20
22.623
11
10
21
22.623
0
LINE
8
0
10
10
20
22.623
11
10
21
40.623
0
LINE
8
0
10
10
20
59.673
11
28
21
59.673
0
LINE
8
0
10
28
20
59.673
11
28
21
41.673
0
LINE
8
0
10
28
20
41.673
11
10
21
41.673
0
LINE
8
0
10
10
20
41.673
11
10
21
59.673
0
LINE
8
0
10
29
20
26.3355
11
47
21
26.3355
0
LINE
8
0
10
47
20
26.3355
11
47
21
8.3355
0
LINE
8
0
10
47
20
8.3355
11
29
21
8.3355
0
LINE
8
0
10
29
20
8.3355
11
29
21
26.3355
0
LINE
8
0
10
29
20
45.3855
11
47
21
45.3855
0
LINE
8
0
10
47
20
45.3855
11
47
21
27.3855
0
LINE
8
0
10
47
20
27.3855
11
29
21
27.3855
0
LINE
8
0
10
29
20
27.3855
11
29
21
45.3855
0
LINE
8
0
10
29
20
64.4355
11
47
21
64.4355
0
LINE
8
0
10
47
20
64.4355
11
47
21
46.4355
0
LINE
8
0
10
47
20
46.4355
11
29
21
46.4355
0
LINE
8
0
10
29
20
46.4355
11
29
21
64.4355
0
LINE
8
0
10
48
20
21.573
11
66
21
21.573
0
LINE
8
0
10
66
20
21.573
11
66
21
3.573
0
LINE
8
0
10
66
20
3.573
11
48
21
3.573
0
LINE
8
0
10
48
20
3.573
11
48
21
21.573
0
LINE
8
0
10
48
20
40.623
11
66
21
40.623
0
LINE
8
0
10
66
20
40.623
11
66
21
22.623
0
LINE
8
0
10
66
20
22.623
11
48
21
22.623
0
LINE
8
0
10
48
20
22.623
11
48
21
40.623
0
LINE
8
0
10
48
20
59.673
11
66
21
59.673
0
LINE
8
0
10
66
20
59.673
11
66
21
41.673
0
LINE
8
0
10
66
20
41.673
11
48
21
41.673
0
LINE
8
0
10
48
20
41.673
11
48
21
59.673
0
LINE
8
0
10
67
20
18.7155
11
85
21
18.7155
0
LINE
8
0
10
85
20
18.7155
11
85
21
0.7155
0
LINE
8
0
10
85
20
0.7155
11
67
21
0.7155
0
LINE
8
0
10
67
20
0.7155
11
67
21
18.7155
0
LINE
8
0
10
67
20
37.7655
11
85
21
37.7655
0
LINE
8
0
10
85
20
37.7655
11
85
21
19.7655
0
LINE
8
0
10
85
20
19.7655
11
67
21
19.7655
0
LINE
8
0
10
67
20
19.7655
11
67
21
37.7655
0
LINE
8
0
10
67
20
56.8155
11
85
21
56.8155
0
LINE
8
0
10
85
20
56.8155
11
85
21
38.8155
0
LINE
8
0
10
85
20
38.8155
11
67
21
38.8155
0
LINE
8
0
10
67
20
38.8155
11
67
21
56.8155
0
LINE
8
0
10
49.6995638
20
-0.8133966
11
67.4261034
21
-3.9390638
0
LINE
8
0
10
67.4261034
20
-3.9390638
11
64.3004362
21
-21.6656034
0
LINE
8
0
10
64.3004362
20
-21.6656034
11
46.5738966
21
-18.5399362
0
LINE
8
0
10
46.5738966
20
-18.5399362
11
49.6995638
21
-0.8133966
0
LINE
8
0
10
70.9501394
20
-4.8177047
11
88.0691567
21
-10.3800106
0
LINE
8
0
10
88.0691567
20
-10.3800106
11
82.5068508
21
-27.4990279
0
LINE
8
0
10
82.5068508
20
-27.4990279
11
65.3878335
21
-21.936722
0
LINE
8
0
10
65.3878335
20
-21.936722
11
70.9501394
21
-4.8177047
0
LINE
8
0
10
93.3736618
20
-12.9101298
11
108.469732
21
-22.7136324
0
LINE
8
0
10
108.469732
20
-22.7136324
11
98.6662294
21
-37.8097026
0
LINE
8
0
10
98.6662294
20
-37.8097026
11
83.5701592
21
-28.0062
0
LINE
8
0
10
83.5701592
20
-28.0062
11
93.3736618
21
-12.9101298
0
ENDSEC
0
EOF