%TF.GenerationSoftware,KiCad,Pcbnew,8.0.3*%
%TF.CreationDate,2024-07-02T22:23:56+01:00*%
%TF.ProjectId,simple_split,73696d70-6c65-45f7-9370-6c69742e6b69,v1.0.0*%
%TF.SameCoordinates,Original*%
%TF.FileFunction,Drillmap*%
%TF.FilePolarity,Positive*%
%FSLAX45Y45*%
G04 Gerber Fmt 4.5, Leading zero omitted, Abs format (unit mm)*
G04 Created by KiCad (PCBNEW 8.0.3) date 2024-07-02 22:23:56*
%MOMM*%
%LPD*%
G01*
G04 APERTURE LIST*
%ADD10C,0.050000*%
%ADD11C,0.200000*%
%ADD12C,0.100000*%
%ADD13C,0.109220*%
%ADD14C,0.149860*%
G04 APERTURE END LIST*
D10*
X14986000Y-6858000D02*
X17018000Y-7112000D01*
X19050000Y-7620000D01*
X19050000Y-14986000D01*
X17526000Y-17018000D01*
X16256000Y-16256000D01*
X14732000Y-15748000D01*
X12700000Y-15240000D01*
X7112000Y-14224000D01*
X7112000Y-8128000D01*
X9144000Y-6858000D01*
X11176000Y-6350000D01*
X12954000Y-6350000D01*
X14986000Y-6858000D01*
D11*
D12*
X16361840Y-10458730D02*
X16401840Y-10498730D01*
X16401840Y-10458730D02*
X16361840Y-10498730D01*
X17693640Y-11430000D02*
G75*
G02*
X17612360Y-11430000I-40640J0D01*
G01*
X17612360Y-11430000D02*
G75*
G02*
X17693640Y-11430000I40640J0D01*
G01*
X17693640Y-11684000D02*
G75*
G02*
X17612360Y-11684000I-40640J0D01*
G01*
X17612360Y-11684000D02*
G75*
G02*
X17693640Y-11684000I40640J0D01*
G01*
X17947640Y-11430000D02*
G75*
G02*
X17866360Y-11430000I-40640J0D01*
G01*
X17866360Y-11430000D02*
G75*
G02*
X17947640Y-11430000I40640J0D01*
G01*
X17947640Y-11684000D02*
G75*
G02*
X17866360Y-11684000I-40640J0D01*
G01*
X17866360Y-11684000D02*
G75*
G02*
X17947640Y-11684000I40640J0D01*
G01*
X18201640Y-11430000D02*
G75*
G02*
X18120360Y-11430000I-40640J0D01*
G01*
X18120360Y-11430000D02*
G75*
G02*
X18201640Y-11430000I40640J0D01*
G01*
X18201640Y-11684000D02*
G75*
G02*
X18120360Y-11684000I-40640J0D01*
G01*
X18120360Y-11684000D02*
G75*
G02*
X18201640Y-11684000I40640J0D01*
G01*
X18455640Y-11430000D02*
G75*
G02*
X18374360Y-11430000I-40640J0D01*
G01*
X18374360Y-11430000D02*
G75*
G02*
X18455640Y-11430000I40640J0D01*
G01*
X18455640Y-11684000D02*
G75*
G02*
X18374360Y-11684000I-40640J0D01*
G01*
X18374360Y-11684000D02*
G75*
G02*
X18455640Y-11684000I40640J0D01*
G01*
X17669250Y-12679000D02*
X17669250Y-12769000D01*
X17624250Y-12724000D02*
X17714250Y-12724000D01*
X17689250Y-12679000D02*
X17649250Y-12679000D01*
X17649250Y-12769000D02*
G75*
G02*
X17649250Y-12679000I0J45000D01*
G01*
X17649250Y-12769000D02*
X17689250Y-12769000D01*
X17689250Y-12769000D02*
G75*
G03*
X17689250Y-12679000I0J45000D01*
G01*
X17669250Y-13139000D02*
X17669250Y-13229000D01*
X17624250Y-13184000D02*
X17714250Y-13184000D01*
X17649250Y-13229000D02*
X17689250Y-13229000D01*
X17689250Y-13139000D02*
G75*
G02*
X17689250Y-13229000I0J-45000D01*
G01*
X17689250Y-13139000D02*
X17649250Y-13139000D01*
X17649250Y-13139000D02*
G75*
G03*
X17649250Y-13229000I0J-45000D01*
G01*
X17779250Y-12679000D02*
X17779250Y-12769000D01*
X17734250Y-12724000D02*
X17824250Y-12724000D01*
X17759250Y-12769000D02*
X17799250Y-12769000D01*
X17799250Y-12679000D02*
G75*
G02*
X17799250Y-12769000I0J-45000D01*
G01*
X17799250Y-12679000D02*
X17759250Y-12679000D01*
X17759250Y-12679000D02*
G75*
G03*
X17759250Y-12769000I0J-45000D01*
G01*
X17779250Y-13139000D02*
X17779250Y-13229000D01*
X17734250Y-13184000D02*
X17824250Y-13184000D01*
X17799250Y-13139000D02*
X17759250Y-13139000D01*
X17759250Y-13229000D02*
G75*
G02*
X17759250Y-13139000I0J45000D01*
G01*
X17759250Y-13229000D02*
X17799250Y-13229000D01*
X17799250Y-13229000D02*
G75*
G03*
X17799250Y-13139000I0J45000D01*
G01*
X18179250Y-12679000D02*
X18179250Y-12769000D01*
X18134250Y-12724000D02*
X18224250Y-12724000D01*
X18159250Y-12769000D02*
X18199250Y-12769000D01*
X18199250Y-12679000D02*
G75*
G02*
X18199250Y-12769000I0J-45000D01*
G01*
X18199250Y-12679000D02*
X18159250Y-12679000D01*
X18159250Y-12679000D02*
G75*
G03*
X18159250Y-12769000I0J-45000D01*
G01*
X18179250Y-13139000D02*
X18179250Y-13229000D01*
X18134250Y-13184000D02*
X18224250Y-13184000D01*
X18199250Y-13139000D02*
X18159250Y-13139000D01*
X18159250Y-13229000D02*
G75*
G02*
X18159250Y-13139000I0J45000D01*
G01*
X18159250Y-13229000D02*
X18199250Y-13229000D01*
X18199250Y-13229000D02*
G75*
G03*
X18199250Y-13139000I0J45000D01*
G01*
X18479250Y-12679000D02*
X18479250Y-12769000D01*
X18434250Y-12724000D02*
X18524250Y-12724000D01*
X18459250Y-12769000D02*
X18499250Y-12769000D01*
X18499250Y-12679000D02*
G75*
G02*
X18499250Y-12769000I0J-45000D01*
G01*
X18499250Y-12679000D02*
X18459250Y-12679000D01*
X18459250Y-12679000D02*
G75*
G03*
X18459250Y-12769000I0J-45000D01*
G01*
X18479250Y-13139000D02*
X18479250Y-13229000D01*
X18434250Y-13184000D02*
X18524250Y-13184000D01*
X18499250Y-13139000D02*
X18459250Y-13139000D01*
X18459250Y-13229000D02*
G75*
G02*
X18459250Y-13139000I0J45000D01*
G01*
X18459250Y-13229000D02*
X18499250Y-13229000D01*
X18499250Y-13229000D02*
G75*
G03*
X18499250Y-13139000I0J45000D01*
G01*
D13*
X17310616Y-8166615D02*
X17310616Y-8089384D01*
X17233385Y-8089384D01*
X17233385Y-8166615D01*
X17310616Y-8166615D01*
X17310616Y-8420616D02*
X17310616Y-8343384D01*
X17233385Y-8343384D01*
X17233385Y-8420616D01*
X17310616Y-8420616D01*
X17310616Y-8674616D02*
X17310616Y-8597385D01*
X17233385Y-8597385D01*
X17233385Y-8674616D01*
X17310616Y-8674616D01*
X17310616Y-8928616D02*
X17310616Y-8851385D01*
X17233385Y-8851385D01*
X17233385Y-8928616D01*
X17310616Y-8928616D01*
X17310616Y-9182616D02*
X17310616Y-9105385D01*
X17233385Y-9105385D01*
X17233385Y-9182616D01*
X17310616Y-9182616D01*
X17310616Y-9436616D02*
X17310616Y-9359385D01*
X17233385Y-9359385D01*
X17233385Y-9436616D01*
X17310616Y-9436616D01*
X17310616Y-9690616D02*
X17310616Y-9613385D01*
X17233385Y-9613385D01*
X17233385Y-9690616D01*
X17310616Y-9690616D01*
X17310616Y-9944616D02*
X17310616Y-9867385D01*
X17233385Y-9867385D01*
X17233385Y-9944616D01*
X17310616Y-9944616D01*
X17310616Y-10198616D02*
X17310616Y-10121385D01*
X17233385Y-10121385D01*
X17233385Y-10198616D01*
X17310616Y-10198616D01*
X17310616Y-10452616D02*
X17310616Y-10375385D01*
X17233385Y-10375385D01*
X17233385Y-10452616D01*
X17310616Y-10452616D01*
X17310616Y-10706616D02*
X17310616Y-10629385D01*
X17233385Y-10629385D01*
X17233385Y-10706616D01*
X17310616Y-10706616D01*
X17333476Y-10960616D02*
X17333476Y-10883385D01*
X17256245Y-10883385D01*
X17256245Y-10960616D01*
X17333476Y-10960616D01*
X17564616Y-10960616D02*
X17564616Y-10883385D01*
X17487385Y-10883385D01*
X17487385Y-10960616D01*
X17564616Y-10960616D01*
X17818616Y-10960616D02*
X17818616Y-10883385D01*
X17741385Y-10883385D01*
X17741385Y-10960616D01*
X17818616Y-10960616D01*
X18072616Y-10960616D02*
X18072616Y-10883385D01*
X17995385Y-10883385D01*
X17995385Y-10960616D01*
X18072616Y-10960616D01*
X18326616Y-10960616D02*
X18326616Y-10883385D01*
X18249385Y-10883385D01*
X18249385Y-10960616D01*
X18326616Y-10960616D01*
X18580616Y-10960616D02*
X18580616Y-10883385D01*
X18503385Y-10883385D01*
X18503385Y-10960616D01*
X18580616Y-10960616D01*
X18834616Y-8166615D02*
X18834616Y-8089384D01*
X18757385Y-8089384D01*
X18757385Y-8166615D01*
X18834616Y-8166615D01*
X18834616Y-8420616D02*
X18834616Y-8343384D01*
X18757385Y-8343384D01*
X18757385Y-8420616D01*
X18834616Y-8420616D01*
X18834616Y-8674616D02*
X18834616Y-8597385D01*
X18757385Y-8597385D01*
X18757385Y-8674616D01*
X18834616Y-8674616D01*
X18834616Y-8928616D02*
X18834616Y-8851385D01*
X18757385Y-8851385D01*
X18757385Y-8928616D01*
X18834616Y-8928616D01*
X18834616Y-9182616D02*
X18834616Y-9105385D01*
X18757385Y-9105385D01*
X18757385Y-9182616D01*
X18834616Y-9182616D01*
X18834616Y-9436616D02*
X18834616Y-9359385D01*
X18757385Y-9359385D01*
X18757385Y-9436616D01*
X18834616Y-9436616D01*
X18834616Y-9690616D02*
X18834616Y-9613385D01*
X18757385Y-9613385D01*
X18757385Y-9690616D01*
X18834616Y-9690616D01*
X18834616Y-9944616D02*
X18834616Y-9867385D01*
X18757385Y-9867385D01*
X18757385Y-9944616D01*
X18834616Y-9944616D01*
X18834616Y-10198616D02*
X18834616Y-10121385D01*
X18757385Y-10121385D01*
X18757385Y-10198616D01*
X18834616Y-10198616D01*
X18834616Y-10452616D02*
X18834616Y-10375385D01*
X18757385Y-10375385D01*
X18757385Y-10452616D01*
X18834616Y-10452616D01*
X18834616Y-10706616D02*
X18834616Y-10629385D01*
X18757385Y-10629385D01*
X18757385Y-10706616D01*
X18834616Y-10706616D01*
X18834616Y-10960616D02*
X18834616Y-10883385D01*
X18757385Y-10883385D01*
X18757385Y-10960616D01*
X18834616Y-10960616D01*
D14*
X7894000Y-9110980D02*
X7968930Y-9036050D01*
X7894000Y-8961120D01*
X7819070Y-9036050D01*
X7894000Y-9110980D01*
X7894000Y-11015980D02*
X7968930Y-10941050D01*
X7894000Y-10866120D01*
X7819070Y-10941050D01*
X7894000Y-11015980D01*
X7894000Y-12920980D02*
X7968930Y-12846050D01*
X7894000Y-12771120D01*
X7819070Y-12846050D01*
X7894000Y-12920980D01*
X8021000Y-8856980D02*
X8095930Y-8782050D01*
X8021000Y-8707120D01*
X7946070Y-8782050D01*
X8021000Y-8856980D01*
X8021000Y-10761980D02*
X8095930Y-10687050D01*
X8021000Y-10612120D01*
X7946070Y-10687050D01*
X8021000Y-10761980D01*
X8021000Y-12666980D02*
X8095930Y-12592050D01*
X8021000Y-12517120D01*
X7946070Y-12592050D01*
X8021000Y-12666980D01*
X8529000Y-8856980D02*
X8603930Y-8782050D01*
X8529000Y-8707120D01*
X8454070Y-8782050D01*
X8529000Y-8856980D01*
X8529000Y-10761980D02*
X8603930Y-10687050D01*
X8529000Y-10612120D01*
X8454070Y-10687050D01*
X8529000Y-10761980D01*
X8529000Y-12666980D02*
X8603930Y-12592050D01*
X8529000Y-12517120D01*
X8454070Y-12592050D01*
X8529000Y-12666980D01*
X8656000Y-9110980D02*
X8730930Y-9036050D01*
X8656000Y-8961120D01*
X8581070Y-9036050D01*
X8656000Y-9110980D01*
X8656000Y-11015980D02*
X8730930Y-10941050D01*
X8656000Y-10866120D01*
X8581070Y-10941050D01*
X8656000Y-11015980D01*
X8656000Y-12920980D02*
X8730930Y-12846050D01*
X8656000Y-12771120D01*
X8581070Y-12846050D01*
X8656000Y-12920980D01*
X9794000Y-7853680D02*
X9868930Y-7778750D01*
X9794000Y-7703820D01*
X9719070Y-7778750D01*
X9794000Y-7853680D01*
X9794000Y-9758680D02*
X9868930Y-9683750D01*
X9794000Y-9608820D01*
X9719070Y-9683750D01*
X9794000Y-9758680D01*
X9794000Y-11663680D02*
X9868930Y-11588750D01*
X9794000Y-11513820D01*
X9719070Y-11588750D01*
X9794000Y-11663680D01*
X9921000Y-7599680D02*
X9995930Y-7524750D01*
X9921000Y-7449820D01*
X9846070Y-7524750D01*
X9921000Y-7599680D01*
X9921000Y-9504680D02*
X9995930Y-9429750D01*
X9921000Y-9354820D01*
X9846070Y-9429750D01*
X9921000Y-9504680D01*
X9921000Y-11409680D02*
X9995930Y-11334750D01*
X9921000Y-11259820D01*
X9846070Y-11334750D01*
X9921000Y-11409680D01*
X10429000Y-7599680D02*
X10503930Y-7524750D01*
X10429000Y-7449820D01*
X10354070Y-7524750D01*
X10429000Y-7599680D01*
X10429000Y-9504680D02*
X10503930Y-9429750D01*
X10429000Y-9354820D01*
X10354070Y-9429750D01*
X10429000Y-9504680D01*
X10429000Y-11409680D02*
X10503930Y-11334750D01*
X10429000Y-11259820D01*
X10354070Y-11334750D01*
X10429000Y-11409680D01*
X10556000Y-7853680D02*
X10630930Y-7778750D01*
X10556000Y-7703820D01*
X10481070Y-7778750D01*
X10556000Y-7853680D01*
X10556000Y-9758680D02*
X10630930Y-9683750D01*
X10556000Y-9608820D01*
X10481070Y-9683750D01*
X10556000Y-9758680D01*
X10556000Y-11663680D02*
X10630930Y-11588750D01*
X10556000Y-11513820D01*
X10481070Y-11588750D01*
X10556000Y-11663680D01*
X11694000Y-7377430D02*
X11768930Y-7302500D01*
X11694000Y-7227570D01*
X11619070Y-7302500D01*
X11694000Y-7377430D01*
X11694000Y-9282430D02*
X11768930Y-9207500D01*
X11694000Y-9132570D01*
X11619070Y-9207500D01*
X11694000Y-9282430D01*
X11694000Y-11187430D02*
X11768930Y-11112500D01*
X11694000Y-11037570D01*
X11619070Y-11112500D01*
X11694000Y-11187430D01*
X11821000Y-7123430D02*
X11895930Y-7048500D01*
X11821000Y-6973570D01*
X11746070Y-7048500D01*
X11821000Y-7123430D01*
X11821000Y-9028430D02*
X11895930Y-8953500D01*
X11821000Y-8878570D01*
X11746070Y-8953500D01*
X11821000Y-9028430D01*
X11821000Y-10933430D02*
X11895930Y-10858500D01*
X11821000Y-10783570D01*
X11746070Y-10858500D01*
X11821000Y-10933430D01*
X12329000Y-7123430D02*
X12403930Y-7048500D01*
X12329000Y-6973570D01*
X12254070Y-7048500D01*
X12329000Y-7123430D01*
X12329000Y-9028430D02*
X12403930Y-8953500D01*
X12329000Y-8878570D01*
X12254070Y-8953500D01*
X12329000Y-9028430D01*
X12329000Y-10933430D02*
X12403930Y-10858500D01*
X12329000Y-10783570D01*
X12254070Y-10858500D01*
X12329000Y-10933430D01*
X12456000Y-7377430D02*
X12530930Y-7302500D01*
X12456000Y-7227570D01*
X12381070Y-7302500D01*
X12456000Y-7377430D01*
X12456000Y-9282430D02*
X12530930Y-9207500D01*
X12456000Y-9132570D01*
X12381070Y-9207500D01*
X12456000Y-9282430D01*
X12456000Y-11187430D02*
X12530930Y-11112500D01*
X12456000Y-11037570D01*
X12381070Y-11112500D01*
X12456000Y-11187430D01*
X13045495Y-13895389D02*
X13120425Y-13820459D01*
X13045495Y-13745529D01*
X12970565Y-13820459D01*
X13045495Y-13895389D01*
X13214672Y-13667301D02*
X13289602Y-13592371D01*
X13214672Y-13517441D01*
X13139742Y-13592371D01*
X13214672Y-13667301D01*
X13594000Y-7853680D02*
X13668930Y-7778750D01*
X13594000Y-7703820D01*
X13519070Y-7778750D01*
X13594000Y-7853680D01*
X13594000Y-9758680D02*
X13668930Y-9683750D01*
X13594000Y-9608820D01*
X13519070Y-9683750D01*
X13594000Y-9758680D01*
X13594000Y-11663680D02*
X13668930Y-11588750D01*
X13594000Y-11513820D01*
X13519070Y-11588750D01*
X13594000Y-11663680D01*
X13714954Y-13755514D02*
X13789884Y-13680584D01*
X13714954Y-13605654D01*
X13640024Y-13680584D01*
X13714954Y-13755514D01*
X13721000Y-7599680D02*
X13795930Y-7524750D01*
X13721000Y-7449820D01*
X13646070Y-7524750D01*
X13721000Y-7599680D01*
X13721000Y-9504680D02*
X13795930Y-9429750D01*
X13721000Y-9354820D01*
X13646070Y-9429750D01*
X13721000Y-9504680D01*
X13721000Y-11409680D02*
X13795930Y-11334750D01*
X13721000Y-11259820D01*
X13646070Y-11334750D01*
X13721000Y-11409680D01*
X13795918Y-14027709D02*
X13870848Y-13952779D01*
X13795918Y-13877849D01*
X13720988Y-13952779D01*
X13795918Y-14027709D01*
X14229000Y-7599680D02*
X14303930Y-7524750D01*
X14229000Y-7449820D01*
X14154070Y-7524750D01*
X14229000Y-7599680D01*
X14229000Y-9504680D02*
X14303930Y-9429750D01*
X14229000Y-9354820D01*
X14154070Y-9429750D01*
X14229000Y-9504680D01*
X14229000Y-11409680D02*
X14303930Y-11334750D01*
X14229000Y-11259820D01*
X14154070Y-11334750D01*
X14229000Y-11409680D01*
X14356000Y-7853680D02*
X14430930Y-7778750D01*
X14356000Y-7703820D01*
X14281070Y-7778750D01*
X14356000Y-7853680D01*
X14356000Y-9758680D02*
X14430930Y-9683750D01*
X14356000Y-9608820D01*
X14281070Y-9683750D01*
X14356000Y-9758680D01*
X14356000Y-11663680D02*
X14430930Y-11588750D01*
X14356000Y-11513820D01*
X14281070Y-11588750D01*
X14356000Y-11663680D01*
X15065588Y-14344276D02*
X15140518Y-14269346D01*
X15065588Y-14194416D01*
X14990658Y-14269346D01*
X15065588Y-14344276D01*
X15264862Y-14141953D02*
X15339792Y-14067023D01*
X15264862Y-13992093D01*
X15189932Y-14067023D01*
X15264862Y-14141953D01*
X15494000Y-8139430D02*
X15568930Y-8064500D01*
X15494000Y-7989570D01*
X15419070Y-8064500D01*
X15494000Y-8139430D01*
X15494000Y-10044430D02*
X15568930Y-9969500D01*
X15494000Y-9894570D01*
X15419070Y-9969500D01*
X15494000Y-10044430D01*
X15494000Y-11949430D02*
X15568930Y-11874500D01*
X15494000Y-11799570D01*
X15419070Y-11874500D01*
X15494000Y-11949430D01*
X15621000Y-7885430D02*
X15695930Y-7810500D01*
X15621000Y-7735570D01*
X15546070Y-7810500D01*
X15621000Y-7885430D01*
X15621000Y-9790430D02*
X15695930Y-9715500D01*
X15621000Y-9640570D01*
X15546070Y-9715500D01*
X15621000Y-9790430D01*
X15621000Y-11695430D02*
X15695930Y-11620500D01*
X15621000Y-11545570D01*
X15546070Y-11620500D01*
X15621000Y-11695430D01*
X15747999Y-14298934D02*
X15822929Y-14224004D01*
X15747999Y-14149074D01*
X15673069Y-14224004D01*
X15747999Y-14298934D01*
X15790293Y-14579747D02*
X15865223Y-14504817D01*
X15790293Y-14429887D01*
X15715363Y-14504817D01*
X15790293Y-14579747D01*
X16129000Y-7885430D02*
X16203930Y-7810500D01*
X16129000Y-7735570D01*
X16054070Y-7810500D01*
X16129000Y-7885430D01*
X16129000Y-9790430D02*
X16203930Y-9715500D01*
X16129000Y-9640570D01*
X16054070Y-9715500D01*
X16129000Y-9790430D01*
X16129000Y-11695430D02*
X16203930Y-11620500D01*
X16129000Y-11545570D01*
X16054070Y-11620500D01*
X16129000Y-11695430D01*
X16256000Y-8139430D02*
X16330930Y-8064500D01*
X16256000Y-7989570D01*
X16181070Y-8064500D01*
X16256000Y-8139430D01*
X16256000Y-10044430D02*
X16330930Y-9969500D01*
X16256000Y-9894570D01*
X16181070Y-9969500D01*
X16256000Y-10044430D01*
X16256000Y-11949430D02*
X16330930Y-11874500D01*
X16256000Y-11799570D01*
X16181070Y-11874500D01*
X16256000Y-11949430D01*
X17097405Y-15203200D02*
X17172335Y-15128270D01*
X17097405Y-15053340D01*
X17022475Y-15128270D01*
X17097405Y-15203200D01*
X17342254Y-15059347D02*
X17417184Y-14984417D01*
X17342254Y-14909487D01*
X17267324Y-14984417D01*
X17342254Y-15059347D01*
X17736472Y-15618215D02*
X17811402Y-15543285D01*
X17736472Y-15468355D01*
X17661542Y-15543285D01*
X17736472Y-15618215D01*
X17768299Y-15336024D02*
X17843229Y-15261094D01*
X17768299Y-15186164D01*
X17693369Y-15261094D01*
X17768299Y-15336024D01*
D11*
X7370277Y-17331984D02*
X7370277Y-17131984D01*
X7370277Y-17131984D02*
X7417896Y-17131984D01*
X7417896Y-17131984D02*
X7446467Y-17141508D01*
X7446467Y-17141508D02*
X7465515Y-17160555D01*
X7465515Y-17160555D02*
X7475039Y-17179603D01*
X7475039Y-17179603D02*
X7484562Y-17217698D01*
X7484562Y-17217698D02*
X7484562Y-17246270D01*
X7484562Y-17246270D02*
X7475039Y-17284365D01*
X7475039Y-17284365D02*
X7465515Y-17303412D01*
X7465515Y-17303412D02*
X7446467Y-17322460D01*
X7446467Y-17322460D02*
X7417896Y-17331984D01*
X7417896Y-17331984D02*
X7370277Y-17331984D01*
X7570277Y-17331984D02*
X7570277Y-17198650D01*
X7570277Y-17236746D02*
X7579801Y-17217698D01*
X7579801Y-17217698D02*
X7589324Y-17208174D01*
X7589324Y-17208174D02*
X7608372Y-17198650D01*
X7608372Y-17198650D02*
X7627420Y-17198650D01*
X7694086Y-17331984D02*
X7694086Y-17198650D01*
X7694086Y-17131984D02*
X7684562Y-17141508D01*
X7684562Y-17141508D02*
X7694086Y-17151031D01*
X7694086Y-17151031D02*
X7703610Y-17141508D01*
X7703610Y-17141508D02*
X7694086Y-17131984D01*
X7694086Y-17131984D02*
X7694086Y-17151031D01*
X7817896Y-17331984D02*
X7798848Y-17322460D01*
X7798848Y-17322460D02*
X7789324Y-17303412D01*
X7789324Y-17303412D02*
X7789324Y-17131984D01*
X7922658Y-17331984D02*
X7903610Y-17322460D01*
X7903610Y-17322460D02*
X7894086Y-17303412D01*
X7894086Y-17303412D02*
X7894086Y-17131984D01*
X8151229Y-17331984D02*
X8151229Y-17131984D01*
X8151229Y-17131984D02*
X8217896Y-17274841D01*
X8217896Y-17274841D02*
X8284562Y-17131984D01*
X8284562Y-17131984D02*
X8284562Y-17331984D01*
X8465515Y-17331984D02*
X8465515Y-17227222D01*
X8465515Y-17227222D02*
X8455991Y-17208174D01*
X8455991Y-17208174D02*
X8436944Y-17198650D01*
X8436944Y-17198650D02*
X8398848Y-17198650D01*
X8398848Y-17198650D02*
X8379801Y-17208174D01*
X8465515Y-17322460D02*
X8446467Y-17331984D01*
X8446467Y-17331984D02*
X8398848Y-17331984D01*
X8398848Y-17331984D02*
X8379801Y-17322460D01*
X8379801Y-17322460D02*
X8370277Y-17303412D01*
X8370277Y-17303412D02*
X8370277Y-17284365D01*
X8370277Y-17284365D02*
X8379801Y-17265317D01*
X8379801Y-17265317D02*
X8398848Y-17255793D01*
X8398848Y-17255793D02*
X8446467Y-17255793D01*
X8446467Y-17255793D02*
X8465515Y-17246270D01*
X8560753Y-17198650D02*
X8560753Y-17398650D01*
X8560753Y-17208174D02*
X8579801Y-17198650D01*
X8579801Y-17198650D02*
X8617896Y-17198650D01*
X8617896Y-17198650D02*
X8636944Y-17208174D01*
X8636944Y-17208174D02*
X8646467Y-17217698D01*
X8646467Y-17217698D02*
X8655991Y-17236746D01*
X8655991Y-17236746D02*
X8655991Y-17293889D01*
X8655991Y-17293889D02*
X8646467Y-17312936D01*
X8646467Y-17312936D02*
X8636944Y-17322460D01*
X8636944Y-17322460D02*
X8617896Y-17331984D01*
X8617896Y-17331984D02*
X8579801Y-17331984D01*
X8579801Y-17331984D02*
X8560753Y-17322460D01*
X8741705Y-17312936D02*
X8751229Y-17322460D01*
X8751229Y-17322460D02*
X8741705Y-17331984D01*
X8741705Y-17331984D02*
X8732182Y-17322460D01*
X8732182Y-17322460D02*
X8741705Y-17312936D01*
X8741705Y-17312936D02*
X8741705Y-17331984D01*
X8741705Y-17208174D02*
X8751229Y-17217698D01*
X8751229Y-17217698D02*
X8741705Y-17227222D01*
X8741705Y-17227222D02*
X8732182Y-17217698D01*
X8732182Y-17217698D02*
X8741705Y-17208174D01*
X8741705Y-17208174D02*
X8741705Y-17227222D01*
D12*
X7069500Y-17640500D02*
X7109500Y-17680500D01*
X7109500Y-17640500D02*
X7069500Y-17680500D01*
D11*
X7408372Y-17551984D02*
X7427420Y-17551984D01*
X7427420Y-17551984D02*
X7446467Y-17561508D01*
X7446467Y-17561508D02*
X7455991Y-17571031D01*
X7455991Y-17571031D02*
X7465515Y-17590079D01*
X7465515Y-17590079D02*
X7475039Y-17628174D01*
X7475039Y-17628174D02*
X7475039Y-17675793D01*
X7475039Y-17675793D02*
X7465515Y-17713889D01*
X7465515Y-17713889D02*
X7455991Y-17732936D01*
X7455991Y-17732936D02*
X7446467Y-17742460D01*
X7446467Y-17742460D02*
X7427420Y-17751984D01*
X7427420Y-17751984D02*
X7408372Y-17751984D01*
X7408372Y-17751984D02*
X7389324Y-17742460D01*
X7389324Y-17742460D02*
X7379801Y-17732936D01*
X7379801Y-17732936D02*
X7370277Y-17713889D01*
X7370277Y-17713889D02*
X7360753Y-17675793D01*
X7360753Y-17675793D02*
X7360753Y-17628174D01*
X7360753Y-17628174D02*
X7370277Y-17590079D01*
X7370277Y-17590079D02*
X7379801Y-17571031D01*
X7379801Y-17571031D02*
X7389324Y-17561508D01*
X7389324Y-17561508D02*
X7408372Y-17551984D01*
X7560753Y-17732936D02*
X7570277Y-17742460D01*
X7570277Y-17742460D02*
X7560753Y-17751984D01*
X7560753Y-17751984D02*
X7551229Y-17742460D01*
X7551229Y-17742460D02*
X7560753Y-17732936D01*
X7560753Y-17732936D02*
X7560753Y-17751984D01*
X7741705Y-17618650D02*
X7741705Y-17751984D01*
X7694086Y-17542460D02*
X7646467Y-17685317D01*
X7646467Y-17685317D02*
X7770277Y-17685317D01*
X7884562Y-17551984D02*
X7903610Y-17551984D01*
X7903610Y-17551984D02*
X7922658Y-17561508D01*
X7922658Y-17561508D02*
X7932182Y-17571031D01*
X7932182Y-17571031D02*
X7941705Y-17590079D01*
X7941705Y-17590079D02*
X7951229Y-17628174D01*
X7951229Y-17628174D02*
X7951229Y-17675793D01*
X7951229Y-17675793D02*
X7941705Y-17713889D01*
X7941705Y-17713889D02*
X7932182Y-17732936D01*
X7932182Y-17732936D02*
X7922658Y-17742460D01*
X7922658Y-17742460D02*
X7903610Y-17751984D01*
X7903610Y-17751984D02*
X7884562Y-17751984D01*
X7884562Y-17751984D02*
X7865515Y-17742460D01*
X7865515Y-17742460D02*
X7855991Y-17732936D01*
X7855991Y-17732936D02*
X7846467Y-17713889D01*
X7846467Y-17713889D02*
X7836943Y-17675793D01*
X7836943Y-17675793D02*
X7836943Y-17628174D01*
X7836943Y-17628174D02*
X7846467Y-17590079D01*
X7846467Y-17590079D02*
X7855991Y-17571031D01*
X7855991Y-17571031D02*
X7865515Y-17561508D01*
X7865515Y-17561508D02*
X7884562Y-17551984D01*
X8075039Y-17551984D02*
X8094086Y-17551984D01*
X8094086Y-17551984D02*
X8113134Y-17561508D01*
X8113134Y-17561508D02*
X8122658Y-17571031D01*
X8122658Y-17571031D02*
X8132182Y-17590079D01*
X8132182Y-17590079D02*
X8141705Y-17628174D01*
X8141705Y-17628174D02*
X8141705Y-17675793D01*
X8141705Y-17675793D02*
X8132182Y-17713889D01*
X8132182Y-17713889D02*
X8122658Y-17732936D01*
X8122658Y-17732936D02*
X8113134Y-17742460D01*
X8113134Y-17742460D02*
X8094086Y-17751984D01*
X8094086Y-17751984D02*
X8075039Y-17751984D01*
X8075039Y-17751984D02*
X8055991Y-17742460D01*
X8055991Y-17742460D02*
X8046467Y-17732936D01*
X8046467Y-17732936D02*
X8036943Y-17713889D01*
X8036943Y-17713889D02*
X8027420Y-17675793D01*
X8027420Y-17675793D02*
X8027420Y-17628174D01*
X8027420Y-17628174D02*
X8036943Y-17590079D01*
X8036943Y-17590079D02*
X8046467Y-17571031D01*
X8046467Y-17571031D02*
X8055991Y-17561508D01*
X8055991Y-17561508D02*
X8075039Y-17551984D01*
X8227420Y-17751984D02*
X8227420Y-17618650D01*
X8227420Y-17637698D02*
X8236943Y-17628174D01*
X8236943Y-17628174D02*
X8255991Y-17618650D01*
X8255991Y-17618650D02*
X8284563Y-17618650D01*
X8284563Y-17618650D02*
X8303610Y-17628174D01*
X8303610Y-17628174D02*
X8313134Y-17647222D01*
X8313134Y-17647222D02*
X8313134Y-17751984D01*
X8313134Y-17647222D02*
X8322658Y-17628174D01*
X8322658Y-17628174D02*
X8341705Y-17618650D01*
X8341705Y-17618650D02*
X8370277Y-17618650D01*
X8370277Y-17618650D02*
X8389325Y-17628174D01*
X8389325Y-17628174D02*
X8398848Y-17647222D01*
X8398848Y-17647222D02*
X8398848Y-17751984D01*
X8494086Y-17751984D02*
X8494086Y-17618650D01*
X8494086Y-17637698D02*
X8503610Y-17628174D01*
X8503610Y-17628174D02*
X8522658Y-17618650D01*
X8522658Y-17618650D02*
X8551229Y-17618650D01*
X8551229Y-17618650D02*
X8570277Y-17628174D01*
X8570277Y-17628174D02*
X8579801Y-17647222D01*
X8579801Y-17647222D02*
X8579801Y-17751984D01*
X8579801Y-17647222D02*
X8589325Y-17628174D01*
X8589325Y-17628174D02*
X8608372Y-17618650D01*
X8608372Y-17618650D02*
X8636944Y-17618650D01*
X8636944Y-17618650D02*
X8655991Y-17628174D01*
X8655991Y-17628174D02*
X8665515Y-17647222D01*
X8665515Y-17647222D02*
X8665515Y-17751984D01*
X9055991Y-17542460D02*
X8884563Y-17799603D01*
X9313134Y-17551984D02*
X9332182Y-17551984D01*
X9332182Y-17551984D02*
X9351229Y-17561508D01*
X9351229Y-17561508D02*
X9360753Y-17571031D01*
X9360753Y-17571031D02*
X9370277Y-17590079D01*
X9370277Y-17590079D02*
X9379801Y-17628174D01*
X9379801Y-17628174D02*
X9379801Y-17675793D01*
X9379801Y-17675793D02*
X9370277Y-17713889D01*
X9370277Y-17713889D02*
X9360753Y-17732936D01*
X9360753Y-17732936D02*
X9351229Y-17742460D01*
X9351229Y-17742460D02*
X9332182Y-17751984D01*
X9332182Y-17751984D02*
X9313134Y-17751984D01*
X9313134Y-17751984D02*
X9294087Y-17742460D01*
X9294087Y-17742460D02*
X9284563Y-17732936D01*
X9284563Y-17732936D02*
X9275039Y-17713889D01*
X9275039Y-17713889D02*
X9265515Y-17675793D01*
X9265515Y-17675793D02*
X9265515Y-17628174D01*
X9265515Y-17628174D02*
X9275039Y-17590079D01*
X9275039Y-17590079D02*
X9284563Y-17571031D01*
X9284563Y-17571031D02*
X9294087Y-17561508D01*
X9294087Y-17561508D02*
X9313134Y-17551984D01*
X9465515Y-17732936D02*
X9475039Y-17742460D01*
X9475039Y-17742460D02*
X9465515Y-17751984D01*
X9465515Y-17751984D02*
X9455991Y-17742460D01*
X9455991Y-17742460D02*
X9465515Y-17732936D01*
X9465515Y-17732936D02*
X9465515Y-17751984D01*
X9598848Y-17551984D02*
X9617896Y-17551984D01*
X9617896Y-17551984D02*
X9636944Y-17561508D01*
X9636944Y-17561508D02*
X9646468Y-17571031D01*
X9646468Y-17571031D02*
X9655991Y-17590079D01*
X9655991Y-17590079D02*
X9665515Y-17628174D01*
X9665515Y-17628174D02*
X9665515Y-17675793D01*
X9665515Y-17675793D02*
X9655991Y-17713889D01*
X9655991Y-17713889D02*
X9646468Y-17732936D01*
X9646468Y-17732936D02*
X9636944Y-17742460D01*
X9636944Y-17742460D02*
X9617896Y-17751984D01*
X9617896Y-17751984D02*
X9598848Y-17751984D01*
X9598848Y-17751984D02*
X9579801Y-17742460D01*
X9579801Y-17742460D02*
X9570277Y-17732936D01*
X9570277Y-17732936D02*
X9560753Y-17713889D01*
X9560753Y-17713889D02*
X9551229Y-17675793D01*
X9551229Y-17675793D02*
X9551229Y-17628174D01*
X9551229Y-17628174D02*
X9560753Y-17590079D01*
X9560753Y-17590079D02*
X9570277Y-17571031D01*
X9570277Y-17571031D02*
X9579801Y-17561508D01*
X9579801Y-17561508D02*
X9598848Y-17551984D01*
X9855991Y-17751984D02*
X9741706Y-17751984D01*
X9798848Y-17751984D02*
X9798848Y-17551984D01*
X9798848Y-17551984D02*
X9779801Y-17580555D01*
X9779801Y-17580555D02*
X9760753Y-17599603D01*
X9760753Y-17599603D02*
X9741706Y-17609127D01*
X10036944Y-17551984D02*
X9941706Y-17551984D01*
X9941706Y-17551984D02*
X9932182Y-17647222D01*
X9932182Y-17647222D02*
X9941706Y-17637698D01*
X9941706Y-17637698D02*
X9960753Y-17628174D01*
X9960753Y-17628174D02*
X10008372Y-17628174D01*
X10008372Y-17628174D02*
X10027420Y-17637698D01*
X10027420Y-17637698D02*
X10036944Y-17647222D01*
X10036944Y-17647222D02*
X10046468Y-17666270D01*
X10046468Y-17666270D02*
X10046468Y-17713889D01*
X10046468Y-17713889D02*
X10036944Y-17732936D01*
X10036944Y-17732936D02*
X10027420Y-17742460D01*
X10027420Y-17742460D02*
X10008372Y-17751984D01*
X10008372Y-17751984D02*
X9960753Y-17751984D01*
X9960753Y-17751984D02*
X9941706Y-17742460D01*
X9941706Y-17742460D02*
X9932182Y-17732936D01*
X10113134Y-17551984D02*
X10246468Y-17551984D01*
X10246468Y-17551984D02*
X10160753Y-17751984D01*
X10313134Y-17551984D02*
X10313134Y-17590079D01*
X10389325Y-17551984D02*
X10389325Y-17590079D01*
X10684563Y-17828174D02*
X10675039Y-17818650D01*
X10675039Y-17818650D02*
X10655991Y-17790079D01*
X10655991Y-17790079D02*
X10646468Y-17771031D01*
X10646468Y-17771031D02*
X10636944Y-17742460D01*
X10636944Y-17742460D02*
X10627420Y-17694841D01*
X10627420Y-17694841D02*
X10627420Y-17656746D01*
X10627420Y-17656746D02*
X10636944Y-17609127D01*
X10636944Y-17609127D02*
X10646468Y-17580555D01*
X10646468Y-17580555D02*
X10655991Y-17561508D01*
X10655991Y-17561508D02*
X10675039Y-17532936D01*
X10675039Y-17532936D02*
X10684563Y-17523412D01*
X10865515Y-17751984D02*
X10751230Y-17751984D01*
X10808372Y-17751984D02*
X10808372Y-17551984D01*
X10808372Y-17551984D02*
X10789325Y-17580555D01*
X10789325Y-17580555D02*
X10770277Y-17599603D01*
X10770277Y-17599603D02*
X10751230Y-17609127D01*
X11103611Y-17751984D02*
X11103611Y-17551984D01*
X11189325Y-17751984D02*
X11189325Y-17647222D01*
X11189325Y-17647222D02*
X11179801Y-17628174D01*
X11179801Y-17628174D02*
X11160753Y-17618650D01*
X11160753Y-17618650D02*
X11132182Y-17618650D01*
X11132182Y-17618650D02*
X11113134Y-17628174D01*
X11113134Y-17628174D02*
X11103611Y-17637698D01*
X11313134Y-17751984D02*
X11294087Y-17742460D01*
X11294087Y-17742460D02*
X11284563Y-17732936D01*
X11284563Y-17732936D02*
X11275039Y-17713889D01*
X11275039Y-17713889D02*
X11275039Y-17656746D01*
X11275039Y-17656746D02*
X11284563Y-17637698D01*
X11284563Y-17637698D02*
X11294087Y-17628174D01*
X11294087Y-17628174D02*
X11313134Y-17618650D01*
X11313134Y-17618650D02*
X11341706Y-17618650D01*
X11341706Y-17618650D02*
X11360753Y-17628174D01*
X11360753Y-17628174D02*
X11370277Y-17637698D01*
X11370277Y-17637698D02*
X11379801Y-17656746D01*
X11379801Y-17656746D02*
X11379801Y-17713889D01*
X11379801Y-17713889D02*
X11370277Y-17732936D01*
X11370277Y-17732936D02*
X11360753Y-17742460D01*
X11360753Y-17742460D02*
X11341706Y-17751984D01*
X11341706Y-17751984D02*
X11313134Y-17751984D01*
X11494087Y-17751984D02*
X11475039Y-17742460D01*
X11475039Y-17742460D02*
X11465515Y-17723412D01*
X11465515Y-17723412D02*
X11465515Y-17551984D01*
X11646468Y-17742460D02*
X11627420Y-17751984D01*
X11627420Y-17751984D02*
X11589325Y-17751984D01*
X11589325Y-17751984D02*
X11570277Y-17742460D01*
X11570277Y-17742460D02*
X11560753Y-17723412D01*
X11560753Y-17723412D02*
X11560753Y-17647222D01*
X11560753Y-17647222D02*
X11570277Y-17628174D01*
X11570277Y-17628174D02*
X11589325Y-17618650D01*
X11589325Y-17618650D02*
X11627420Y-17618650D01*
X11627420Y-17618650D02*
X11646468Y-17628174D01*
X11646468Y-17628174D02*
X11655991Y-17647222D01*
X11655991Y-17647222D02*
X11655991Y-17666270D01*
X11655991Y-17666270D02*
X11560753Y-17685317D01*
X11722658Y-17828174D02*
X11732182Y-17818650D01*
X11732182Y-17818650D02*
X11751230Y-17790079D01*
X11751230Y-17790079D02*
X11760753Y-17771031D01*
X11760753Y-17771031D02*
X11770277Y-17742460D01*
X11770277Y-17742460D02*
X11779801Y-17694841D01*
X11779801Y-17694841D02*
X11779801Y-17656746D01*
X11779801Y-17656746D02*
X11770277Y-17609127D01*
X11770277Y-17609127D02*
X11760753Y-17580555D01*
X11760753Y-17580555D02*
X11751230Y-17561508D01*
X11751230Y-17561508D02*
X11732182Y-17532936D01*
X11732182Y-17532936D02*
X11722658Y-17523412D01*
D12*
X7109500Y-17924500D02*
G75*
G02*
X7028220Y-17924500I-40640J0D01*
G01*
X7028220Y-17924500D02*
G75*
G02*
X7109500Y-17924500I40640J0D01*
G01*
D11*
X7408372Y-17815984D02*
X7427420Y-17815984D01*
X7427420Y-17815984D02*
X7446467Y-17825508D01*
X7446467Y-17825508D02*
X7455991Y-17835031D01*
X7455991Y-17835031D02*
X7465515Y-17854079D01*
X7465515Y-17854079D02*
X7475039Y-17892174D01*
X7475039Y-17892174D02*
X7475039Y-17939793D01*
X7475039Y-17939793D02*
X7465515Y-17977889D01*
X7465515Y-17977889D02*
X7455991Y-17996936D01*
X7455991Y-17996936D02*
X7446467Y-18006460D01*
X7446467Y-18006460D02*
X7427420Y-18015984D01*
X7427420Y-18015984D02*
X7408372Y-18015984D01*
X7408372Y-18015984D02*
X7389324Y-18006460D01*
X7389324Y-18006460D02*
X7379801Y-17996936D01*
X7379801Y-17996936D02*
X7370277Y-17977889D01*
X7370277Y-17977889D02*
X7360753Y-17939793D01*
X7360753Y-17939793D02*
X7360753Y-17892174D01*
X7360753Y-17892174D02*
X7370277Y-17854079D01*
X7370277Y-17854079D02*
X7379801Y-17835031D01*
X7379801Y-17835031D02*
X7389324Y-17825508D01*
X7389324Y-17825508D02*
X7408372Y-17815984D01*
X7560753Y-17996936D02*
X7570277Y-18006460D01*
X7570277Y-18006460D02*
X7560753Y-18015984D01*
X7560753Y-18015984D02*
X7551229Y-18006460D01*
X7551229Y-18006460D02*
X7560753Y-17996936D01*
X7560753Y-17996936D02*
X7560753Y-18015984D01*
X7684562Y-17901698D02*
X7665515Y-17892174D01*
X7665515Y-17892174D02*
X7655991Y-17882650D01*
X7655991Y-17882650D02*
X7646467Y-17863603D01*
X7646467Y-17863603D02*
X7646467Y-17854079D01*
X7646467Y-17854079D02*
X7655991Y-17835031D01*
X7655991Y-17835031D02*
X7665515Y-17825508D01*
X7665515Y-17825508D02*
X7684562Y-17815984D01*
X7684562Y-17815984D02*
X7722658Y-17815984D01*
X7722658Y-17815984D02*
X7741705Y-17825508D01*
X7741705Y-17825508D02*
X7751229Y-17835031D01*
X7751229Y-17835031D02*
X7760753Y-17854079D01*
X7760753Y-17854079D02*
X7760753Y-17863603D01*
X7760753Y-17863603D02*
X7751229Y-17882650D01*
X7751229Y-17882650D02*
X7741705Y-17892174D01*
X7741705Y-17892174D02*
X7722658Y-17901698D01*
X7722658Y-17901698D02*
X7684562Y-17901698D01*
X7684562Y-17901698D02*
X7665515Y-17911222D01*
X7665515Y-17911222D02*
X7655991Y-17920746D01*
X7655991Y-17920746D02*
X7646467Y-17939793D01*
X7646467Y-17939793D02*
X7646467Y-17977889D01*
X7646467Y-17977889D02*
X7655991Y-17996936D01*
X7655991Y-17996936D02*
X7665515Y-18006460D01*
X7665515Y-18006460D02*
X7684562Y-18015984D01*
X7684562Y-18015984D02*
X7722658Y-18015984D01*
X7722658Y-18015984D02*
X7741705Y-18006460D01*
X7741705Y-18006460D02*
X7751229Y-17996936D01*
X7751229Y-17996936D02*
X7760753Y-17977889D01*
X7760753Y-17977889D02*
X7760753Y-17939793D01*
X7760753Y-17939793D02*
X7751229Y-17920746D01*
X7751229Y-17920746D02*
X7741705Y-17911222D01*
X7741705Y-17911222D02*
X7722658Y-17901698D01*
X7951229Y-18015984D02*
X7836943Y-18015984D01*
X7894086Y-18015984D02*
X7894086Y-17815984D01*
X7894086Y-17815984D02*
X7875039Y-17844555D01*
X7875039Y-17844555D02*
X7855991Y-17863603D01*
X7855991Y-17863603D02*
X7836943Y-17873127D01*
X8017896Y-17815984D02*
X8141705Y-17815984D01*
X8141705Y-17815984D02*
X8075039Y-17892174D01*
X8075039Y-17892174D02*
X8103610Y-17892174D01*
X8103610Y-17892174D02*
X8122658Y-17901698D01*
X8122658Y-17901698D02*
X8132182Y-17911222D01*
X8132182Y-17911222D02*
X8141705Y-17930270D01*
X8141705Y-17930270D02*
X8141705Y-17977889D01*
X8141705Y-17977889D02*
X8132182Y-17996936D01*
X8132182Y-17996936D02*
X8122658Y-18006460D01*
X8122658Y-18006460D02*
X8103610Y-18015984D01*
X8103610Y-18015984D02*
X8046467Y-18015984D01*
X8046467Y-18015984D02*
X8027420Y-18006460D01*
X8027420Y-18006460D02*
X8017896Y-17996936D01*
X8227420Y-18015984D02*
X8227420Y-17882650D01*
X8227420Y-17901698D02*
X8236943Y-17892174D01*
X8236943Y-17892174D02*
X8255991Y-17882650D01*
X8255991Y-17882650D02*
X8284563Y-17882650D01*
X8284563Y-17882650D02*
X8303610Y-17892174D01*
X8303610Y-17892174D02*
X8313134Y-17911222D01*
X8313134Y-17911222D02*
X8313134Y-18015984D01*
X8313134Y-17911222D02*
X8322658Y-17892174D01*
X8322658Y-17892174D02*
X8341705Y-17882650D01*
X8341705Y-17882650D02*
X8370277Y-17882650D01*
X8370277Y-17882650D02*
X8389325Y-17892174D01*
X8389325Y-17892174D02*
X8398848Y-17911222D01*
X8398848Y-17911222D02*
X8398848Y-18015984D01*
X8494086Y-18015984D02*
X8494086Y-17882650D01*
X8494086Y-17901698D02*
X8503610Y-17892174D01*
X8503610Y-17892174D02*
X8522658Y-17882650D01*
X8522658Y-17882650D02*
X8551229Y-17882650D01*
X8551229Y-17882650D02*
X8570277Y-17892174D01*
X8570277Y-17892174D02*
X8579801Y-17911222D01*
X8579801Y-17911222D02*
X8579801Y-18015984D01*
X8579801Y-17911222D02*
X8589325Y-17892174D01*
X8589325Y-17892174D02*
X8608372Y-17882650D01*
X8608372Y-17882650D02*
X8636944Y-17882650D01*
X8636944Y-17882650D02*
X8655991Y-17892174D01*
X8655991Y-17892174D02*
X8665515Y-17911222D01*
X8665515Y-17911222D02*
X8665515Y-18015984D01*
X9055991Y-17806460D02*
X8884563Y-18063603D01*
X9313134Y-17815984D02*
X9332182Y-17815984D01*
X9332182Y-17815984D02*
X9351229Y-17825508D01*
X9351229Y-17825508D02*
X9360753Y-17835031D01*
X9360753Y-17835031D02*
X9370277Y-17854079D01*
X9370277Y-17854079D02*
X9379801Y-17892174D01*
X9379801Y-17892174D02*
X9379801Y-17939793D01*
X9379801Y-17939793D02*
X9370277Y-17977889D01*
X9370277Y-17977889D02*
X9360753Y-17996936D01*
X9360753Y-17996936D02*
X9351229Y-18006460D01*
X9351229Y-18006460D02*
X9332182Y-18015984D01*
X9332182Y-18015984D02*
X9313134Y-18015984D01*
X9313134Y-18015984D02*
X9294087Y-18006460D01*
X9294087Y-18006460D02*
X9284563Y-17996936D01*
X9284563Y-17996936D02*
X9275039Y-17977889D01*
X9275039Y-17977889D02*
X9265515Y-17939793D01*
X9265515Y-17939793D02*
X9265515Y-17892174D01*
X9265515Y-17892174D02*
X9275039Y-17854079D01*
X9275039Y-17854079D02*
X9284563Y-17835031D01*
X9284563Y-17835031D02*
X9294087Y-17825508D01*
X9294087Y-17825508D02*
X9313134Y-17815984D01*
X9465515Y-17996936D02*
X9475039Y-18006460D01*
X9475039Y-18006460D02*
X9465515Y-18015984D01*
X9465515Y-18015984D02*
X9455991Y-18006460D01*
X9455991Y-18006460D02*
X9465515Y-17996936D01*
X9465515Y-17996936D02*
X9465515Y-18015984D01*
X9598848Y-17815984D02*
X9617896Y-17815984D01*
X9617896Y-17815984D02*
X9636944Y-17825508D01*
X9636944Y-17825508D02*
X9646468Y-17835031D01*
X9646468Y-17835031D02*
X9655991Y-17854079D01*
X9655991Y-17854079D02*
X9665515Y-17892174D01*
X9665515Y-17892174D02*
X9665515Y-17939793D01*
X9665515Y-17939793D02*
X9655991Y-17977889D01*
X9655991Y-17977889D02*
X9646468Y-17996936D01*
X9646468Y-17996936D02*
X9636944Y-18006460D01*
X9636944Y-18006460D02*
X9617896Y-18015984D01*
X9617896Y-18015984D02*
X9598848Y-18015984D01*
X9598848Y-18015984D02*
X9579801Y-18006460D01*
X9579801Y-18006460D02*
X9570277Y-17996936D01*
X9570277Y-17996936D02*
X9560753Y-17977889D01*
X9560753Y-17977889D02*
X9551229Y-17939793D01*
X9551229Y-17939793D02*
X9551229Y-17892174D01*
X9551229Y-17892174D02*
X9560753Y-17854079D01*
X9560753Y-17854079D02*
X9570277Y-17835031D01*
X9570277Y-17835031D02*
X9579801Y-17825508D01*
X9579801Y-17825508D02*
X9598848Y-17815984D01*
X9732182Y-17815984D02*
X9855991Y-17815984D01*
X9855991Y-17815984D02*
X9789325Y-17892174D01*
X9789325Y-17892174D02*
X9817896Y-17892174D01*
X9817896Y-17892174D02*
X9836944Y-17901698D01*
X9836944Y-17901698D02*
X9846468Y-17911222D01*
X9846468Y-17911222D02*
X9855991Y-17930270D01*
X9855991Y-17930270D02*
X9855991Y-17977889D01*
X9855991Y-17977889D02*
X9846468Y-17996936D01*
X9846468Y-17996936D02*
X9836944Y-18006460D01*
X9836944Y-18006460D02*
X9817896Y-18015984D01*
X9817896Y-18015984D02*
X9760753Y-18015984D01*
X9760753Y-18015984D02*
X9741706Y-18006460D01*
X9741706Y-18006460D02*
X9732182Y-17996936D01*
X9932182Y-17835031D02*
X9941706Y-17825508D01*
X9941706Y-17825508D02*
X9960753Y-17815984D01*
X9960753Y-17815984D02*
X10008372Y-17815984D01*
X10008372Y-17815984D02*
X10027420Y-17825508D01*
X10027420Y-17825508D02*
X10036944Y-17835031D01*
X10036944Y-17835031D02*
X10046468Y-17854079D01*
X10046468Y-17854079D02*
X10046468Y-17873127D01*
X10046468Y-17873127D02*
X10036944Y-17901698D01*
X10036944Y-17901698D02*
X9922658Y-18015984D01*
X9922658Y-18015984D02*
X10046468Y-18015984D01*
X10170277Y-17815984D02*
X10189325Y-17815984D01*
X10189325Y-17815984D02*
X10208372Y-17825508D01*
X10208372Y-17825508D02*
X10217896Y-17835031D01*
X10217896Y-17835031D02*
X10227420Y-17854079D01*
X10227420Y-17854079D02*
X10236944Y-17892174D01*
X10236944Y-17892174D02*
X10236944Y-17939793D01*
X10236944Y-17939793D02*
X10227420Y-17977889D01*
X10227420Y-17977889D02*
X10217896Y-17996936D01*
X10217896Y-17996936D02*
X10208372Y-18006460D01*
X10208372Y-18006460D02*
X10189325Y-18015984D01*
X10189325Y-18015984D02*
X10170277Y-18015984D01*
X10170277Y-18015984D02*
X10151229Y-18006460D01*
X10151229Y-18006460D02*
X10141706Y-17996936D01*
X10141706Y-17996936D02*
X10132182Y-17977889D01*
X10132182Y-17977889D02*
X10122658Y-17939793D01*
X10122658Y-17939793D02*
X10122658Y-17892174D01*
X10122658Y-17892174D02*
X10132182Y-17854079D01*
X10132182Y-17854079D02*
X10141706Y-17835031D01*
X10141706Y-17835031D02*
X10151229Y-17825508D01*
X10151229Y-17825508D02*
X10170277Y-17815984D01*
X10313134Y-17815984D02*
X10313134Y-17854079D01*
X10389325Y-17815984D02*
X10389325Y-17854079D01*
X10684563Y-18092174D02*
X10675039Y-18082650D01*
X10675039Y-18082650D02*
X10655991Y-18054079D01*
X10655991Y-18054079D02*
X10646468Y-18035031D01*
X10646468Y-18035031D02*
X10636944Y-18006460D01*
X10636944Y-18006460D02*
X10627420Y-17958841D01*
X10627420Y-17958841D02*
X10627420Y-17920746D01*
X10627420Y-17920746D02*
X10636944Y-17873127D01*
X10636944Y-17873127D02*
X10646468Y-17844555D01*
X10646468Y-17844555D02*
X10655991Y-17825508D01*
X10655991Y-17825508D02*
X10675039Y-17796936D01*
X10675039Y-17796936D02*
X10684563Y-17787412D01*
X10789325Y-17901698D02*
X10770277Y-17892174D01*
X10770277Y-17892174D02*
X10760753Y-17882650D01*
X10760753Y-17882650D02*
X10751230Y-17863603D01*
X10751230Y-17863603D02*
X10751230Y-17854079D01*
X10751230Y-17854079D02*
X10760753Y-17835031D01*
X10760753Y-17835031D02*
X10770277Y-17825508D01*
X10770277Y-17825508D02*
X10789325Y-17815984D01*
X10789325Y-17815984D02*
X10827420Y-17815984D01*
X10827420Y-17815984D02*
X10846468Y-17825508D01*
X10846468Y-17825508D02*
X10855991Y-17835031D01*
X10855991Y-17835031D02*
X10865515Y-17854079D01*
X10865515Y-17854079D02*
X10865515Y-17863603D01*
X10865515Y-17863603D02*
X10855991Y-17882650D01*
X10855991Y-17882650D02*
X10846468Y-17892174D01*
X10846468Y-17892174D02*
X10827420Y-17901698D01*
X10827420Y-17901698D02*
X10789325Y-17901698D01*
X10789325Y-17901698D02*
X10770277Y-17911222D01*
X10770277Y-17911222D02*
X10760753Y-17920746D01*
X10760753Y-17920746D02*
X10751230Y-17939793D01*
X10751230Y-17939793D02*
X10751230Y-17977889D01*
X10751230Y-17977889D02*
X10760753Y-17996936D01*
X10760753Y-17996936D02*
X10770277Y-18006460D01*
X10770277Y-18006460D02*
X10789325Y-18015984D01*
X10789325Y-18015984D02*
X10827420Y-18015984D01*
X10827420Y-18015984D02*
X10846468Y-18006460D01*
X10846468Y-18006460D02*
X10855991Y-17996936D01*
X10855991Y-17996936D02*
X10865515Y-17977889D01*
X10865515Y-17977889D02*
X10865515Y-17939793D01*
X10865515Y-17939793D02*
X10855991Y-17920746D01*
X10855991Y-17920746D02*
X10846468Y-17911222D01*
X10846468Y-17911222D02*
X10827420Y-17901698D01*
X11103611Y-18015984D02*
X11103611Y-17815984D01*
X11189325Y-18015984D02*
X11189325Y-17911222D01*
X11189325Y-17911222D02*
X11179801Y-17892174D01*
X11179801Y-17892174D02*
X11160753Y-17882650D01*
X11160753Y-17882650D02*
X11132182Y-17882650D01*
X11132182Y-17882650D02*
X11113134Y-17892174D01*
X11113134Y-17892174D02*
X11103611Y-17901698D01*
X11313134Y-18015984D02*
X11294087Y-18006460D01*
X11294087Y-18006460D02*
X11284563Y-17996936D01*
X11284563Y-17996936D02*
X11275039Y-17977889D01*
X11275039Y-17977889D02*
X11275039Y-17920746D01*
X11275039Y-17920746D02*
X11284563Y-17901698D01*
X11284563Y-17901698D02*
X11294087Y-17892174D01*
X11294087Y-17892174D02*
X11313134Y-17882650D01*
X11313134Y-17882650D02*
X11341706Y-17882650D01*
X11341706Y-17882650D02*
X11360753Y-17892174D01*
X11360753Y-17892174D02*
X11370277Y-17901698D01*
X11370277Y-17901698D02*
X11379801Y-17920746D01*
X11379801Y-17920746D02*
X11379801Y-17977889D01*
X11379801Y-17977889D02*
X11370277Y-17996936D01*
X11370277Y-17996936D02*
X11360753Y-18006460D01*
X11360753Y-18006460D02*
X11341706Y-18015984D01*
X11341706Y-18015984D02*
X11313134Y-18015984D01*
X11494087Y-18015984D02*
X11475039Y-18006460D01*
X11475039Y-18006460D02*
X11465515Y-17987412D01*
X11465515Y-17987412D02*
X11465515Y-17815984D01*
X11646468Y-18006460D02*
X11627420Y-18015984D01*
X11627420Y-18015984D02*
X11589325Y-18015984D01*
X11589325Y-18015984D02*
X11570277Y-18006460D01*
X11570277Y-18006460D02*
X11560753Y-17987412D01*
X11560753Y-17987412D02*
X11560753Y-17911222D01*
X11560753Y-17911222D02*
X11570277Y-17892174D01*
X11570277Y-17892174D02*
X11589325Y-17882650D01*
X11589325Y-17882650D02*
X11627420Y-17882650D01*
X11627420Y-17882650D02*
X11646468Y-17892174D01*
X11646468Y-17892174D02*
X11655991Y-17911222D01*
X11655991Y-17911222D02*
X11655991Y-17930270D01*
X11655991Y-17930270D02*
X11560753Y-17949317D01*
X11732182Y-18006460D02*
X11751230Y-18015984D01*
X11751230Y-18015984D02*
X11789325Y-18015984D01*
X11789325Y-18015984D02*
X11808372Y-18006460D01*
X11808372Y-18006460D02*
X11817896Y-17987412D01*
X11817896Y-17987412D02*
X11817896Y-17977889D01*
X11817896Y-17977889D02*
X11808372Y-17958841D01*
X11808372Y-17958841D02*
X11789325Y-17949317D01*
X11789325Y-17949317D02*
X11760753Y-17949317D01*
X11760753Y-17949317D02*
X11741706Y-17939793D01*
X11741706Y-17939793D02*
X11732182Y-17920746D01*
X11732182Y-17920746D02*
X11732182Y-17911222D01*
X11732182Y-17911222D02*
X11741706Y-17892174D01*
X11741706Y-17892174D02*
X11760753Y-17882650D01*
X11760753Y-17882650D02*
X11789325Y-17882650D01*
X11789325Y-17882650D02*
X11808372Y-17892174D01*
X11884563Y-18092174D02*
X11894087Y-18082650D01*
X11894087Y-18082650D02*
X11913134Y-18054079D01*
X11913134Y-18054079D02*
X11922658Y-18035031D01*
X11922658Y-18035031D02*
X11932182Y-18006460D01*
X11932182Y-18006460D02*
X11941706Y-17958841D01*
X11941706Y-17958841D02*
X11941706Y-17920746D01*
X11941706Y-17920746D02*
X11932182Y-17873127D01*
X11932182Y-17873127D02*
X11922658Y-17844555D01*
X11922658Y-17844555D02*
X11913134Y-17825508D01*
X11913134Y-17825508D02*
X11894087Y-17796936D01*
X11894087Y-17796936D02*
X11884563Y-17787412D01*
D12*
X7064500Y-18143500D02*
X7064500Y-18233500D01*
X7019500Y-18188500D02*
X7109500Y-18188500D01*
D11*
X7408372Y-18079984D02*
X7427420Y-18079984D01*
X7427420Y-18079984D02*
X7446467Y-18089508D01*
X7446467Y-18089508D02*
X7455991Y-18099031D01*
X7455991Y-18099031D02*
X7465515Y-18118079D01*
X7465515Y-18118079D02*
X7475039Y-18156174D01*
X7475039Y-18156174D02*
X7475039Y-18203793D01*
X7475039Y-18203793D02*
X7465515Y-18241889D01*
X7465515Y-18241889D02*
X7455991Y-18260936D01*
X7455991Y-18260936D02*
X7446467Y-18270460D01*
X7446467Y-18270460D02*
X7427420Y-18279984D01*
X7427420Y-18279984D02*
X7408372Y-18279984D01*
X7408372Y-18279984D02*
X7389324Y-18270460D01*
X7389324Y-18270460D02*
X7379801Y-18260936D01*
X7379801Y-18260936D02*
X7370277Y-18241889D01*
X7370277Y-18241889D02*
X7360753Y-18203793D01*
X7360753Y-18203793D02*
X7360753Y-18156174D01*
X7360753Y-18156174D02*
X7370277Y-18118079D01*
X7370277Y-18118079D02*
X7379801Y-18099031D01*
X7379801Y-18099031D02*
X7389324Y-18089508D01*
X7389324Y-18089508D02*
X7408372Y-18079984D01*
X7560753Y-18260936D02*
X7570277Y-18270460D01*
X7570277Y-18270460D02*
X7560753Y-18279984D01*
X7560753Y-18279984D02*
X7551229Y-18270460D01*
X7551229Y-18270460D02*
X7560753Y-18260936D01*
X7560753Y-18260936D02*
X7560753Y-18279984D01*
X7665515Y-18279984D02*
X7703610Y-18279984D01*
X7703610Y-18279984D02*
X7722658Y-18270460D01*
X7722658Y-18270460D02*
X7732182Y-18260936D01*
X7732182Y-18260936D02*
X7751229Y-18232365D01*
X7751229Y-18232365D02*
X7760753Y-18194270D01*
X7760753Y-18194270D02*
X7760753Y-18118079D01*
X7760753Y-18118079D02*
X7751229Y-18099031D01*
X7751229Y-18099031D02*
X7741705Y-18089508D01*
X7741705Y-18089508D02*
X7722658Y-18079984D01*
X7722658Y-18079984D02*
X7684562Y-18079984D01*
X7684562Y-18079984D02*
X7665515Y-18089508D01*
X7665515Y-18089508D02*
X7655991Y-18099031D01*
X7655991Y-18099031D02*
X7646467Y-18118079D01*
X7646467Y-18118079D02*
X7646467Y-18165698D01*
X7646467Y-18165698D02*
X7655991Y-18184746D01*
X7655991Y-18184746D02*
X7665515Y-18194270D01*
X7665515Y-18194270D02*
X7684562Y-18203793D01*
X7684562Y-18203793D02*
X7722658Y-18203793D01*
X7722658Y-18203793D02*
X7741705Y-18194270D01*
X7741705Y-18194270D02*
X7751229Y-18184746D01*
X7751229Y-18184746D02*
X7760753Y-18165698D01*
X7884562Y-18079984D02*
X7903610Y-18079984D01*
X7903610Y-18079984D02*
X7922658Y-18089508D01*
X7922658Y-18089508D02*
X7932182Y-18099031D01*
X7932182Y-18099031D02*
X7941705Y-18118079D01*
X7941705Y-18118079D02*
X7951229Y-18156174D01*
X7951229Y-18156174D02*
X7951229Y-18203793D01*
X7951229Y-18203793D02*
X7941705Y-18241889D01*
X7941705Y-18241889D02*
X7932182Y-18260936D01*
X7932182Y-18260936D02*
X7922658Y-18270460D01*
X7922658Y-18270460D02*
X7903610Y-18279984D01*
X7903610Y-18279984D02*
X7884562Y-18279984D01*
X7884562Y-18279984D02*
X7865515Y-18270460D01*
X7865515Y-18270460D02*
X7855991Y-18260936D01*
X7855991Y-18260936D02*
X7846467Y-18241889D01*
X7846467Y-18241889D02*
X7836943Y-18203793D01*
X7836943Y-18203793D02*
X7836943Y-18156174D01*
X7836943Y-18156174D02*
X7846467Y-18118079D01*
X7846467Y-18118079D02*
X7855991Y-18099031D01*
X7855991Y-18099031D02*
X7865515Y-18089508D01*
X7865515Y-18089508D02*
X7884562Y-18079984D01*
X8075039Y-18079984D02*
X8094086Y-18079984D01*
X8094086Y-18079984D02*
X8113134Y-18089508D01*
X8113134Y-18089508D02*
X8122658Y-18099031D01*
X8122658Y-18099031D02*
X8132182Y-18118079D01*
X8132182Y-18118079D02*
X8141705Y-18156174D01*
X8141705Y-18156174D02*
X8141705Y-18203793D01*
X8141705Y-18203793D02*
X8132182Y-18241889D01*
X8132182Y-18241889D02*
X8122658Y-18260936D01*
X8122658Y-18260936D02*
X8113134Y-18270460D01*
X8113134Y-18270460D02*
X8094086Y-18279984D01*
X8094086Y-18279984D02*
X8075039Y-18279984D01*
X8075039Y-18279984D02*
X8055991Y-18270460D01*
X8055991Y-18270460D02*
X8046467Y-18260936D01*
X8046467Y-18260936D02*
X8036943Y-18241889D01*
X8036943Y-18241889D02*
X8027420Y-18203793D01*
X8027420Y-18203793D02*
X8027420Y-18156174D01*
X8027420Y-18156174D02*
X8036943Y-18118079D01*
X8036943Y-18118079D02*
X8046467Y-18099031D01*
X8046467Y-18099031D02*
X8055991Y-18089508D01*
X8055991Y-18089508D02*
X8075039Y-18079984D01*
X8227420Y-18279984D02*
X8227420Y-18146650D01*
X8227420Y-18165698D02*
X8236943Y-18156174D01*
X8236943Y-18156174D02*
X8255991Y-18146650D01*
X8255991Y-18146650D02*
X8284563Y-18146650D01*
X8284563Y-18146650D02*
X8303610Y-18156174D01*
X8303610Y-18156174D02*
X8313134Y-18175222D01*
X8313134Y-18175222D02*
X8313134Y-18279984D01*
X8313134Y-18175222D02*
X8322658Y-18156174D01*
X8322658Y-18156174D02*
X8341705Y-18146650D01*
X8341705Y-18146650D02*
X8370277Y-18146650D01*
X8370277Y-18146650D02*
X8389325Y-18156174D01*
X8389325Y-18156174D02*
X8398848Y-18175222D01*
X8398848Y-18175222D02*
X8398848Y-18279984D01*
X8494086Y-18279984D02*
X8494086Y-18146650D01*
X8494086Y-18165698D02*
X8503610Y-18156174D01*
X8503610Y-18156174D02*
X8522658Y-18146650D01*
X8522658Y-18146650D02*
X8551229Y-18146650D01*
X8551229Y-18146650D02*
X8570277Y-18156174D01*
X8570277Y-18156174D02*
X8579801Y-18175222D01*
X8579801Y-18175222D02*
X8579801Y-18279984D01*
X8579801Y-18175222D02*
X8589325Y-18156174D01*
X8589325Y-18156174D02*
X8608372Y-18146650D01*
X8608372Y-18146650D02*
X8636944Y-18146650D01*
X8636944Y-18146650D02*
X8655991Y-18156174D01*
X8655991Y-18156174D02*
X8665515Y-18175222D01*
X8665515Y-18175222D02*
X8665515Y-18279984D01*
X9055991Y-18070460D02*
X8884563Y-18327603D01*
X9313134Y-18079984D02*
X9332182Y-18079984D01*
X9332182Y-18079984D02*
X9351229Y-18089508D01*
X9351229Y-18089508D02*
X9360753Y-18099031D01*
X9360753Y-18099031D02*
X9370277Y-18118079D01*
X9370277Y-18118079D02*
X9379801Y-18156174D01*
X9379801Y-18156174D02*
X9379801Y-18203793D01*
X9379801Y-18203793D02*
X9370277Y-18241889D01*
X9370277Y-18241889D02*
X9360753Y-18260936D01*
X9360753Y-18260936D02*
X9351229Y-18270460D01*
X9351229Y-18270460D02*
X9332182Y-18279984D01*
X9332182Y-18279984D02*
X9313134Y-18279984D01*
X9313134Y-18279984D02*
X9294087Y-18270460D01*
X9294087Y-18270460D02*
X9284563Y-18260936D01*
X9284563Y-18260936D02*
X9275039Y-18241889D01*
X9275039Y-18241889D02*
X9265515Y-18203793D01*
X9265515Y-18203793D02*
X9265515Y-18156174D01*
X9265515Y-18156174D02*
X9275039Y-18118079D01*
X9275039Y-18118079D02*
X9284563Y-18099031D01*
X9284563Y-18099031D02*
X9294087Y-18089508D01*
X9294087Y-18089508D02*
X9313134Y-18079984D01*
X9465515Y-18260936D02*
X9475039Y-18270460D01*
X9475039Y-18270460D02*
X9465515Y-18279984D01*
X9465515Y-18279984D02*
X9455991Y-18270460D01*
X9455991Y-18270460D02*
X9465515Y-18260936D01*
X9465515Y-18260936D02*
X9465515Y-18279984D01*
X9598848Y-18079984D02*
X9617896Y-18079984D01*
X9617896Y-18079984D02*
X9636944Y-18089508D01*
X9636944Y-18089508D02*
X9646468Y-18099031D01*
X9646468Y-18099031D02*
X9655991Y-18118079D01*
X9655991Y-18118079D02*
X9665515Y-18156174D01*
X9665515Y-18156174D02*
X9665515Y-18203793D01*
X9665515Y-18203793D02*
X9655991Y-18241889D01*
X9655991Y-18241889D02*
X9646468Y-18260936D01*
X9646468Y-18260936D02*
X9636944Y-18270460D01*
X9636944Y-18270460D02*
X9617896Y-18279984D01*
X9617896Y-18279984D02*
X9598848Y-18279984D01*
X9598848Y-18279984D02*
X9579801Y-18270460D01*
X9579801Y-18270460D02*
X9570277Y-18260936D01*
X9570277Y-18260936D02*
X9560753Y-18241889D01*
X9560753Y-18241889D02*
X9551229Y-18203793D01*
X9551229Y-18203793D02*
X9551229Y-18156174D01*
X9551229Y-18156174D02*
X9560753Y-18118079D01*
X9560753Y-18118079D02*
X9570277Y-18099031D01*
X9570277Y-18099031D02*
X9579801Y-18089508D01*
X9579801Y-18089508D02*
X9598848Y-18079984D01*
X9732182Y-18079984D02*
X9855991Y-18079984D01*
X9855991Y-18079984D02*
X9789325Y-18156174D01*
X9789325Y-18156174D02*
X9817896Y-18156174D01*
X9817896Y-18156174D02*
X9836944Y-18165698D01*
X9836944Y-18165698D02*
X9846468Y-18175222D01*
X9846468Y-18175222D02*
X9855991Y-18194270D01*
X9855991Y-18194270D02*
X9855991Y-18241889D01*
X9855991Y-18241889D02*
X9846468Y-18260936D01*
X9846468Y-18260936D02*
X9836944Y-18270460D01*
X9836944Y-18270460D02*
X9817896Y-18279984D01*
X9817896Y-18279984D02*
X9760753Y-18279984D01*
X9760753Y-18279984D02*
X9741706Y-18270460D01*
X9741706Y-18270460D02*
X9732182Y-18260936D01*
X10036944Y-18079984D02*
X9941706Y-18079984D01*
X9941706Y-18079984D02*
X9932182Y-18175222D01*
X9932182Y-18175222D02*
X9941706Y-18165698D01*
X9941706Y-18165698D02*
X9960753Y-18156174D01*
X9960753Y-18156174D02*
X10008372Y-18156174D01*
X10008372Y-18156174D02*
X10027420Y-18165698D01*
X10027420Y-18165698D02*
X10036944Y-18175222D01*
X10036944Y-18175222D02*
X10046468Y-18194270D01*
X10046468Y-18194270D02*
X10046468Y-18241889D01*
X10046468Y-18241889D02*
X10036944Y-18260936D01*
X10036944Y-18260936D02*
X10027420Y-18270460D01*
X10027420Y-18270460D02*
X10008372Y-18279984D01*
X10008372Y-18279984D02*
X9960753Y-18279984D01*
X9960753Y-18279984D02*
X9941706Y-18270460D01*
X9941706Y-18270460D02*
X9932182Y-18260936D01*
X10217896Y-18146650D02*
X10217896Y-18279984D01*
X10170277Y-18070460D02*
X10122658Y-18213317D01*
X10122658Y-18213317D02*
X10246468Y-18213317D01*
X10313134Y-18079984D02*
X10313134Y-18118079D01*
X10389325Y-18079984D02*
X10389325Y-18118079D01*
X10684563Y-18356174D02*
X10675039Y-18346650D01*
X10675039Y-18346650D02*
X10655991Y-18318079D01*
X10655991Y-18318079D02*
X10646468Y-18299031D01*
X10646468Y-18299031D02*
X10636944Y-18270460D01*
X10636944Y-18270460D02*
X10627420Y-18222841D01*
X10627420Y-18222841D02*
X10627420Y-18184746D01*
X10627420Y-18184746D02*
X10636944Y-18137127D01*
X10636944Y-18137127D02*
X10646468Y-18108555D01*
X10646468Y-18108555D02*
X10655991Y-18089508D01*
X10655991Y-18089508D02*
X10675039Y-18060936D01*
X10675039Y-18060936D02*
X10684563Y-18051412D01*
X10798849Y-18079984D02*
X10817896Y-18079984D01*
X10817896Y-18079984D02*
X10836944Y-18089508D01*
X10836944Y-18089508D02*
X10846468Y-18099031D01*
X10846468Y-18099031D02*
X10855991Y-18118079D01*
X10855991Y-18118079D02*
X10865515Y-18156174D01*
X10865515Y-18156174D02*
X10865515Y-18203793D01*
X10865515Y-18203793D02*
X10855991Y-18241889D01*
X10855991Y-18241889D02*
X10846468Y-18260936D01*
X10846468Y-18260936D02*
X10836944Y-18270460D01*
X10836944Y-18270460D02*
X10817896Y-18279984D01*
X10817896Y-18279984D02*
X10798849Y-18279984D01*
X10798849Y-18279984D02*
X10779801Y-18270460D01*
X10779801Y-18270460D02*
X10770277Y-18260936D01*
X10770277Y-18260936D02*
X10760753Y-18241889D01*
X10760753Y-18241889D02*
X10751230Y-18203793D01*
X10751230Y-18203793D02*
X10751230Y-18156174D01*
X10751230Y-18156174D02*
X10760753Y-18118079D01*
X10760753Y-18118079D02*
X10770277Y-18099031D01*
X10770277Y-18099031D02*
X10779801Y-18089508D01*
X10779801Y-18089508D02*
X10798849Y-18079984D01*
X11103611Y-18279984D02*
X11103611Y-18079984D01*
X11189325Y-18279984D02*
X11189325Y-18175222D01*
X11189325Y-18175222D02*
X11179801Y-18156174D01*
X11179801Y-18156174D02*
X11160753Y-18146650D01*
X11160753Y-18146650D02*
X11132182Y-18146650D01*
X11132182Y-18146650D02*
X11113134Y-18156174D01*
X11113134Y-18156174D02*
X11103611Y-18165698D01*
X11313134Y-18279984D02*
X11294087Y-18270460D01*
X11294087Y-18270460D02*
X11284563Y-18260936D01*
X11284563Y-18260936D02*
X11275039Y-18241889D01*
X11275039Y-18241889D02*
X11275039Y-18184746D01*
X11275039Y-18184746D02*
X11284563Y-18165698D01*
X11284563Y-18165698D02*
X11294087Y-18156174D01*
X11294087Y-18156174D02*
X11313134Y-18146650D01*
X11313134Y-18146650D02*
X11341706Y-18146650D01*
X11341706Y-18146650D02*
X11360753Y-18156174D01*
X11360753Y-18156174D02*
X11370277Y-18165698D01*
X11370277Y-18165698D02*
X11379801Y-18184746D01*
X11379801Y-18184746D02*
X11379801Y-18241889D01*
X11379801Y-18241889D02*
X11370277Y-18260936D01*
X11370277Y-18260936D02*
X11360753Y-18270460D01*
X11360753Y-18270460D02*
X11341706Y-18279984D01*
X11341706Y-18279984D02*
X11313134Y-18279984D01*
X11494087Y-18279984D02*
X11475039Y-18270460D01*
X11475039Y-18270460D02*
X11465515Y-18251412D01*
X11465515Y-18251412D02*
X11465515Y-18079984D01*
X11646468Y-18270460D02*
X11627420Y-18279984D01*
X11627420Y-18279984D02*
X11589325Y-18279984D01*
X11589325Y-18279984D02*
X11570277Y-18270460D01*
X11570277Y-18270460D02*
X11560753Y-18251412D01*
X11560753Y-18251412D02*
X11560753Y-18175222D01*
X11560753Y-18175222D02*
X11570277Y-18156174D01*
X11570277Y-18156174D02*
X11589325Y-18146650D01*
X11589325Y-18146650D02*
X11627420Y-18146650D01*
X11627420Y-18146650D02*
X11646468Y-18156174D01*
X11646468Y-18156174D02*
X11655991Y-18175222D01*
X11655991Y-18175222D02*
X11655991Y-18194270D01*
X11655991Y-18194270D02*
X11560753Y-18213317D01*
X11732182Y-18270460D02*
X11751230Y-18279984D01*
X11751230Y-18279984D02*
X11789325Y-18279984D01*
X11789325Y-18279984D02*
X11808372Y-18270460D01*
X11808372Y-18270460D02*
X11817896Y-18251412D01*
X11817896Y-18251412D02*
X11817896Y-18241889D01*
X11817896Y-18241889D02*
X11808372Y-18222841D01*
X11808372Y-18222841D02*
X11789325Y-18213317D01*
X11789325Y-18213317D02*
X11760753Y-18213317D01*
X11760753Y-18213317D02*
X11741706Y-18203793D01*
X11741706Y-18203793D02*
X11732182Y-18184746D01*
X11732182Y-18184746D02*
X11732182Y-18175222D01*
X11732182Y-18175222D02*
X11741706Y-18156174D01*
X11741706Y-18156174D02*
X11760753Y-18146650D01*
X11760753Y-18146650D02*
X11789325Y-18146650D01*
X11789325Y-18146650D02*
X11808372Y-18156174D01*
X12055992Y-18203793D02*
X12208373Y-18203793D01*
X12132182Y-18279984D02*
X12132182Y-18127603D01*
X12484563Y-18165698D02*
X12465515Y-18156174D01*
X12465515Y-18156174D02*
X12455992Y-18146650D01*
X12455992Y-18146650D02*
X12446468Y-18127603D01*
X12446468Y-18127603D02*
X12446468Y-18118079D01*
X12446468Y-18118079D02*
X12455992Y-18099031D01*
X12455992Y-18099031D02*
X12465515Y-18089508D01*
X12465515Y-18089508D02*
X12484563Y-18079984D01*
X12484563Y-18079984D02*
X12522658Y-18079984D01*
X12522658Y-18079984D02*
X12541706Y-18089508D01*
X12541706Y-18089508D02*
X12551230Y-18099031D01*
X12551230Y-18099031D02*
X12560753Y-18118079D01*
X12560753Y-18118079D02*
X12560753Y-18127603D01*
X12560753Y-18127603D02*
X12551230Y-18146650D01*
X12551230Y-18146650D02*
X12541706Y-18156174D01*
X12541706Y-18156174D02*
X12522658Y-18165698D01*
X12522658Y-18165698D02*
X12484563Y-18165698D01*
X12484563Y-18165698D02*
X12465515Y-18175222D01*
X12465515Y-18175222D02*
X12455992Y-18184746D01*
X12455992Y-18184746D02*
X12446468Y-18203793D01*
X12446468Y-18203793D02*
X12446468Y-18241889D01*
X12446468Y-18241889D02*
X12455992Y-18260936D01*
X12455992Y-18260936D02*
X12465515Y-18270460D01*
X12465515Y-18270460D02*
X12484563Y-18279984D01*
X12484563Y-18279984D02*
X12522658Y-18279984D01*
X12522658Y-18279984D02*
X12541706Y-18270460D01*
X12541706Y-18270460D02*
X12551230Y-18260936D01*
X12551230Y-18260936D02*
X12560753Y-18241889D01*
X12560753Y-18241889D02*
X12560753Y-18203793D01*
X12560753Y-18203793D02*
X12551230Y-18184746D01*
X12551230Y-18184746D02*
X12541706Y-18175222D01*
X12541706Y-18175222D02*
X12522658Y-18165698D01*
X12789325Y-18270460D02*
X12808373Y-18279984D01*
X12808373Y-18279984D02*
X12846468Y-18279984D01*
X12846468Y-18279984D02*
X12865515Y-18270460D01*
X12865515Y-18270460D02*
X12875039Y-18251412D01*
X12875039Y-18251412D02*
X12875039Y-18241889D01*
X12875039Y-18241889D02*
X12865515Y-18222841D01*
X12865515Y-18222841D02*
X12846468Y-18213317D01*
X12846468Y-18213317D02*
X12817896Y-18213317D01*
X12817896Y-18213317D02*
X12798849Y-18203793D01*
X12798849Y-18203793D02*
X12789325Y-18184746D01*
X12789325Y-18184746D02*
X12789325Y-18175222D01*
X12789325Y-18175222D02*
X12798849Y-18156174D01*
X12798849Y-18156174D02*
X12817896Y-18146650D01*
X12817896Y-18146650D02*
X12846468Y-18146650D01*
X12846468Y-18146650D02*
X12865515Y-18156174D01*
X12989325Y-18279984D02*
X12970277Y-18270460D01*
X12970277Y-18270460D02*
X12960754Y-18251412D01*
X12960754Y-18251412D02*
X12960754Y-18079984D01*
X13094087Y-18279984D02*
X13075039Y-18270460D01*
X13075039Y-18270460D02*
X13065515Y-18260936D01*
X13065515Y-18260936D02*
X13055992Y-18241889D01*
X13055992Y-18241889D02*
X13055992Y-18184746D01*
X13055992Y-18184746D02*
X13065515Y-18165698D01*
X13065515Y-18165698D02*
X13075039Y-18156174D01*
X13075039Y-18156174D02*
X13094087Y-18146650D01*
X13094087Y-18146650D02*
X13122658Y-18146650D01*
X13122658Y-18146650D02*
X13141706Y-18156174D01*
X13141706Y-18156174D02*
X13151230Y-18165698D01*
X13151230Y-18165698D02*
X13160754Y-18184746D01*
X13160754Y-18184746D02*
X13160754Y-18241889D01*
X13160754Y-18241889D02*
X13151230Y-18260936D01*
X13151230Y-18260936D02*
X13141706Y-18270460D01*
X13141706Y-18270460D02*
X13122658Y-18279984D01*
X13122658Y-18279984D02*
X13094087Y-18279984D01*
X13217896Y-18146650D02*
X13294087Y-18146650D01*
X13246468Y-18079984D02*
X13246468Y-18251412D01*
X13246468Y-18251412D02*
X13255992Y-18270460D01*
X13255992Y-18270460D02*
X13275039Y-18279984D01*
X13275039Y-18279984D02*
X13294087Y-18279984D01*
X13351230Y-18270460D02*
X13370277Y-18279984D01*
X13370277Y-18279984D02*
X13408373Y-18279984D01*
X13408373Y-18279984D02*
X13427420Y-18270460D01*
X13427420Y-18270460D02*
X13436944Y-18251412D01*
X13436944Y-18251412D02*
X13436944Y-18241889D01*
X13436944Y-18241889D02*
X13427420Y-18222841D01*
X13427420Y-18222841D02*
X13408373Y-18213317D01*
X13408373Y-18213317D02*
X13379801Y-18213317D01*
X13379801Y-18213317D02*
X13360754Y-18203793D01*
X13360754Y-18203793D02*
X13351230Y-18184746D01*
X13351230Y-18184746D02*
X13351230Y-18175222D01*
X13351230Y-18175222D02*
X13360754Y-18156174D01*
X13360754Y-18156174D02*
X13379801Y-18146650D01*
X13379801Y-18146650D02*
X13408373Y-18146650D01*
X13408373Y-18146650D02*
X13427420Y-18156174D01*
X13503611Y-18356174D02*
X13513135Y-18346650D01*
X13513135Y-18346650D02*
X13532182Y-18318079D01*
X13532182Y-18318079D02*
X13541706Y-18299031D01*
X13541706Y-18299031D02*
X13551230Y-18270460D01*
X13551230Y-18270460D02*
X13560754Y-18222841D01*
X13560754Y-18222841D02*
X13560754Y-18184746D01*
X13560754Y-18184746D02*
X13551230Y-18137127D01*
X13551230Y-18137127D02*
X13541706Y-18108555D01*
X13541706Y-18108555D02*
X13532182Y-18089508D01*
X13532182Y-18089508D02*
X13513135Y-18060936D01*
X13513135Y-18060936D02*
X13503611Y-18051412D01*
D13*
X7093505Y-18491116D02*
X7093505Y-18413885D01*
X7016274Y-18413885D01*
X7016274Y-18491116D01*
X7093505Y-18491116D01*
D11*
X7475039Y-18543984D02*
X7360753Y-18543984D01*
X7417896Y-18543984D02*
X7417896Y-18343984D01*
X7417896Y-18343984D02*
X7398848Y-18372555D01*
X7398848Y-18372555D02*
X7379801Y-18391603D01*
X7379801Y-18391603D02*
X7360753Y-18401127D01*
X7560753Y-18524936D02*
X7570277Y-18534460D01*
X7570277Y-18534460D02*
X7560753Y-18543984D01*
X7560753Y-18543984D02*
X7551229Y-18534460D01*
X7551229Y-18534460D02*
X7560753Y-18524936D01*
X7560753Y-18524936D02*
X7560753Y-18543984D01*
X7694086Y-18343984D02*
X7713134Y-18343984D01*
X7713134Y-18343984D02*
X7732182Y-18353508D01*
X7732182Y-18353508D02*
X7741705Y-18363031D01*
X7741705Y-18363031D02*
X7751229Y-18382079D01*
X7751229Y-18382079D02*
X7760753Y-18420174D01*
X7760753Y-18420174D02*
X7760753Y-18467793D01*
X7760753Y-18467793D02*
X7751229Y-18505889D01*
X7751229Y-18505889D02*
X7741705Y-18524936D01*
X7741705Y-18524936D02*
X7732182Y-18534460D01*
X7732182Y-18534460D02*
X7713134Y-18543984D01*
X7713134Y-18543984D02*
X7694086Y-18543984D01*
X7694086Y-18543984D02*
X7675039Y-18534460D01*
X7675039Y-18534460D02*
X7665515Y-18524936D01*
X7665515Y-18524936D02*
X7655991Y-18505889D01*
X7655991Y-18505889D02*
X7646467Y-18467793D01*
X7646467Y-18467793D02*
X7646467Y-18420174D01*
X7646467Y-18420174D02*
X7655991Y-18382079D01*
X7655991Y-18382079D02*
X7665515Y-18363031D01*
X7665515Y-18363031D02*
X7675039Y-18353508D01*
X7675039Y-18353508D02*
X7694086Y-18343984D01*
X7855991Y-18543984D02*
X7894086Y-18543984D01*
X7894086Y-18543984D02*
X7913134Y-18534460D01*
X7913134Y-18534460D02*
X7922658Y-18524936D01*
X7922658Y-18524936D02*
X7941705Y-18496365D01*
X7941705Y-18496365D02*
X7951229Y-18458270D01*
X7951229Y-18458270D02*
X7951229Y-18382079D01*
X7951229Y-18382079D02*
X7941705Y-18363031D01*
X7941705Y-18363031D02*
X7932182Y-18353508D01*
X7932182Y-18353508D02*
X7913134Y-18343984D01*
X7913134Y-18343984D02*
X7875039Y-18343984D01*
X7875039Y-18343984D02*
X7855991Y-18353508D01*
X7855991Y-18353508D02*
X7846467Y-18363031D01*
X7846467Y-18363031D02*
X7836943Y-18382079D01*
X7836943Y-18382079D02*
X7836943Y-18429698D01*
X7836943Y-18429698D02*
X7846467Y-18448746D01*
X7846467Y-18448746D02*
X7855991Y-18458270D01*
X7855991Y-18458270D02*
X7875039Y-18467793D01*
X7875039Y-18467793D02*
X7913134Y-18467793D01*
X7913134Y-18467793D02*
X7932182Y-18458270D01*
X7932182Y-18458270D02*
X7941705Y-18448746D01*
X7941705Y-18448746D02*
X7951229Y-18429698D01*
X8027420Y-18363031D02*
X8036943Y-18353508D01*
X8036943Y-18353508D02*
X8055991Y-18343984D01*
X8055991Y-18343984D02*
X8103610Y-18343984D01*
X8103610Y-18343984D02*
X8122658Y-18353508D01*
X8122658Y-18353508D02*
X8132182Y-18363031D01*
X8132182Y-18363031D02*
X8141705Y-18382079D01*
X8141705Y-18382079D02*
X8141705Y-18401127D01*
X8141705Y-18401127D02*
X8132182Y-18429698D01*
X8132182Y-18429698D02*
X8017896Y-18543984D01*
X8017896Y-18543984D02*
X8141705Y-18543984D01*
X8227420Y-18543984D02*
X8227420Y-18410650D01*
X8227420Y-18429698D02*
X8236943Y-18420174D01*
X8236943Y-18420174D02*
X8255991Y-18410650D01*
X8255991Y-18410650D02*
X8284563Y-18410650D01*
X8284563Y-18410650D02*
X8303610Y-18420174D01*
X8303610Y-18420174D02*
X8313134Y-18439222D01*
X8313134Y-18439222D02*
X8313134Y-18543984D01*
X8313134Y-18439222D02*
X8322658Y-18420174D01*
X8322658Y-18420174D02*
X8341705Y-18410650D01*
X8341705Y-18410650D02*
X8370277Y-18410650D01*
X8370277Y-18410650D02*
X8389325Y-18420174D01*
X8389325Y-18420174D02*
X8398848Y-18439222D01*
X8398848Y-18439222D02*
X8398848Y-18543984D01*
X8494086Y-18543984D02*
X8494086Y-18410650D01*
X8494086Y-18429698D02*
X8503610Y-18420174D01*
X8503610Y-18420174D02*
X8522658Y-18410650D01*
X8522658Y-18410650D02*
X8551229Y-18410650D01*
X8551229Y-18410650D02*
X8570277Y-18420174D01*
X8570277Y-18420174D02*
X8579801Y-18439222D01*
X8579801Y-18439222D02*
X8579801Y-18543984D01*
X8579801Y-18439222D02*
X8589325Y-18420174D01*
X8589325Y-18420174D02*
X8608372Y-18410650D01*
X8608372Y-18410650D02*
X8636944Y-18410650D01*
X8636944Y-18410650D02*
X8655991Y-18420174D01*
X8655991Y-18420174D02*
X8665515Y-18439222D01*
X8665515Y-18439222D02*
X8665515Y-18543984D01*
X9055991Y-18334460D02*
X8884563Y-18591603D01*
X9313134Y-18343984D02*
X9332182Y-18343984D01*
X9332182Y-18343984D02*
X9351229Y-18353508D01*
X9351229Y-18353508D02*
X9360753Y-18363031D01*
X9360753Y-18363031D02*
X9370277Y-18382079D01*
X9370277Y-18382079D02*
X9379801Y-18420174D01*
X9379801Y-18420174D02*
X9379801Y-18467793D01*
X9379801Y-18467793D02*
X9370277Y-18505889D01*
X9370277Y-18505889D02*
X9360753Y-18524936D01*
X9360753Y-18524936D02*
X9351229Y-18534460D01*
X9351229Y-18534460D02*
X9332182Y-18543984D01*
X9332182Y-18543984D02*
X9313134Y-18543984D01*
X9313134Y-18543984D02*
X9294087Y-18534460D01*
X9294087Y-18534460D02*
X9284563Y-18524936D01*
X9284563Y-18524936D02*
X9275039Y-18505889D01*
X9275039Y-18505889D02*
X9265515Y-18467793D01*
X9265515Y-18467793D02*
X9265515Y-18420174D01*
X9265515Y-18420174D02*
X9275039Y-18382079D01*
X9275039Y-18382079D02*
X9284563Y-18363031D01*
X9284563Y-18363031D02*
X9294087Y-18353508D01*
X9294087Y-18353508D02*
X9313134Y-18343984D01*
X9465515Y-18524936D02*
X9475039Y-18534460D01*
X9475039Y-18534460D02*
X9465515Y-18543984D01*
X9465515Y-18543984D02*
X9455991Y-18534460D01*
X9455991Y-18534460D02*
X9465515Y-18524936D01*
X9465515Y-18524936D02*
X9465515Y-18543984D01*
X9598848Y-18343984D02*
X9617896Y-18343984D01*
X9617896Y-18343984D02*
X9636944Y-18353508D01*
X9636944Y-18353508D02*
X9646468Y-18363031D01*
X9646468Y-18363031D02*
X9655991Y-18382079D01*
X9655991Y-18382079D02*
X9665515Y-18420174D01*
X9665515Y-18420174D02*
X9665515Y-18467793D01*
X9665515Y-18467793D02*
X9655991Y-18505889D01*
X9655991Y-18505889D02*
X9646468Y-18524936D01*
X9646468Y-18524936D02*
X9636944Y-18534460D01*
X9636944Y-18534460D02*
X9617896Y-18543984D01*
X9617896Y-18543984D02*
X9598848Y-18543984D01*
X9598848Y-18543984D02*
X9579801Y-18534460D01*
X9579801Y-18534460D02*
X9570277Y-18524936D01*
X9570277Y-18524936D02*
X9560753Y-18505889D01*
X9560753Y-18505889D02*
X9551229Y-18467793D01*
X9551229Y-18467793D02*
X9551229Y-18420174D01*
X9551229Y-18420174D02*
X9560753Y-18382079D01*
X9560753Y-18382079D02*
X9570277Y-18363031D01*
X9570277Y-18363031D02*
X9579801Y-18353508D01*
X9579801Y-18353508D02*
X9598848Y-18343984D01*
X9836944Y-18410650D02*
X9836944Y-18543984D01*
X9789325Y-18334460D02*
X9741706Y-18477317D01*
X9741706Y-18477317D02*
X9865515Y-18477317D01*
X9922658Y-18343984D02*
X10046468Y-18343984D01*
X10046468Y-18343984D02*
X9979801Y-18420174D01*
X9979801Y-18420174D02*
X10008372Y-18420174D01*
X10008372Y-18420174D02*
X10027420Y-18429698D01*
X10027420Y-18429698D02*
X10036944Y-18439222D01*
X10036944Y-18439222D02*
X10046468Y-18458270D01*
X10046468Y-18458270D02*
X10046468Y-18505889D01*
X10046468Y-18505889D02*
X10036944Y-18524936D01*
X10036944Y-18524936D02*
X10027420Y-18534460D01*
X10027420Y-18534460D02*
X10008372Y-18543984D01*
X10008372Y-18543984D02*
X9951229Y-18543984D01*
X9951229Y-18543984D02*
X9932182Y-18534460D01*
X9932182Y-18534460D02*
X9922658Y-18524936D01*
X10170277Y-18343984D02*
X10189325Y-18343984D01*
X10189325Y-18343984D02*
X10208372Y-18353508D01*
X10208372Y-18353508D02*
X10217896Y-18363031D01*
X10217896Y-18363031D02*
X10227420Y-18382079D01*
X10227420Y-18382079D02*
X10236944Y-18420174D01*
X10236944Y-18420174D02*
X10236944Y-18467793D01*
X10236944Y-18467793D02*
X10227420Y-18505889D01*
X10227420Y-18505889D02*
X10217896Y-18524936D01*
X10217896Y-18524936D02*
X10208372Y-18534460D01*
X10208372Y-18534460D02*
X10189325Y-18543984D01*
X10189325Y-18543984D02*
X10170277Y-18543984D01*
X10170277Y-18543984D02*
X10151229Y-18534460D01*
X10151229Y-18534460D02*
X10141706Y-18524936D01*
X10141706Y-18524936D02*
X10132182Y-18505889D01*
X10132182Y-18505889D02*
X10122658Y-18467793D01*
X10122658Y-18467793D02*
X10122658Y-18420174D01*
X10122658Y-18420174D02*
X10132182Y-18382079D01*
X10132182Y-18382079D02*
X10141706Y-18363031D01*
X10141706Y-18363031D02*
X10151229Y-18353508D01*
X10151229Y-18353508D02*
X10170277Y-18343984D01*
X10313134Y-18343984D02*
X10313134Y-18382079D01*
X10389325Y-18343984D02*
X10389325Y-18382079D01*
X10684563Y-18620174D02*
X10675039Y-18610650D01*
X10675039Y-18610650D02*
X10655991Y-18582079D01*
X10655991Y-18582079D02*
X10646468Y-18563031D01*
X10646468Y-18563031D02*
X10636944Y-18534460D01*
X10636944Y-18534460D02*
X10627420Y-18486841D01*
X10627420Y-18486841D02*
X10627420Y-18448746D01*
X10627420Y-18448746D02*
X10636944Y-18401127D01*
X10636944Y-18401127D02*
X10646468Y-18372555D01*
X10646468Y-18372555D02*
X10655991Y-18353508D01*
X10655991Y-18353508D02*
X10675039Y-18324936D01*
X10675039Y-18324936D02*
X10684563Y-18315412D01*
X10751230Y-18363031D02*
X10760753Y-18353508D01*
X10760753Y-18353508D02*
X10779801Y-18343984D01*
X10779801Y-18343984D02*
X10827420Y-18343984D01*
X10827420Y-18343984D02*
X10846468Y-18353508D01*
X10846468Y-18353508D02*
X10855991Y-18363031D01*
X10855991Y-18363031D02*
X10865515Y-18382079D01*
X10865515Y-18382079D02*
X10865515Y-18401127D01*
X10865515Y-18401127D02*
X10855991Y-18429698D01*
X10855991Y-18429698D02*
X10741706Y-18543984D01*
X10741706Y-18543984D02*
X10865515Y-18543984D01*
X10960753Y-18543984D02*
X10998849Y-18543984D01*
X10998849Y-18543984D02*
X11017896Y-18534460D01*
X11017896Y-18534460D02*
X11027420Y-18524936D01*
X11027420Y-18524936D02*
X11046468Y-18496365D01*
X11046468Y-18496365D02*
X11055991Y-18458270D01*
X11055991Y-18458270D02*
X11055991Y-18382079D01*
X11055991Y-18382079D02*
X11046468Y-18363031D01*
X11046468Y-18363031D02*
X11036944Y-18353508D01*
X11036944Y-18353508D02*
X11017896Y-18343984D01*
X11017896Y-18343984D02*
X10979801Y-18343984D01*
X10979801Y-18343984D02*
X10960753Y-18353508D01*
X10960753Y-18353508D02*
X10951230Y-18363031D01*
X10951230Y-18363031D02*
X10941706Y-18382079D01*
X10941706Y-18382079D02*
X10941706Y-18429698D01*
X10941706Y-18429698D02*
X10951230Y-18448746D01*
X10951230Y-18448746D02*
X10960753Y-18458270D01*
X10960753Y-18458270D02*
X10979801Y-18467793D01*
X10979801Y-18467793D02*
X11017896Y-18467793D01*
X11017896Y-18467793D02*
X11036944Y-18458270D01*
X11036944Y-18458270D02*
X11046468Y-18448746D01*
X11046468Y-18448746D02*
X11055991Y-18429698D01*
X11294087Y-18543984D02*
X11294087Y-18343984D01*
X11379801Y-18543984D02*
X11379801Y-18439222D01*
X11379801Y-18439222D02*
X11370277Y-18420174D01*
X11370277Y-18420174D02*
X11351230Y-18410650D01*
X11351230Y-18410650D02*
X11322658Y-18410650D01*
X11322658Y-18410650D02*
X11303610Y-18420174D01*
X11303610Y-18420174D02*
X11294087Y-18429698D01*
X11503610Y-18543984D02*
X11484563Y-18534460D01*
X11484563Y-18534460D02*
X11475039Y-18524936D01*
X11475039Y-18524936D02*
X11465515Y-18505889D01*
X11465515Y-18505889D02*
X11465515Y-18448746D01*
X11465515Y-18448746D02*
X11475039Y-18429698D01*
X11475039Y-18429698D02*
X11484563Y-18420174D01*
X11484563Y-18420174D02*
X11503610Y-18410650D01*
X11503610Y-18410650D02*
X11532182Y-18410650D01*
X11532182Y-18410650D02*
X11551230Y-18420174D01*
X11551230Y-18420174D02*
X11560753Y-18429698D01*
X11560753Y-18429698D02*
X11570277Y-18448746D01*
X11570277Y-18448746D02*
X11570277Y-18505889D01*
X11570277Y-18505889D02*
X11560753Y-18524936D01*
X11560753Y-18524936D02*
X11551230Y-18534460D01*
X11551230Y-18534460D02*
X11532182Y-18543984D01*
X11532182Y-18543984D02*
X11503610Y-18543984D01*
X11684563Y-18543984D02*
X11665515Y-18534460D01*
X11665515Y-18534460D02*
X11655991Y-18515412D01*
X11655991Y-18515412D02*
X11655991Y-18343984D01*
X11836944Y-18534460D02*
X11817896Y-18543984D01*
X11817896Y-18543984D02*
X11779801Y-18543984D01*
X11779801Y-18543984D02*
X11760753Y-18534460D01*
X11760753Y-18534460D02*
X11751230Y-18515412D01*
X11751230Y-18515412D02*
X11751230Y-18439222D01*
X11751230Y-18439222D02*
X11760753Y-18420174D01*
X11760753Y-18420174D02*
X11779801Y-18410650D01*
X11779801Y-18410650D02*
X11817896Y-18410650D01*
X11817896Y-18410650D02*
X11836944Y-18420174D01*
X11836944Y-18420174D02*
X11846468Y-18439222D01*
X11846468Y-18439222D02*
X11846468Y-18458270D01*
X11846468Y-18458270D02*
X11751230Y-18477317D01*
X11922658Y-18534460D02*
X11941706Y-18543984D01*
X11941706Y-18543984D02*
X11979801Y-18543984D01*
X11979801Y-18543984D02*
X11998849Y-18534460D01*
X11998849Y-18534460D02*
X12008372Y-18515412D01*
X12008372Y-18515412D02*
X12008372Y-18505889D01*
X12008372Y-18505889D02*
X11998849Y-18486841D01*
X11998849Y-18486841D02*
X11979801Y-18477317D01*
X11979801Y-18477317D02*
X11951230Y-18477317D01*
X11951230Y-18477317D02*
X11932182Y-18467793D01*
X11932182Y-18467793D02*
X11922658Y-18448746D01*
X11922658Y-18448746D02*
X11922658Y-18439222D01*
X11922658Y-18439222D02*
X11932182Y-18420174D01*
X11932182Y-18420174D02*
X11951230Y-18410650D01*
X11951230Y-18410650D02*
X11979801Y-18410650D01*
X11979801Y-18410650D02*
X11998849Y-18420174D01*
X12075039Y-18620174D02*
X12084563Y-18610650D01*
X12084563Y-18610650D02*
X12103611Y-18582079D01*
X12103611Y-18582079D02*
X12113134Y-18563031D01*
X12113134Y-18563031D02*
X12122658Y-18534460D01*
X12122658Y-18534460D02*
X12132182Y-18486841D01*
X12132182Y-18486841D02*
X12132182Y-18448746D01*
X12132182Y-18448746D02*
X12122658Y-18401127D01*
X12122658Y-18401127D02*
X12113134Y-18372555D01*
X12113134Y-18372555D02*
X12103611Y-18353508D01*
X12103611Y-18353508D02*
X12084563Y-18324936D01*
X12084563Y-18324936D02*
X12075039Y-18315412D01*
D14*
X7034570Y-18791430D02*
X7109500Y-18716500D01*
X7034570Y-18641570D01*
X6959640Y-18716500D01*
X7034570Y-18791430D01*
D11*
X7475039Y-18807984D02*
X7360753Y-18807984D01*
X7417896Y-18807984D02*
X7417896Y-18607984D01*
X7417896Y-18607984D02*
X7398848Y-18636555D01*
X7398848Y-18636555D02*
X7379801Y-18655603D01*
X7379801Y-18655603D02*
X7360753Y-18665127D01*
X7560753Y-18788936D02*
X7570277Y-18798460D01*
X7570277Y-18798460D02*
X7560753Y-18807984D01*
X7560753Y-18807984D02*
X7551229Y-18798460D01*
X7551229Y-18798460D02*
X7560753Y-18788936D01*
X7560753Y-18788936D02*
X7560753Y-18807984D01*
X7741705Y-18674650D02*
X7741705Y-18807984D01*
X7694086Y-18598460D02*
X7646467Y-18741317D01*
X7646467Y-18741317D02*
X7770277Y-18741317D01*
X7855991Y-18807984D02*
X7894086Y-18807984D01*
X7894086Y-18807984D02*
X7913134Y-18798460D01*
X7913134Y-18798460D02*
X7922658Y-18788936D01*
X7922658Y-18788936D02*
X7941705Y-18760365D01*
X7941705Y-18760365D02*
X7951229Y-18722270D01*
X7951229Y-18722270D02*
X7951229Y-18646079D01*
X7951229Y-18646079D02*
X7941705Y-18627031D01*
X7941705Y-18627031D02*
X7932182Y-18617508D01*
X7932182Y-18617508D02*
X7913134Y-18607984D01*
X7913134Y-18607984D02*
X7875039Y-18607984D01*
X7875039Y-18607984D02*
X7855991Y-18617508D01*
X7855991Y-18617508D02*
X7846467Y-18627031D01*
X7846467Y-18627031D02*
X7836943Y-18646079D01*
X7836943Y-18646079D02*
X7836943Y-18693698D01*
X7836943Y-18693698D02*
X7846467Y-18712746D01*
X7846467Y-18712746D02*
X7855991Y-18722270D01*
X7855991Y-18722270D02*
X7875039Y-18731793D01*
X7875039Y-18731793D02*
X7913134Y-18731793D01*
X7913134Y-18731793D02*
X7932182Y-18722270D01*
X7932182Y-18722270D02*
X7941705Y-18712746D01*
X7941705Y-18712746D02*
X7951229Y-18693698D01*
X8046467Y-18807984D02*
X8084562Y-18807984D01*
X8084562Y-18807984D02*
X8103610Y-18798460D01*
X8103610Y-18798460D02*
X8113134Y-18788936D01*
X8113134Y-18788936D02*
X8132182Y-18760365D01*
X8132182Y-18760365D02*
X8141705Y-18722270D01*
X8141705Y-18722270D02*
X8141705Y-18646079D01*
X8141705Y-18646079D02*
X8132182Y-18627031D01*
X8132182Y-18627031D02*
X8122658Y-18617508D01*
X8122658Y-18617508D02*
X8103610Y-18607984D01*
X8103610Y-18607984D02*
X8065515Y-18607984D01*
X8065515Y-18607984D02*
X8046467Y-18617508D01*
X8046467Y-18617508D02*
X8036943Y-18627031D01*
X8036943Y-18627031D02*
X8027420Y-18646079D01*
X8027420Y-18646079D02*
X8027420Y-18693698D01*
X8027420Y-18693698D02*
X8036943Y-18712746D01*
X8036943Y-18712746D02*
X8046467Y-18722270D01*
X8046467Y-18722270D02*
X8065515Y-18731793D01*
X8065515Y-18731793D02*
X8103610Y-18731793D01*
X8103610Y-18731793D02*
X8122658Y-18722270D01*
X8122658Y-18722270D02*
X8132182Y-18712746D01*
X8132182Y-18712746D02*
X8141705Y-18693698D01*
X8227420Y-18807984D02*
X8227420Y-18674650D01*
X8227420Y-18693698D02*
X8236943Y-18684174D01*
X8236943Y-18684174D02*
X8255991Y-18674650D01*
X8255991Y-18674650D02*
X8284563Y-18674650D01*
X8284563Y-18674650D02*
X8303610Y-18684174D01*
X8303610Y-18684174D02*
X8313134Y-18703222D01*
X8313134Y-18703222D02*
X8313134Y-18807984D01*
X8313134Y-18703222D02*
X8322658Y-18684174D01*
X8322658Y-18684174D02*
X8341705Y-18674650D01*
X8341705Y-18674650D02*
X8370277Y-18674650D01*
X8370277Y-18674650D02*
X8389325Y-18684174D01*
X8389325Y-18684174D02*
X8398848Y-18703222D01*
X8398848Y-18703222D02*
X8398848Y-18807984D01*
X8494086Y-18807984D02*
X8494086Y-18674650D01*
X8494086Y-18693698D02*
X8503610Y-18684174D01*
X8503610Y-18684174D02*
X8522658Y-18674650D01*
X8522658Y-18674650D02*
X8551229Y-18674650D01*
X8551229Y-18674650D02*
X8570277Y-18684174D01*
X8570277Y-18684174D02*
X8579801Y-18703222D01*
X8579801Y-18703222D02*
X8579801Y-18807984D01*
X8579801Y-18703222D02*
X8589325Y-18684174D01*
X8589325Y-18684174D02*
X8608372Y-18674650D01*
X8608372Y-18674650D02*
X8636944Y-18674650D01*
X8636944Y-18674650D02*
X8655991Y-18684174D01*
X8655991Y-18684174D02*
X8665515Y-18703222D01*
X8665515Y-18703222D02*
X8665515Y-18807984D01*
X9055991Y-18598460D02*
X8884563Y-18855603D01*
X9313134Y-18607984D02*
X9332182Y-18607984D01*
X9332182Y-18607984D02*
X9351229Y-18617508D01*
X9351229Y-18617508D02*
X9360753Y-18627031D01*
X9360753Y-18627031D02*
X9370277Y-18646079D01*
X9370277Y-18646079D02*
X9379801Y-18684174D01*
X9379801Y-18684174D02*
X9379801Y-18731793D01*
X9379801Y-18731793D02*
X9370277Y-18769889D01*
X9370277Y-18769889D02*
X9360753Y-18788936D01*
X9360753Y-18788936D02*
X9351229Y-18798460D01*
X9351229Y-18798460D02*
X9332182Y-18807984D01*
X9332182Y-18807984D02*
X9313134Y-18807984D01*
X9313134Y-18807984D02*
X9294087Y-18798460D01*
X9294087Y-18798460D02*
X9284563Y-18788936D01*
X9284563Y-18788936D02*
X9275039Y-18769889D01*
X9275039Y-18769889D02*
X9265515Y-18731793D01*
X9265515Y-18731793D02*
X9265515Y-18684174D01*
X9265515Y-18684174D02*
X9275039Y-18646079D01*
X9275039Y-18646079D02*
X9284563Y-18627031D01*
X9284563Y-18627031D02*
X9294087Y-18617508D01*
X9294087Y-18617508D02*
X9313134Y-18607984D01*
X9465515Y-18788936D02*
X9475039Y-18798460D01*
X9475039Y-18798460D02*
X9465515Y-18807984D01*
X9465515Y-18807984D02*
X9455991Y-18798460D01*
X9455991Y-18798460D02*
X9465515Y-18788936D01*
X9465515Y-18788936D02*
X9465515Y-18807984D01*
X9598848Y-18607984D02*
X9617896Y-18607984D01*
X9617896Y-18607984D02*
X9636944Y-18617508D01*
X9636944Y-18617508D02*
X9646468Y-18627031D01*
X9646468Y-18627031D02*
X9655991Y-18646079D01*
X9655991Y-18646079D02*
X9665515Y-18684174D01*
X9665515Y-18684174D02*
X9665515Y-18731793D01*
X9665515Y-18731793D02*
X9655991Y-18769889D01*
X9655991Y-18769889D02*
X9646468Y-18788936D01*
X9646468Y-18788936D02*
X9636944Y-18798460D01*
X9636944Y-18798460D02*
X9617896Y-18807984D01*
X9617896Y-18807984D02*
X9598848Y-18807984D01*
X9598848Y-18807984D02*
X9579801Y-18798460D01*
X9579801Y-18798460D02*
X9570277Y-18788936D01*
X9570277Y-18788936D02*
X9560753Y-18769889D01*
X9560753Y-18769889D02*
X9551229Y-18731793D01*
X9551229Y-18731793D02*
X9551229Y-18684174D01*
X9551229Y-18684174D02*
X9560753Y-18646079D01*
X9560753Y-18646079D02*
X9570277Y-18627031D01*
X9570277Y-18627031D02*
X9579801Y-18617508D01*
X9579801Y-18617508D02*
X9598848Y-18607984D01*
X9846468Y-18607984D02*
X9751229Y-18607984D01*
X9751229Y-18607984D02*
X9741706Y-18703222D01*
X9741706Y-18703222D02*
X9751229Y-18693698D01*
X9751229Y-18693698D02*
X9770277Y-18684174D01*
X9770277Y-18684174D02*
X9817896Y-18684174D01*
X9817896Y-18684174D02*
X9836944Y-18693698D01*
X9836944Y-18693698D02*
X9846468Y-18703222D01*
X9846468Y-18703222D02*
X9855991Y-18722270D01*
X9855991Y-18722270D02*
X9855991Y-18769889D01*
X9855991Y-18769889D02*
X9846468Y-18788936D01*
X9846468Y-18788936D02*
X9836944Y-18798460D01*
X9836944Y-18798460D02*
X9817896Y-18807984D01*
X9817896Y-18807984D02*
X9770277Y-18807984D01*
X9770277Y-18807984D02*
X9751229Y-18798460D01*
X9751229Y-18798460D02*
X9741706Y-18788936D01*
X9951229Y-18807984D02*
X9989325Y-18807984D01*
X9989325Y-18807984D02*
X10008372Y-18798460D01*
X10008372Y-18798460D02*
X10017896Y-18788936D01*
X10017896Y-18788936D02*
X10036944Y-18760365D01*
X10036944Y-18760365D02*
X10046468Y-18722270D01*
X10046468Y-18722270D02*
X10046468Y-18646079D01*
X10046468Y-18646079D02*
X10036944Y-18627031D01*
X10036944Y-18627031D02*
X10027420Y-18617508D01*
X10027420Y-18617508D02*
X10008372Y-18607984D01*
X10008372Y-18607984D02*
X9970277Y-18607984D01*
X9970277Y-18607984D02*
X9951229Y-18617508D01*
X9951229Y-18617508D02*
X9941706Y-18627031D01*
X9941706Y-18627031D02*
X9932182Y-18646079D01*
X9932182Y-18646079D02*
X9932182Y-18693698D01*
X9932182Y-18693698D02*
X9941706Y-18712746D01*
X9941706Y-18712746D02*
X9951229Y-18722270D01*
X9951229Y-18722270D02*
X9970277Y-18731793D01*
X9970277Y-18731793D02*
X10008372Y-18731793D01*
X10008372Y-18731793D02*
X10027420Y-18722270D01*
X10027420Y-18722270D02*
X10036944Y-18712746D01*
X10036944Y-18712746D02*
X10046468Y-18693698D01*
X10170277Y-18607984D02*
X10189325Y-18607984D01*
X10189325Y-18607984D02*
X10208372Y-18617508D01*
X10208372Y-18617508D02*
X10217896Y-18627031D01*
X10217896Y-18627031D02*
X10227420Y-18646079D01*
X10227420Y-18646079D02*
X10236944Y-18684174D01*
X10236944Y-18684174D02*
X10236944Y-18731793D01*
X10236944Y-18731793D02*
X10227420Y-18769889D01*
X10227420Y-18769889D02*
X10217896Y-18788936D01*
X10217896Y-18788936D02*
X10208372Y-18798460D01*
X10208372Y-18798460D02*
X10189325Y-18807984D01*
X10189325Y-18807984D02*
X10170277Y-18807984D01*
X10170277Y-18807984D02*
X10151229Y-18798460D01*
X10151229Y-18798460D02*
X10141706Y-18788936D01*
X10141706Y-18788936D02*
X10132182Y-18769889D01*
X10132182Y-18769889D02*
X10122658Y-18731793D01*
X10122658Y-18731793D02*
X10122658Y-18684174D01*
X10122658Y-18684174D02*
X10132182Y-18646079D01*
X10132182Y-18646079D02*
X10141706Y-18627031D01*
X10141706Y-18627031D02*
X10151229Y-18617508D01*
X10151229Y-18617508D02*
X10170277Y-18607984D01*
X10313134Y-18607984D02*
X10313134Y-18646079D01*
X10389325Y-18607984D02*
X10389325Y-18646079D01*
X10684563Y-18884174D02*
X10675039Y-18874650D01*
X10675039Y-18874650D02*
X10655991Y-18846079D01*
X10655991Y-18846079D02*
X10646468Y-18827031D01*
X10646468Y-18827031D02*
X10636944Y-18798460D01*
X10636944Y-18798460D02*
X10627420Y-18750841D01*
X10627420Y-18750841D02*
X10627420Y-18712746D01*
X10627420Y-18712746D02*
X10636944Y-18665127D01*
X10636944Y-18665127D02*
X10646468Y-18636555D01*
X10646468Y-18636555D02*
X10655991Y-18617508D01*
X10655991Y-18617508D02*
X10675039Y-18588936D01*
X10675039Y-18588936D02*
X10684563Y-18579412D01*
X10741706Y-18607984D02*
X10875039Y-18607984D01*
X10875039Y-18607984D02*
X10789325Y-18807984D01*
X10941706Y-18627031D02*
X10951230Y-18617508D01*
X10951230Y-18617508D02*
X10970277Y-18607984D01*
X10970277Y-18607984D02*
X11017896Y-18607984D01*
X11017896Y-18607984D02*
X11036944Y-18617508D01*
X11036944Y-18617508D02*
X11046468Y-18627031D01*
X11046468Y-18627031D02*
X11055991Y-18646079D01*
X11055991Y-18646079D02*
X11055991Y-18665127D01*
X11055991Y-18665127D02*
X11046468Y-18693698D01*
X11046468Y-18693698D02*
X10932182Y-18807984D01*
X10932182Y-18807984D02*
X11055991Y-18807984D01*
X11294087Y-18807984D02*
X11294087Y-18607984D01*
X11379801Y-18807984D02*
X11379801Y-18703222D01*
X11379801Y-18703222D02*
X11370277Y-18684174D01*
X11370277Y-18684174D02*
X11351230Y-18674650D01*
X11351230Y-18674650D02*
X11322658Y-18674650D01*
X11322658Y-18674650D02*
X11303610Y-18684174D01*
X11303610Y-18684174D02*
X11294087Y-18693698D01*
X11503610Y-18807984D02*
X11484563Y-18798460D01*
X11484563Y-18798460D02*
X11475039Y-18788936D01*
X11475039Y-18788936D02*
X11465515Y-18769889D01*
X11465515Y-18769889D02*
X11465515Y-18712746D01*
X11465515Y-18712746D02*
X11475039Y-18693698D01*
X11475039Y-18693698D02*
X11484563Y-18684174D01*
X11484563Y-18684174D02*
X11503610Y-18674650D01*
X11503610Y-18674650D02*
X11532182Y-18674650D01*
X11532182Y-18674650D02*
X11551230Y-18684174D01*
X11551230Y-18684174D02*
X11560753Y-18693698D01*
X11560753Y-18693698D02*
X11570277Y-18712746D01*
X11570277Y-18712746D02*
X11570277Y-18769889D01*
X11570277Y-18769889D02*
X11560753Y-18788936D01*
X11560753Y-18788936D02*
X11551230Y-18798460D01*
X11551230Y-18798460D02*
X11532182Y-18807984D01*
X11532182Y-18807984D02*
X11503610Y-18807984D01*
X11684563Y-18807984D02*
X11665515Y-18798460D01*
X11665515Y-18798460D02*
X11655991Y-18779412D01*
X11655991Y-18779412D02*
X11655991Y-18607984D01*
X11836944Y-18798460D02*
X11817896Y-18807984D01*
X11817896Y-18807984D02*
X11779801Y-18807984D01*
X11779801Y-18807984D02*
X11760753Y-18798460D01*
X11760753Y-18798460D02*
X11751230Y-18779412D01*
X11751230Y-18779412D02*
X11751230Y-18703222D01*
X11751230Y-18703222D02*
X11760753Y-18684174D01*
X11760753Y-18684174D02*
X11779801Y-18674650D01*
X11779801Y-18674650D02*
X11817896Y-18674650D01*
X11817896Y-18674650D02*
X11836944Y-18684174D01*
X11836944Y-18684174D02*
X11846468Y-18703222D01*
X11846468Y-18703222D02*
X11846468Y-18722270D01*
X11846468Y-18722270D02*
X11751230Y-18741317D01*
X11922658Y-18798460D02*
X11941706Y-18807984D01*
X11941706Y-18807984D02*
X11979801Y-18807984D01*
X11979801Y-18807984D02*
X11998849Y-18798460D01*
X11998849Y-18798460D02*
X12008372Y-18779412D01*
X12008372Y-18779412D02*
X12008372Y-18769889D01*
X12008372Y-18769889D02*
X11998849Y-18750841D01*
X11998849Y-18750841D02*
X11979801Y-18741317D01*
X11979801Y-18741317D02*
X11951230Y-18741317D01*
X11951230Y-18741317D02*
X11932182Y-18731793D01*
X11932182Y-18731793D02*
X11922658Y-18712746D01*
X11922658Y-18712746D02*
X11922658Y-18703222D01*
X11922658Y-18703222D02*
X11932182Y-18684174D01*
X11932182Y-18684174D02*
X11951230Y-18674650D01*
X11951230Y-18674650D02*
X11979801Y-18674650D01*
X11979801Y-18674650D02*
X11998849Y-18684174D01*
X12075039Y-18884174D02*
X12084563Y-18874650D01*
X12084563Y-18874650D02*
X12103611Y-18846079D01*
X12103611Y-18846079D02*
X12113134Y-18827031D01*
X12113134Y-18827031D02*
X12122658Y-18798460D01*
X12122658Y-18798460D02*
X12132182Y-18750841D01*
X12132182Y-18750841D02*
X12132182Y-18712746D01*
X12132182Y-18712746D02*
X12122658Y-18665127D01*
X12122658Y-18665127D02*
X12113134Y-18636555D01*
X12113134Y-18636555D02*
X12103611Y-18617508D01*
X12103611Y-18617508D02*
X12084563Y-18588936D01*
X12084563Y-18588936D02*
X12075039Y-18579412D01*
M02*
