%TF.GenerationSoftware,KiCad,Pcbnew,8.0.3*%
%TF.CreationDate,2024-07-02T22:23:14+01:00*%
%TF.ProjectId,simple_split,73696d70-6c65-45f7-9370-6c69742e6b69,v1.0.0*%
%TF.SameCoordinates,Original*%
%TF.FileFunction,Soldermask,Top*%
%TF.FilePolarity,Negative*%
%FSLAX46Y46*%
G04 Gerber Fmt 4.6, Leading zero omitted, Abs format (unit mm)*
G04 Created by KiCad (PCBNEW 8.0.3) date 2024-07-02 22:23:14*
%MOMM*%
%LPD*%
G01*
G04 APERTURE LIST*
%ADD10C,1.701800*%
%ADD11C,3.987800*%
%ADD12C,2.286000*%
%ADD13R,1.752600X1.752600*%
%ADD14C,1.752600*%
%ADD15C,0.800000*%
%ADD16O,2.000000X1.600000*%
%ADD17C,1.397000*%
G04 APERTURE END LIST*
D10*
%TO.C,S3*%
X77670000Y-92900500D03*
D11*
X82750000Y-92900500D03*
D10*
X87830000Y-92900500D03*
D12*
X80210000Y-87820500D03*
X85290000Y-87820500D03*
X78940000Y-90360500D03*
X86560000Y-90360500D03*
%TD*%
D13*
%TO.C,U2*%
X172720000Y-81280000D03*
D14*
X172720000Y-83820000D03*
X172720000Y-86360000D03*
X172720000Y-88900000D03*
X172720000Y-91440000D03*
X172720000Y-93980000D03*
X172720000Y-96520000D03*
X172720000Y-99060000D03*
X172720000Y-101600000D03*
X172720000Y-104140000D03*
X172720000Y-106680000D03*
X172948600Y-109220000D03*
X187960000Y-109220000D03*
X187960000Y-106680000D03*
X187960000Y-104140000D03*
X187960000Y-101600000D03*
X187960000Y-99060000D03*
X187960000Y-96520000D03*
X187960000Y-93980000D03*
X187960000Y-91440000D03*
X187960000Y-88900000D03*
X187960000Y-86360000D03*
X187960000Y-83820000D03*
X187960000Y-81280000D03*
X175260000Y-109220000D03*
X177800000Y-109220000D03*
X180340000Y-109220000D03*
X182880000Y-109220000D03*
X185420000Y-109220000D03*
%TD*%
D10*
%TO.C,S4*%
X96670000Y-118427500D03*
D11*
X101750000Y-118427500D03*
D10*
X106830000Y-118427500D03*
D12*
X99210000Y-113347500D03*
X104290000Y-113347500D03*
X97940000Y-115887500D03*
X105560000Y-115887500D03*
%TD*%
D10*
%TO.C,S13*%
X153670000Y-121285000D03*
D11*
X158750000Y-121285000D03*
D10*
X163830000Y-121285000D03*
D12*
X156210000Y-116205000D03*
X161290000Y-116205000D03*
X154940000Y-118745000D03*
X162560000Y-118745000D03*
%TD*%
D10*
%TO.C,S8*%
X115670000Y-94615000D03*
D11*
X120750000Y-94615000D03*
D10*
X125830000Y-94615000D03*
D12*
X118210000Y-89535000D03*
X123290000Y-89535000D03*
X116940000Y-92075000D03*
X124560000Y-92075000D03*
%TD*%
D10*
%TO.C,S9*%
X115670000Y-75565000D03*
D11*
X120750000Y-75565000D03*
D10*
X125830000Y-75565000D03*
D12*
X118210000Y-70485000D03*
X123290000Y-70485000D03*
X116940000Y-73025000D03*
X124560000Y-73025000D03*
%TD*%
D15*
%TO.C,J2*%
X186392500Y-129540000D03*
X179392500Y-129540000D03*
D16*
X176692500Y-127240000D03*
X177792500Y-131840000D03*
X181792500Y-131840000D03*
X184792500Y-131840000D03*
%TD*%
D10*
%TO.C,S18*%
X168525554Y-152721234D03*
D11*
X172786000Y-155488000D03*
D10*
X177046446Y-158254766D03*
D12*
X173422543Y-149844170D03*
X177682990Y-152610937D03*
X170974048Y-151282702D03*
X177364718Y-155432851D03*
%TD*%
D10*
%TO.C,S12*%
X134670000Y-80327500D03*
D11*
X139750000Y-80327500D03*
D10*
X144830000Y-80327500D03*
D12*
X137210000Y-75247500D03*
X142290000Y-75247500D03*
X135940000Y-77787500D03*
X143560000Y-77787500D03*
%TD*%
D10*
%TO.C,S2*%
X77670000Y-111950500D03*
D11*
X82750000Y-111950500D03*
D10*
X87830000Y-111950500D03*
D12*
X80210000Y-106870500D03*
X85290000Y-106870500D03*
X78940000Y-109410500D03*
X86560000Y-109410500D03*
%TD*%
D10*
%TO.C,S7*%
X115670000Y-113665000D03*
D11*
X120750000Y-113665000D03*
D10*
X125830000Y-113665000D03*
D12*
X118210000Y-108585000D03*
X123290000Y-108585000D03*
X116940000Y-111125000D03*
X124560000Y-111125000D03*
%TD*%
D10*
%TO.C,S15*%
X153670000Y-83185000D03*
D11*
X158750000Y-83185000D03*
D10*
X163830000Y-83185000D03*
D12*
X156210000Y-78105000D03*
X161290000Y-78105000D03*
X154940000Y-80645000D03*
X162560000Y-80645000D03*
%TD*%
D10*
%TO.C,S16*%
X128763177Y-140485467D03*
D11*
X133766000Y-141367600D03*
D10*
X138768823Y-142249733D03*
D12*
X132146721Y-135923710D03*
X137149544Y-136805843D03*
X130454949Y-138204589D03*
X137959184Y-139527788D03*
%TD*%
D10*
%TO.C,S14*%
X153670000Y-102235000D03*
D11*
X158750000Y-102235000D03*
D10*
X163830000Y-102235000D03*
D12*
X156210000Y-97155000D03*
X161290000Y-97155000D03*
X154940000Y-99695000D03*
X162560000Y-99695000D03*
%TD*%
D10*
%TO.C,S5*%
X96670000Y-99377500D03*
D11*
X101750000Y-99377500D03*
D10*
X106830000Y-99377500D03*
D12*
X99210000Y-94297500D03*
X104290000Y-94297500D03*
X97940000Y-96837500D03*
X105560000Y-96837500D03*
%TD*%
D10*
%TO.C,S6*%
X96670000Y-80327500D03*
D11*
X101750000Y-80327500D03*
D10*
X106830000Y-80327500D03*
D12*
X99210000Y-75247500D03*
X104290000Y-75247500D03*
X97940000Y-77787500D03*
X105560000Y-77787500D03*
%TD*%
D10*
%TO.C,S1*%
X77670000Y-131000500D03*
D11*
X82750000Y-131000500D03*
D10*
X87830000Y-131000500D03*
D12*
X80210000Y-125920500D03*
X85290000Y-125920500D03*
X78940000Y-128460500D03*
X86560000Y-128460500D03*
%TD*%
D10*
%TO.C,S17*%
X148663133Y-144716694D03*
D11*
X153494500Y-146286500D03*
D10*
X158325867Y-147856306D03*
D12*
X152648623Y-140670230D03*
X157479990Y-142240036D03*
X150655878Y-142693462D03*
X157902928Y-145048171D03*
%TD*%
D10*
%TO.C,S11*%
X134670000Y-99377500D03*
D11*
X139750000Y-99377500D03*
D10*
X144830000Y-99377500D03*
D12*
X137210000Y-94297500D03*
X142290000Y-94297500D03*
X135940000Y-96837500D03*
X143560000Y-96837500D03*
%TD*%
D10*
%TO.C,S10*%
X134670000Y-118427500D03*
D11*
X139750000Y-118427500D03*
D10*
X144830000Y-118427500D03*
D12*
X137210000Y-113347500D03*
X142290000Y-113347500D03*
X135940000Y-115887500D03*
X143560000Y-115887500D03*
%TD*%
D17*
%TO.C,OL2*%
X184150000Y-116840000D03*
X181610000Y-116840000D03*
X179070000Y-116840000D03*
X176530000Y-116840000D03*
%TD*%
D15*
%TO.C,J1*%
X179392500Y-129540000D03*
X186392500Y-129540000D03*
D16*
X176692500Y-131840000D03*
X177792500Y-127240000D03*
X181792500Y-127240000D03*
X184792500Y-127240000D03*
%TD*%
M02*
