%TF.GenerationSoftware,KiCad,Pcbnew,8.0.3*%
%TF.CreationDate,2024-07-02T22:23:56+01:00*%
%TF.ProjectId,simple_split,73696d70-6c65-45f7-9370-6c69742e6b69,v1.0.0*%
%TF.SameCoordinates,Original*%
%TF.FileFunction,Drillmap*%
%TF.FilePolarity,Positive*%
%FSLAX45Y45*%
G04 Gerber Fmt 4.5, Leading zero omitted, Abs format (unit mm)*
G04 Created by KiCad (PCBNEW 8.0.3) date 2024-07-02 22:23:56*
%MOMM*%
%LPD*%
G01*
G04 APERTURE LIST*
%ADD10C,0.050000*%
%ADD11C,0.200000*%
%ADD12C,0.100000*%
%ADD13C,0.170180*%
%ADD14C,0.398780*%
G04 APERTURE END LIST*
D10*
X14986000Y-6858000D02*
X17018000Y-7112000D01*
X19050000Y-7620000D01*
X19050000Y-14986000D01*
X17526000Y-17018000D01*
X16256000Y-16256000D01*
X14732000Y-15748000D01*
X12700000Y-15240000D01*
X7112000Y-14224000D01*
X7112000Y-8128000D01*
X9144000Y-6858000D01*
X11176000Y-6350000D01*
X12954000Y-6350000D01*
X14986000Y-6858000D01*
D11*
D12*
X17899250Y-12914000D02*
X17979250Y-12994000D01*
X17979250Y-12914000D02*
X17899250Y-12994000D01*
X17899250Y-12914000D02*
X17979250Y-12994000D01*
X17979250Y-12914000D02*
X17899250Y-12994000D01*
X18599250Y-12914000D02*
X18679250Y-12994000D01*
X18679250Y-12914000D02*
X18599250Y-12994000D01*
X18599250Y-12914000D02*
X18679250Y-12994000D01*
X18679250Y-12914000D02*
X18599250Y-12994000D01*
D13*
X7852090Y-9290050D02*
G75*
G02*
X7681910Y-9290050I-85090J0D01*
G01*
X7681910Y-9290050D02*
G75*
G02*
X7852090Y-9290050I85090J0D01*
G01*
X7852090Y-11195050D02*
G75*
G02*
X7681910Y-11195050I-85090J0D01*
G01*
X7681910Y-11195050D02*
G75*
G02*
X7852090Y-11195050I85090J0D01*
G01*
X7852090Y-13100050D02*
G75*
G02*
X7681910Y-13100050I-85090J0D01*
G01*
X7681910Y-13100050D02*
G75*
G02*
X7852090Y-13100050I85090J0D01*
G01*
X8868090Y-9290050D02*
G75*
G02*
X8697910Y-9290050I-85090J0D01*
G01*
X8697910Y-9290050D02*
G75*
G02*
X8868090Y-9290050I85090J0D01*
G01*
X8868090Y-11195050D02*
G75*
G02*
X8697910Y-11195050I-85090J0D01*
G01*
X8697910Y-11195050D02*
G75*
G02*
X8868090Y-11195050I85090J0D01*
G01*
X8868090Y-13100050D02*
G75*
G02*
X8697910Y-13100050I-85090J0D01*
G01*
X8697910Y-13100050D02*
G75*
G02*
X8868090Y-13100050I85090J0D01*
G01*
X9752090Y-8032750D02*
G75*
G02*
X9581910Y-8032750I-85090J0D01*
G01*
X9581910Y-8032750D02*
G75*
G02*
X9752090Y-8032750I85090J0D01*
G01*
X9752090Y-9937750D02*
G75*
G02*
X9581910Y-9937750I-85090J0D01*
G01*
X9581910Y-9937750D02*
G75*
G02*
X9752090Y-9937750I85090J0D01*
G01*
X9752090Y-11842750D02*
G75*
G02*
X9581910Y-11842750I-85090J0D01*
G01*
X9581910Y-11842750D02*
G75*
G02*
X9752090Y-11842750I85090J0D01*
G01*
X10768090Y-8032750D02*
G75*
G02*
X10597910Y-8032750I-85090J0D01*
G01*
X10597910Y-8032750D02*
G75*
G02*
X10768090Y-8032750I85090J0D01*
G01*
X10768090Y-9937750D02*
G75*
G02*
X10597910Y-9937750I-85090J0D01*
G01*
X10597910Y-9937750D02*
G75*
G02*
X10768090Y-9937750I85090J0D01*
G01*
X10768090Y-11842750D02*
G75*
G02*
X10597910Y-11842750I-85090J0D01*
G01*
X10597910Y-11842750D02*
G75*
G02*
X10768090Y-11842750I85090J0D01*
G01*
X11652090Y-7556500D02*
G75*
G02*
X11481910Y-7556500I-85090J0D01*
G01*
X11481910Y-7556500D02*
G75*
G02*
X11652090Y-7556500I85090J0D01*
G01*
X11652090Y-9461500D02*
G75*
G02*
X11481910Y-9461500I-85090J0D01*
G01*
X11481910Y-9461500D02*
G75*
G02*
X11652090Y-9461500I85090J0D01*
G01*
X11652090Y-11366500D02*
G75*
G02*
X11481910Y-11366500I-85090J0D01*
G01*
X11481910Y-11366500D02*
G75*
G02*
X11652090Y-11366500I85090J0D01*
G01*
X12668090Y-7556500D02*
G75*
G02*
X12497910Y-7556500I-85090J0D01*
G01*
X12497910Y-7556500D02*
G75*
G02*
X12668090Y-7556500I85090J0D01*
G01*
X12668090Y-9461500D02*
G75*
G02*
X12497910Y-9461500I-85090J0D01*
G01*
X12497910Y-9461500D02*
G75*
G02*
X12668090Y-9461500I85090J0D01*
G01*
X12668090Y-11366500D02*
G75*
G02*
X12497910Y-11366500I-85090J0D01*
G01*
X12497910Y-11366500D02*
G75*
G02*
X12668090Y-11366500I85090J0D01*
G01*
X12961408Y-14048547D02*
G75*
G02*
X12791228Y-14048547I-85090J0D01*
G01*
X12791228Y-14048547D02*
G75*
G02*
X12961408Y-14048547I85090J0D01*
G01*
X13552090Y-8032750D02*
G75*
G02*
X13381910Y-8032750I-85090J0D01*
G01*
X13381910Y-8032750D02*
G75*
G02*
X13552090Y-8032750I85090J0D01*
G01*
X13552090Y-9937750D02*
G75*
G02*
X13381910Y-9937750I-85090J0D01*
G01*
X13381910Y-9937750D02*
G75*
G02*
X13552090Y-9937750I85090J0D01*
G01*
X13552090Y-11842750D02*
G75*
G02*
X13381910Y-11842750I-85090J0D01*
G01*
X13381910Y-11842750D02*
G75*
G02*
X13552090Y-11842750I85090J0D01*
G01*
X13961972Y-14224973D02*
G75*
G02*
X13791792Y-14224973I-85090J0D01*
G01*
X13791792Y-14224973D02*
G75*
G02*
X13961972Y-14224973I85090J0D01*
G01*
X14568090Y-8032750D02*
G75*
G02*
X14397910Y-8032750I-85090J0D01*
G01*
X14397910Y-8032750D02*
G75*
G02*
X14568090Y-8032750I85090J0D01*
G01*
X14568090Y-9937750D02*
G75*
G02*
X14397910Y-9937750I-85090J0D01*
G01*
X14397910Y-9937750D02*
G75*
G02*
X14568090Y-9937750I85090J0D01*
G01*
X14568090Y-11842750D02*
G75*
G02*
X14397910Y-11842750I-85090J0D01*
G01*
X14397910Y-11842750D02*
G75*
G02*
X14568090Y-11842750I85090J0D01*
G01*
X14951403Y-14471669D02*
G75*
G02*
X14781223Y-14471669I-85090J0D01*
G01*
X14781223Y-14471669D02*
G75*
G02*
X14951403Y-14471669I85090J0D01*
G01*
X15452090Y-8318500D02*
G75*
G02*
X15281910Y-8318500I-85090J0D01*
G01*
X15281910Y-8318500D02*
G75*
G02*
X15452090Y-8318500I85090J0D01*
G01*
X15452090Y-10223500D02*
G75*
G02*
X15281910Y-10223500I-85090J0D01*
G01*
X15281910Y-10223500D02*
G75*
G02*
X15452090Y-10223500I85090J0D01*
G01*
X15452090Y-12128500D02*
G75*
G02*
X15281910Y-12128500I-85090J0D01*
G01*
X15281910Y-12128500D02*
G75*
G02*
X15452090Y-12128500I85090J0D01*
G01*
X15917677Y-14785631D02*
G75*
G02*
X15747497Y-14785631I-85090J0D01*
G01*
X15747497Y-14785631D02*
G75*
G02*
X15917677Y-14785631I85090J0D01*
G01*
X16468090Y-8318500D02*
G75*
G02*
X16297910Y-8318500I-85090J0D01*
G01*
X16297910Y-8318500D02*
G75*
G02*
X16468090Y-8318500I85090J0D01*
G01*
X16468090Y-10223500D02*
G75*
G02*
X16297910Y-10223500I-85090J0D01*
G01*
X16297910Y-10223500D02*
G75*
G02*
X16468090Y-10223500I85090J0D01*
G01*
X16468090Y-12128500D02*
G75*
G02*
X16297910Y-12128500I-85090J0D01*
G01*
X16297910Y-12128500D02*
G75*
G02*
X16468090Y-12128500I85090J0D01*
G01*
X16937645Y-15272123D02*
G75*
G02*
X16767465Y-15272123I-85090J0D01*
G01*
X16767465Y-15272123D02*
G75*
G02*
X16937645Y-15272123I85090J0D01*
G01*
X17789735Y-15825477D02*
G75*
G02*
X17619555Y-15825477I-85090J0D01*
G01*
X17619555Y-15825477D02*
G75*
G02*
X17789735Y-15825477I85090J0D01*
G01*
D14*
X8275000Y-9090660D02*
X8275000Y-9489440D01*
X8075610Y-9290050D02*
X8474390Y-9290050D01*
X8275000Y-10995660D02*
X8275000Y-11394440D01*
X8075610Y-11195050D02*
X8474390Y-11195050D01*
X8275000Y-12900660D02*
X8275000Y-13299440D01*
X8075610Y-13100050D02*
X8474390Y-13100050D01*
X10175000Y-7833360D02*
X10175000Y-8232140D01*
X9975610Y-8032750D02*
X10374390Y-8032750D01*
X10175000Y-9738360D02*
X10175000Y-10137140D01*
X9975610Y-9937750D02*
X10374390Y-9937750D01*
X10175000Y-11643360D02*
X10175000Y-12042140D01*
X9975610Y-11842750D02*
X10374390Y-11842750D01*
X12075000Y-7357110D02*
X12075000Y-7755890D01*
X11875610Y-7556500D02*
X12274390Y-7556500D01*
X12075000Y-9262110D02*
X12075000Y-9660890D01*
X11875610Y-9461500D02*
X12274390Y-9461500D01*
X12075000Y-11167110D02*
X12075000Y-11565890D01*
X11875610Y-11366500D02*
X12274390Y-11366500D01*
X13376600Y-13937370D02*
X13376600Y-14336150D01*
X13177210Y-14136760D02*
X13575990Y-14136760D01*
X13975000Y-7833360D02*
X13975000Y-8232140D01*
X13775610Y-8032750D02*
X14174390Y-8032750D01*
X13975000Y-9738360D02*
X13975000Y-10137140D01*
X13775610Y-9937750D02*
X14174390Y-9937750D01*
X13975000Y-11643360D02*
X13975000Y-12042140D01*
X13775610Y-11842750D02*
X14174390Y-11842750D01*
X15349450Y-14429260D02*
X15349450Y-14828040D01*
X15150060Y-14628650D02*
X15548840Y-14628650D01*
X15875000Y-8119110D02*
X15875000Y-8517890D01*
X15675610Y-8318500D02*
X16074390Y-8318500D01*
X15875000Y-10024110D02*
X15875000Y-10422890D01*
X15675610Y-10223500D02*
X16074390Y-10223500D01*
X15875000Y-11929110D02*
X15875000Y-12327890D01*
X15675610Y-12128500D02*
X16074390Y-12128500D01*
X17278600Y-15349410D02*
X17278600Y-15748190D01*
X17079210Y-15548800D02*
X17477990Y-15548800D01*
D11*
X7370277Y-17331984D02*
X7370277Y-17131984D01*
X7370277Y-17131984D02*
X7417896Y-17131984D01*
X7417896Y-17131984D02*
X7446467Y-17141508D01*
X7446467Y-17141508D02*
X7465515Y-17160555D01*
X7465515Y-17160555D02*
X7475039Y-17179603D01*
X7475039Y-17179603D02*
X7484562Y-17217698D01*
X7484562Y-17217698D02*
X7484562Y-17246270D01*
X7484562Y-17246270D02*
X7475039Y-17284365D01*
X7475039Y-17284365D02*
X7465515Y-17303412D01*
X7465515Y-17303412D02*
X7446467Y-17322460D01*
X7446467Y-17322460D02*
X7417896Y-17331984D01*
X7417896Y-17331984D02*
X7370277Y-17331984D01*
X7570277Y-17331984D02*
X7570277Y-17198650D01*
X7570277Y-17236746D02*
X7579801Y-17217698D01*
X7579801Y-17217698D02*
X7589324Y-17208174D01*
X7589324Y-17208174D02*
X7608372Y-17198650D01*
X7608372Y-17198650D02*
X7627420Y-17198650D01*
X7694086Y-17331984D02*
X7694086Y-17198650D01*
X7694086Y-17131984D02*
X7684562Y-17141508D01*
X7684562Y-17141508D02*
X7694086Y-17151031D01*
X7694086Y-17151031D02*
X7703610Y-17141508D01*
X7703610Y-17141508D02*
X7694086Y-17131984D01*
X7694086Y-17131984D02*
X7694086Y-17151031D01*
X7817896Y-17331984D02*
X7798848Y-17322460D01*
X7798848Y-17322460D02*
X7789324Y-17303412D01*
X7789324Y-17303412D02*
X7789324Y-17131984D01*
X7922658Y-17331984D02*
X7903610Y-17322460D01*
X7903610Y-17322460D02*
X7894086Y-17303412D01*
X7894086Y-17303412D02*
X7894086Y-17131984D01*
X8151229Y-17331984D02*
X8151229Y-17131984D01*
X8151229Y-17131984D02*
X8217896Y-17274841D01*
X8217896Y-17274841D02*
X8284562Y-17131984D01*
X8284562Y-17131984D02*
X8284562Y-17331984D01*
X8465515Y-17331984D02*
X8465515Y-17227222D01*
X8465515Y-17227222D02*
X8455991Y-17208174D01*
X8455991Y-17208174D02*
X8436944Y-17198650D01*
X8436944Y-17198650D02*
X8398848Y-17198650D01*
X8398848Y-17198650D02*
X8379801Y-17208174D01*
X8465515Y-17322460D02*
X8446467Y-17331984D01*
X8446467Y-17331984D02*
X8398848Y-17331984D01*
X8398848Y-17331984D02*
X8379801Y-17322460D01*
X8379801Y-17322460D02*
X8370277Y-17303412D01*
X8370277Y-17303412D02*
X8370277Y-17284365D01*
X8370277Y-17284365D02*
X8379801Y-17265317D01*
X8379801Y-17265317D02*
X8398848Y-17255793D01*
X8398848Y-17255793D02*
X8446467Y-17255793D01*
X8446467Y-17255793D02*
X8465515Y-17246270D01*
X8560753Y-17198650D02*
X8560753Y-17398650D01*
X8560753Y-17208174D02*
X8579801Y-17198650D01*
X8579801Y-17198650D02*
X8617896Y-17198650D01*
X8617896Y-17198650D02*
X8636944Y-17208174D01*
X8636944Y-17208174D02*
X8646467Y-17217698D01*
X8646467Y-17217698D02*
X8655991Y-17236746D01*
X8655991Y-17236746D02*
X8655991Y-17293889D01*
X8655991Y-17293889D02*
X8646467Y-17312936D01*
X8646467Y-17312936D02*
X8636944Y-17322460D01*
X8636944Y-17322460D02*
X8617896Y-17331984D01*
X8617896Y-17331984D02*
X8579801Y-17331984D01*
X8579801Y-17331984D02*
X8560753Y-17322460D01*
X8741705Y-17312936D02*
X8751229Y-17322460D01*
X8751229Y-17322460D02*
X8741705Y-17331984D01*
X8741705Y-17331984D02*
X8732182Y-17322460D01*
X8732182Y-17322460D02*
X8741705Y-17312936D01*
X8741705Y-17312936D02*
X8741705Y-17331984D01*
X8741705Y-17208174D02*
X8751229Y-17217698D01*
X8751229Y-17217698D02*
X8741705Y-17227222D01*
X8741705Y-17227222D02*
X8732182Y-17217698D01*
X8732182Y-17217698D02*
X8741705Y-17208174D01*
X8741705Y-17208174D02*
X8741705Y-17227222D01*
D12*
X7029500Y-17620500D02*
X7109500Y-17700500D01*
X7109500Y-17620500D02*
X7029500Y-17700500D01*
D11*
X7408372Y-17551984D02*
X7427420Y-17551984D01*
X7427420Y-17551984D02*
X7446467Y-17561508D01*
X7446467Y-17561508D02*
X7455991Y-17571031D01*
X7455991Y-17571031D02*
X7465515Y-17590079D01*
X7465515Y-17590079D02*
X7475039Y-17628174D01*
X7475039Y-17628174D02*
X7475039Y-17675793D01*
X7475039Y-17675793D02*
X7465515Y-17713889D01*
X7465515Y-17713889D02*
X7455991Y-17732936D01*
X7455991Y-17732936D02*
X7446467Y-17742460D01*
X7446467Y-17742460D02*
X7427420Y-17751984D01*
X7427420Y-17751984D02*
X7408372Y-17751984D01*
X7408372Y-17751984D02*
X7389324Y-17742460D01*
X7389324Y-17742460D02*
X7379801Y-17732936D01*
X7379801Y-17732936D02*
X7370277Y-17713889D01*
X7370277Y-17713889D02*
X7360753Y-17675793D01*
X7360753Y-17675793D02*
X7360753Y-17628174D01*
X7360753Y-17628174D02*
X7370277Y-17590079D01*
X7370277Y-17590079D02*
X7379801Y-17571031D01*
X7379801Y-17571031D02*
X7389324Y-17561508D01*
X7389324Y-17561508D02*
X7408372Y-17551984D01*
X7560753Y-17732936D02*
X7570277Y-17742460D01*
X7570277Y-17742460D02*
X7560753Y-17751984D01*
X7560753Y-17751984D02*
X7551229Y-17742460D01*
X7551229Y-17742460D02*
X7560753Y-17732936D01*
X7560753Y-17732936D02*
X7560753Y-17751984D01*
X7684562Y-17637698D02*
X7665515Y-17628174D01*
X7665515Y-17628174D02*
X7655991Y-17618650D01*
X7655991Y-17618650D02*
X7646467Y-17599603D01*
X7646467Y-17599603D02*
X7646467Y-17590079D01*
X7646467Y-17590079D02*
X7655991Y-17571031D01*
X7655991Y-17571031D02*
X7665515Y-17561508D01*
X7665515Y-17561508D02*
X7684562Y-17551984D01*
X7684562Y-17551984D02*
X7722658Y-17551984D01*
X7722658Y-17551984D02*
X7741705Y-17561508D01*
X7741705Y-17561508D02*
X7751229Y-17571031D01*
X7751229Y-17571031D02*
X7760753Y-17590079D01*
X7760753Y-17590079D02*
X7760753Y-17599603D01*
X7760753Y-17599603D02*
X7751229Y-17618650D01*
X7751229Y-17618650D02*
X7741705Y-17628174D01*
X7741705Y-17628174D02*
X7722658Y-17637698D01*
X7722658Y-17637698D02*
X7684562Y-17637698D01*
X7684562Y-17637698D02*
X7665515Y-17647222D01*
X7665515Y-17647222D02*
X7655991Y-17656746D01*
X7655991Y-17656746D02*
X7646467Y-17675793D01*
X7646467Y-17675793D02*
X7646467Y-17713889D01*
X7646467Y-17713889D02*
X7655991Y-17732936D01*
X7655991Y-17732936D02*
X7665515Y-17742460D01*
X7665515Y-17742460D02*
X7684562Y-17751984D01*
X7684562Y-17751984D02*
X7722658Y-17751984D01*
X7722658Y-17751984D02*
X7741705Y-17742460D01*
X7741705Y-17742460D02*
X7751229Y-17732936D01*
X7751229Y-17732936D02*
X7760753Y-17713889D01*
X7760753Y-17713889D02*
X7760753Y-17675793D01*
X7760753Y-17675793D02*
X7751229Y-17656746D01*
X7751229Y-17656746D02*
X7741705Y-17647222D01*
X7741705Y-17647222D02*
X7722658Y-17637698D01*
X7884562Y-17551984D02*
X7903610Y-17551984D01*
X7903610Y-17551984D02*
X7922658Y-17561508D01*
X7922658Y-17561508D02*
X7932182Y-17571031D01*
X7932182Y-17571031D02*
X7941705Y-17590079D01*
X7941705Y-17590079D02*
X7951229Y-17628174D01*
X7951229Y-17628174D02*
X7951229Y-17675793D01*
X7951229Y-17675793D02*
X7941705Y-17713889D01*
X7941705Y-17713889D02*
X7932182Y-17732936D01*
X7932182Y-17732936D02*
X7922658Y-17742460D01*
X7922658Y-17742460D02*
X7903610Y-17751984D01*
X7903610Y-17751984D02*
X7884562Y-17751984D01*
X7884562Y-17751984D02*
X7865515Y-17742460D01*
X7865515Y-17742460D02*
X7855991Y-17732936D01*
X7855991Y-17732936D02*
X7846467Y-17713889D01*
X7846467Y-17713889D02*
X7836943Y-17675793D01*
X7836943Y-17675793D02*
X7836943Y-17628174D01*
X7836943Y-17628174D02*
X7846467Y-17590079D01*
X7846467Y-17590079D02*
X7855991Y-17571031D01*
X7855991Y-17571031D02*
X7865515Y-17561508D01*
X7865515Y-17561508D02*
X7884562Y-17551984D01*
X8075039Y-17551984D02*
X8094086Y-17551984D01*
X8094086Y-17551984D02*
X8113134Y-17561508D01*
X8113134Y-17561508D02*
X8122658Y-17571031D01*
X8122658Y-17571031D02*
X8132182Y-17590079D01*
X8132182Y-17590079D02*
X8141705Y-17628174D01*
X8141705Y-17628174D02*
X8141705Y-17675793D01*
X8141705Y-17675793D02*
X8132182Y-17713889D01*
X8132182Y-17713889D02*
X8122658Y-17732936D01*
X8122658Y-17732936D02*
X8113134Y-17742460D01*
X8113134Y-17742460D02*
X8094086Y-17751984D01*
X8094086Y-17751984D02*
X8075039Y-17751984D01*
X8075039Y-17751984D02*
X8055991Y-17742460D01*
X8055991Y-17742460D02*
X8046467Y-17732936D01*
X8046467Y-17732936D02*
X8036943Y-17713889D01*
X8036943Y-17713889D02*
X8027420Y-17675793D01*
X8027420Y-17675793D02*
X8027420Y-17628174D01*
X8027420Y-17628174D02*
X8036943Y-17590079D01*
X8036943Y-17590079D02*
X8046467Y-17571031D01*
X8046467Y-17571031D02*
X8055991Y-17561508D01*
X8055991Y-17561508D02*
X8075039Y-17551984D01*
X8227420Y-17751984D02*
X8227420Y-17618650D01*
X8227420Y-17637698D02*
X8236943Y-17628174D01*
X8236943Y-17628174D02*
X8255991Y-17618650D01*
X8255991Y-17618650D02*
X8284563Y-17618650D01*
X8284563Y-17618650D02*
X8303610Y-17628174D01*
X8303610Y-17628174D02*
X8313134Y-17647222D01*
X8313134Y-17647222D02*
X8313134Y-17751984D01*
X8313134Y-17647222D02*
X8322658Y-17628174D01*
X8322658Y-17628174D02*
X8341705Y-17618650D01*
X8341705Y-17618650D02*
X8370277Y-17618650D01*
X8370277Y-17618650D02*
X8389325Y-17628174D01*
X8389325Y-17628174D02*
X8398848Y-17647222D01*
X8398848Y-17647222D02*
X8398848Y-17751984D01*
X8494086Y-17751984D02*
X8494086Y-17618650D01*
X8494086Y-17637698D02*
X8503610Y-17628174D01*
X8503610Y-17628174D02*
X8522658Y-17618650D01*
X8522658Y-17618650D02*
X8551229Y-17618650D01*
X8551229Y-17618650D02*
X8570277Y-17628174D01*
X8570277Y-17628174D02*
X8579801Y-17647222D01*
X8579801Y-17647222D02*
X8579801Y-17751984D01*
X8579801Y-17647222D02*
X8589325Y-17628174D01*
X8589325Y-17628174D02*
X8608372Y-17618650D01*
X8608372Y-17618650D02*
X8636944Y-17618650D01*
X8636944Y-17618650D02*
X8655991Y-17628174D01*
X8655991Y-17628174D02*
X8665515Y-17647222D01*
X8665515Y-17647222D02*
X8665515Y-17751984D01*
X9055991Y-17542460D02*
X8884563Y-17799603D01*
X9313134Y-17551984D02*
X9332182Y-17551984D01*
X9332182Y-17551984D02*
X9351229Y-17561508D01*
X9351229Y-17561508D02*
X9360753Y-17571031D01*
X9360753Y-17571031D02*
X9370277Y-17590079D01*
X9370277Y-17590079D02*
X9379801Y-17628174D01*
X9379801Y-17628174D02*
X9379801Y-17675793D01*
X9379801Y-17675793D02*
X9370277Y-17713889D01*
X9370277Y-17713889D02*
X9360753Y-17732936D01*
X9360753Y-17732936D02*
X9351229Y-17742460D01*
X9351229Y-17742460D02*
X9332182Y-17751984D01*
X9332182Y-17751984D02*
X9313134Y-17751984D01*
X9313134Y-17751984D02*
X9294087Y-17742460D01*
X9294087Y-17742460D02*
X9284563Y-17732936D01*
X9284563Y-17732936D02*
X9275039Y-17713889D01*
X9275039Y-17713889D02*
X9265515Y-17675793D01*
X9265515Y-17675793D02*
X9265515Y-17628174D01*
X9265515Y-17628174D02*
X9275039Y-17590079D01*
X9275039Y-17590079D02*
X9284563Y-17571031D01*
X9284563Y-17571031D02*
X9294087Y-17561508D01*
X9294087Y-17561508D02*
X9313134Y-17551984D01*
X9465515Y-17732936D02*
X9475039Y-17742460D01*
X9475039Y-17742460D02*
X9465515Y-17751984D01*
X9465515Y-17751984D02*
X9455991Y-17742460D01*
X9455991Y-17742460D02*
X9465515Y-17732936D01*
X9465515Y-17732936D02*
X9465515Y-17751984D01*
X9598848Y-17551984D02*
X9617896Y-17551984D01*
X9617896Y-17551984D02*
X9636944Y-17561508D01*
X9636944Y-17561508D02*
X9646468Y-17571031D01*
X9646468Y-17571031D02*
X9655991Y-17590079D01*
X9655991Y-17590079D02*
X9665515Y-17628174D01*
X9665515Y-17628174D02*
X9665515Y-17675793D01*
X9665515Y-17675793D02*
X9655991Y-17713889D01*
X9655991Y-17713889D02*
X9646468Y-17732936D01*
X9646468Y-17732936D02*
X9636944Y-17742460D01*
X9636944Y-17742460D02*
X9617896Y-17751984D01*
X9617896Y-17751984D02*
X9598848Y-17751984D01*
X9598848Y-17751984D02*
X9579801Y-17742460D01*
X9579801Y-17742460D02*
X9570277Y-17732936D01*
X9570277Y-17732936D02*
X9560753Y-17713889D01*
X9560753Y-17713889D02*
X9551229Y-17675793D01*
X9551229Y-17675793D02*
X9551229Y-17628174D01*
X9551229Y-17628174D02*
X9560753Y-17590079D01*
X9560753Y-17590079D02*
X9570277Y-17571031D01*
X9570277Y-17571031D02*
X9579801Y-17561508D01*
X9579801Y-17561508D02*
X9598848Y-17551984D01*
X9732182Y-17551984D02*
X9855991Y-17551984D01*
X9855991Y-17551984D02*
X9789325Y-17628174D01*
X9789325Y-17628174D02*
X9817896Y-17628174D01*
X9817896Y-17628174D02*
X9836944Y-17637698D01*
X9836944Y-17637698D02*
X9846468Y-17647222D01*
X9846468Y-17647222D02*
X9855991Y-17666270D01*
X9855991Y-17666270D02*
X9855991Y-17713889D01*
X9855991Y-17713889D02*
X9846468Y-17732936D01*
X9846468Y-17732936D02*
X9836944Y-17742460D01*
X9836944Y-17742460D02*
X9817896Y-17751984D01*
X9817896Y-17751984D02*
X9760753Y-17751984D01*
X9760753Y-17751984D02*
X9741706Y-17742460D01*
X9741706Y-17742460D02*
X9732182Y-17732936D01*
X10046468Y-17751984D02*
X9932182Y-17751984D01*
X9989325Y-17751984D02*
X9989325Y-17551984D01*
X9989325Y-17551984D02*
X9970277Y-17580555D01*
X9970277Y-17580555D02*
X9951229Y-17599603D01*
X9951229Y-17599603D02*
X9932182Y-17609127D01*
X10227420Y-17551984D02*
X10132182Y-17551984D01*
X10132182Y-17551984D02*
X10122658Y-17647222D01*
X10122658Y-17647222D02*
X10132182Y-17637698D01*
X10132182Y-17637698D02*
X10151229Y-17628174D01*
X10151229Y-17628174D02*
X10198849Y-17628174D01*
X10198849Y-17628174D02*
X10217896Y-17637698D01*
X10217896Y-17637698D02*
X10227420Y-17647222D01*
X10227420Y-17647222D02*
X10236944Y-17666270D01*
X10236944Y-17666270D02*
X10236944Y-17713889D01*
X10236944Y-17713889D02*
X10227420Y-17732936D01*
X10227420Y-17732936D02*
X10217896Y-17742460D01*
X10217896Y-17742460D02*
X10198849Y-17751984D01*
X10198849Y-17751984D02*
X10151229Y-17751984D01*
X10151229Y-17751984D02*
X10132182Y-17742460D01*
X10132182Y-17742460D02*
X10122658Y-17732936D01*
X10313134Y-17551984D02*
X10313134Y-17590079D01*
X10389325Y-17551984D02*
X10389325Y-17590079D01*
X10684563Y-17828174D02*
X10675039Y-17818650D01*
X10675039Y-17818650D02*
X10655991Y-17790079D01*
X10655991Y-17790079D02*
X10646468Y-17771031D01*
X10646468Y-17771031D02*
X10636944Y-17742460D01*
X10636944Y-17742460D02*
X10627420Y-17694841D01*
X10627420Y-17694841D02*
X10627420Y-17656746D01*
X10627420Y-17656746D02*
X10636944Y-17609127D01*
X10636944Y-17609127D02*
X10646468Y-17580555D01*
X10646468Y-17580555D02*
X10655991Y-17561508D01*
X10655991Y-17561508D02*
X10675039Y-17532936D01*
X10675039Y-17532936D02*
X10684563Y-17523412D01*
X10846468Y-17618650D02*
X10846468Y-17751984D01*
X10798849Y-17542460D02*
X10751230Y-17685317D01*
X10751230Y-17685317D02*
X10875039Y-17685317D01*
X11103611Y-17751984D02*
X11103611Y-17551984D01*
X11189325Y-17751984D02*
X11189325Y-17647222D01*
X11189325Y-17647222D02*
X11179801Y-17628174D01*
X11179801Y-17628174D02*
X11160753Y-17618650D01*
X11160753Y-17618650D02*
X11132182Y-17618650D01*
X11132182Y-17618650D02*
X11113134Y-17628174D01*
X11113134Y-17628174D02*
X11103611Y-17637698D01*
X11313134Y-17751984D02*
X11294087Y-17742460D01*
X11294087Y-17742460D02*
X11284563Y-17732936D01*
X11284563Y-17732936D02*
X11275039Y-17713889D01*
X11275039Y-17713889D02*
X11275039Y-17656746D01*
X11275039Y-17656746D02*
X11284563Y-17637698D01*
X11284563Y-17637698D02*
X11294087Y-17628174D01*
X11294087Y-17628174D02*
X11313134Y-17618650D01*
X11313134Y-17618650D02*
X11341706Y-17618650D01*
X11341706Y-17618650D02*
X11360753Y-17628174D01*
X11360753Y-17628174D02*
X11370277Y-17637698D01*
X11370277Y-17637698D02*
X11379801Y-17656746D01*
X11379801Y-17656746D02*
X11379801Y-17713889D01*
X11379801Y-17713889D02*
X11370277Y-17732936D01*
X11370277Y-17732936D02*
X11360753Y-17742460D01*
X11360753Y-17742460D02*
X11341706Y-17751984D01*
X11341706Y-17751984D02*
X11313134Y-17751984D01*
X11494087Y-17751984D02*
X11475039Y-17742460D01*
X11475039Y-17742460D02*
X11465515Y-17723412D01*
X11465515Y-17723412D02*
X11465515Y-17551984D01*
X11646468Y-17742460D02*
X11627420Y-17751984D01*
X11627420Y-17751984D02*
X11589325Y-17751984D01*
X11589325Y-17751984D02*
X11570277Y-17742460D01*
X11570277Y-17742460D02*
X11560753Y-17723412D01*
X11560753Y-17723412D02*
X11560753Y-17647222D01*
X11560753Y-17647222D02*
X11570277Y-17628174D01*
X11570277Y-17628174D02*
X11589325Y-17618650D01*
X11589325Y-17618650D02*
X11627420Y-17618650D01*
X11627420Y-17618650D02*
X11646468Y-17628174D01*
X11646468Y-17628174D02*
X11655991Y-17647222D01*
X11655991Y-17647222D02*
X11655991Y-17666270D01*
X11655991Y-17666270D02*
X11560753Y-17685317D01*
X11732182Y-17742460D02*
X11751230Y-17751984D01*
X11751230Y-17751984D02*
X11789325Y-17751984D01*
X11789325Y-17751984D02*
X11808372Y-17742460D01*
X11808372Y-17742460D02*
X11817896Y-17723412D01*
X11817896Y-17723412D02*
X11817896Y-17713889D01*
X11817896Y-17713889D02*
X11808372Y-17694841D01*
X11808372Y-17694841D02*
X11789325Y-17685317D01*
X11789325Y-17685317D02*
X11760753Y-17685317D01*
X11760753Y-17685317D02*
X11741706Y-17675793D01*
X11741706Y-17675793D02*
X11732182Y-17656746D01*
X11732182Y-17656746D02*
X11732182Y-17647222D01*
X11732182Y-17647222D02*
X11741706Y-17628174D01*
X11741706Y-17628174D02*
X11760753Y-17618650D01*
X11760753Y-17618650D02*
X11789325Y-17618650D01*
X11789325Y-17618650D02*
X11808372Y-17628174D01*
X11884563Y-17828174D02*
X11894087Y-17818650D01*
X11894087Y-17818650D02*
X11913134Y-17790079D01*
X11913134Y-17790079D02*
X11922658Y-17771031D01*
X11922658Y-17771031D02*
X11932182Y-17742460D01*
X11932182Y-17742460D02*
X11941706Y-17694841D01*
X11941706Y-17694841D02*
X11941706Y-17656746D01*
X11941706Y-17656746D02*
X11932182Y-17609127D01*
X11932182Y-17609127D02*
X11922658Y-17580555D01*
X11922658Y-17580555D02*
X11913134Y-17561508D01*
X11913134Y-17561508D02*
X11894087Y-17532936D01*
X11894087Y-17532936D02*
X11884563Y-17523412D01*
X12246468Y-17828174D02*
X12236944Y-17818650D01*
X12236944Y-17818650D02*
X12217896Y-17790079D01*
X12217896Y-17790079D02*
X12208372Y-17771031D01*
X12208372Y-17771031D02*
X12198849Y-17742460D01*
X12198849Y-17742460D02*
X12189325Y-17694841D01*
X12189325Y-17694841D02*
X12189325Y-17656746D01*
X12189325Y-17656746D02*
X12198849Y-17609127D01*
X12198849Y-17609127D02*
X12208372Y-17580555D01*
X12208372Y-17580555D02*
X12217896Y-17561508D01*
X12217896Y-17561508D02*
X12236944Y-17532936D01*
X12236944Y-17532936D02*
X12246468Y-17523412D01*
X12322658Y-17618650D02*
X12322658Y-17751984D01*
X12322658Y-17637698D02*
X12332182Y-17628174D01*
X12332182Y-17628174D02*
X12351230Y-17618650D01*
X12351230Y-17618650D02*
X12379801Y-17618650D01*
X12379801Y-17618650D02*
X12398849Y-17628174D01*
X12398849Y-17628174D02*
X12408372Y-17647222D01*
X12408372Y-17647222D02*
X12408372Y-17751984D01*
X12532182Y-17751984D02*
X12513134Y-17742460D01*
X12513134Y-17742460D02*
X12503611Y-17732936D01*
X12503611Y-17732936D02*
X12494087Y-17713889D01*
X12494087Y-17713889D02*
X12494087Y-17656746D01*
X12494087Y-17656746D02*
X12503611Y-17637698D01*
X12503611Y-17637698D02*
X12513134Y-17628174D01*
X12513134Y-17628174D02*
X12532182Y-17618650D01*
X12532182Y-17618650D02*
X12560753Y-17618650D01*
X12560753Y-17618650D02*
X12579801Y-17628174D01*
X12579801Y-17628174D02*
X12589325Y-17637698D01*
X12589325Y-17637698D02*
X12598849Y-17656746D01*
X12598849Y-17656746D02*
X12598849Y-17713889D01*
X12598849Y-17713889D02*
X12589325Y-17732936D01*
X12589325Y-17732936D02*
X12579801Y-17742460D01*
X12579801Y-17742460D02*
X12560753Y-17751984D01*
X12560753Y-17751984D02*
X12532182Y-17751984D01*
X12655992Y-17618650D02*
X12732182Y-17618650D01*
X12684563Y-17551984D02*
X12684563Y-17723412D01*
X12684563Y-17723412D02*
X12694087Y-17742460D01*
X12694087Y-17742460D02*
X12713134Y-17751984D01*
X12713134Y-17751984D02*
X12732182Y-17751984D01*
X12951230Y-17618650D02*
X12951230Y-17818650D01*
X12951230Y-17628174D02*
X12970277Y-17618650D01*
X12970277Y-17618650D02*
X13008373Y-17618650D01*
X13008373Y-17618650D02*
X13027420Y-17628174D01*
X13027420Y-17628174D02*
X13036944Y-17637698D01*
X13036944Y-17637698D02*
X13046468Y-17656746D01*
X13046468Y-17656746D02*
X13046468Y-17713889D01*
X13046468Y-17713889D02*
X13036944Y-17732936D01*
X13036944Y-17732936D02*
X13027420Y-17742460D01*
X13027420Y-17742460D02*
X13008373Y-17751984D01*
X13008373Y-17751984D02*
X12970277Y-17751984D01*
X12970277Y-17751984D02*
X12951230Y-17742460D01*
X13160753Y-17751984D02*
X13141706Y-17742460D01*
X13141706Y-17742460D02*
X13132182Y-17723412D01*
X13132182Y-17723412D02*
X13132182Y-17551984D01*
X13322658Y-17751984D02*
X13322658Y-17647222D01*
X13322658Y-17647222D02*
X13313134Y-17628174D01*
X13313134Y-17628174D02*
X13294087Y-17618650D01*
X13294087Y-17618650D02*
X13255992Y-17618650D01*
X13255992Y-17618650D02*
X13236944Y-17628174D01*
X13322658Y-17742460D02*
X13303611Y-17751984D01*
X13303611Y-17751984D02*
X13255992Y-17751984D01*
X13255992Y-17751984D02*
X13236944Y-17742460D01*
X13236944Y-17742460D02*
X13227420Y-17723412D01*
X13227420Y-17723412D02*
X13227420Y-17704365D01*
X13227420Y-17704365D02*
X13236944Y-17685317D01*
X13236944Y-17685317D02*
X13255992Y-17675793D01*
X13255992Y-17675793D02*
X13303611Y-17675793D01*
X13303611Y-17675793D02*
X13322658Y-17666270D01*
X13389325Y-17618650D02*
X13465515Y-17618650D01*
X13417896Y-17551984D02*
X13417896Y-17723412D01*
X13417896Y-17723412D02*
X13427420Y-17742460D01*
X13427420Y-17742460D02*
X13446468Y-17751984D01*
X13446468Y-17751984D02*
X13465515Y-17751984D01*
X13608373Y-17742460D02*
X13589325Y-17751984D01*
X13589325Y-17751984D02*
X13551230Y-17751984D01*
X13551230Y-17751984D02*
X13532182Y-17742460D01*
X13532182Y-17742460D02*
X13522658Y-17723412D01*
X13522658Y-17723412D02*
X13522658Y-17647222D01*
X13522658Y-17647222D02*
X13532182Y-17628174D01*
X13532182Y-17628174D02*
X13551230Y-17618650D01*
X13551230Y-17618650D02*
X13589325Y-17618650D01*
X13589325Y-17618650D02*
X13608373Y-17628174D01*
X13608373Y-17628174D02*
X13617896Y-17647222D01*
X13617896Y-17647222D02*
X13617896Y-17666270D01*
X13617896Y-17666270D02*
X13522658Y-17685317D01*
X13789325Y-17751984D02*
X13789325Y-17551984D01*
X13789325Y-17742460D02*
X13770277Y-17751984D01*
X13770277Y-17751984D02*
X13732182Y-17751984D01*
X13732182Y-17751984D02*
X13713134Y-17742460D01*
X13713134Y-17742460D02*
X13703611Y-17732936D01*
X13703611Y-17732936D02*
X13694087Y-17713889D01*
X13694087Y-17713889D02*
X13694087Y-17656746D01*
X13694087Y-17656746D02*
X13703611Y-17637698D01*
X13703611Y-17637698D02*
X13713134Y-17628174D01*
X13713134Y-17628174D02*
X13732182Y-17618650D01*
X13732182Y-17618650D02*
X13770277Y-17618650D01*
X13770277Y-17618650D02*
X13789325Y-17628174D01*
X13865515Y-17828174D02*
X13875039Y-17818650D01*
X13875039Y-17818650D02*
X13894087Y-17790079D01*
X13894087Y-17790079D02*
X13903611Y-17771031D01*
X13903611Y-17771031D02*
X13913134Y-17742460D01*
X13913134Y-17742460D02*
X13922658Y-17694841D01*
X13922658Y-17694841D02*
X13922658Y-17656746D01*
X13922658Y-17656746D02*
X13913134Y-17609127D01*
X13913134Y-17609127D02*
X13903611Y-17580555D01*
X13903611Y-17580555D02*
X13894087Y-17561508D01*
X13894087Y-17561508D02*
X13875039Y-17532936D01*
X13875039Y-17532936D02*
X13865515Y-17523412D01*
D13*
X7109500Y-17924500D02*
G75*
G02*
X6939320Y-17924500I-85090J0D01*
G01*
X6939320Y-17924500D02*
G75*
G02*
X7109500Y-17924500I85090J0D01*
G01*
D11*
X7475039Y-18015984D02*
X7360753Y-18015984D01*
X7417896Y-18015984D02*
X7417896Y-17815984D01*
X7417896Y-17815984D02*
X7398848Y-17844555D01*
X7398848Y-17844555D02*
X7379801Y-17863603D01*
X7379801Y-17863603D02*
X7360753Y-17873127D01*
X7560753Y-17996936D02*
X7570277Y-18006460D01*
X7570277Y-18006460D02*
X7560753Y-18015984D01*
X7560753Y-18015984D02*
X7551229Y-18006460D01*
X7551229Y-18006460D02*
X7560753Y-17996936D01*
X7560753Y-17996936D02*
X7560753Y-18015984D01*
X7636943Y-17815984D02*
X7770277Y-17815984D01*
X7770277Y-17815984D02*
X7684562Y-18015984D01*
X7884562Y-17815984D02*
X7903610Y-17815984D01*
X7903610Y-17815984D02*
X7922658Y-17825508D01*
X7922658Y-17825508D02*
X7932182Y-17835031D01*
X7932182Y-17835031D02*
X7941705Y-17854079D01*
X7941705Y-17854079D02*
X7951229Y-17892174D01*
X7951229Y-17892174D02*
X7951229Y-17939793D01*
X7951229Y-17939793D02*
X7941705Y-17977889D01*
X7941705Y-17977889D02*
X7932182Y-17996936D01*
X7932182Y-17996936D02*
X7922658Y-18006460D01*
X7922658Y-18006460D02*
X7903610Y-18015984D01*
X7903610Y-18015984D02*
X7884562Y-18015984D01*
X7884562Y-18015984D02*
X7865515Y-18006460D01*
X7865515Y-18006460D02*
X7855991Y-17996936D01*
X7855991Y-17996936D02*
X7846467Y-17977889D01*
X7846467Y-17977889D02*
X7836943Y-17939793D01*
X7836943Y-17939793D02*
X7836943Y-17892174D01*
X7836943Y-17892174D02*
X7846467Y-17854079D01*
X7846467Y-17854079D02*
X7855991Y-17835031D01*
X7855991Y-17835031D02*
X7865515Y-17825508D01*
X7865515Y-17825508D02*
X7884562Y-17815984D01*
X8027420Y-17835031D02*
X8036943Y-17825508D01*
X8036943Y-17825508D02*
X8055991Y-17815984D01*
X8055991Y-17815984D02*
X8103610Y-17815984D01*
X8103610Y-17815984D02*
X8122658Y-17825508D01*
X8122658Y-17825508D02*
X8132182Y-17835031D01*
X8132182Y-17835031D02*
X8141705Y-17854079D01*
X8141705Y-17854079D02*
X8141705Y-17873127D01*
X8141705Y-17873127D02*
X8132182Y-17901698D01*
X8132182Y-17901698D02*
X8017896Y-18015984D01*
X8017896Y-18015984D02*
X8141705Y-18015984D01*
X8227420Y-18015984D02*
X8227420Y-17882650D01*
X8227420Y-17901698D02*
X8236943Y-17892174D01*
X8236943Y-17892174D02*
X8255991Y-17882650D01*
X8255991Y-17882650D02*
X8284563Y-17882650D01*
X8284563Y-17882650D02*
X8303610Y-17892174D01*
X8303610Y-17892174D02*
X8313134Y-17911222D01*
X8313134Y-17911222D02*
X8313134Y-18015984D01*
X8313134Y-17911222D02*
X8322658Y-17892174D01*
X8322658Y-17892174D02*
X8341705Y-17882650D01*
X8341705Y-17882650D02*
X8370277Y-17882650D01*
X8370277Y-17882650D02*
X8389325Y-17892174D01*
X8389325Y-17892174D02*
X8398848Y-17911222D01*
X8398848Y-17911222D02*
X8398848Y-18015984D01*
X8494086Y-18015984D02*
X8494086Y-17882650D01*
X8494086Y-17901698D02*
X8503610Y-17892174D01*
X8503610Y-17892174D02*
X8522658Y-17882650D01*
X8522658Y-17882650D02*
X8551229Y-17882650D01*
X8551229Y-17882650D02*
X8570277Y-17892174D01*
X8570277Y-17892174D02*
X8579801Y-17911222D01*
X8579801Y-17911222D02*
X8579801Y-18015984D01*
X8579801Y-17911222D02*
X8589325Y-17892174D01*
X8589325Y-17892174D02*
X8608372Y-17882650D01*
X8608372Y-17882650D02*
X8636944Y-17882650D01*
X8636944Y-17882650D02*
X8655991Y-17892174D01*
X8655991Y-17892174D02*
X8665515Y-17911222D01*
X8665515Y-17911222D02*
X8665515Y-18015984D01*
X9055991Y-17806460D02*
X8884563Y-18063603D01*
X9313134Y-17815984D02*
X9332182Y-17815984D01*
X9332182Y-17815984D02*
X9351229Y-17825508D01*
X9351229Y-17825508D02*
X9360753Y-17835031D01*
X9360753Y-17835031D02*
X9370277Y-17854079D01*
X9370277Y-17854079D02*
X9379801Y-17892174D01*
X9379801Y-17892174D02*
X9379801Y-17939793D01*
X9379801Y-17939793D02*
X9370277Y-17977889D01*
X9370277Y-17977889D02*
X9360753Y-17996936D01*
X9360753Y-17996936D02*
X9351229Y-18006460D01*
X9351229Y-18006460D02*
X9332182Y-18015984D01*
X9332182Y-18015984D02*
X9313134Y-18015984D01*
X9313134Y-18015984D02*
X9294087Y-18006460D01*
X9294087Y-18006460D02*
X9284563Y-17996936D01*
X9284563Y-17996936D02*
X9275039Y-17977889D01*
X9275039Y-17977889D02*
X9265515Y-17939793D01*
X9265515Y-17939793D02*
X9265515Y-17892174D01*
X9265515Y-17892174D02*
X9275039Y-17854079D01*
X9275039Y-17854079D02*
X9284563Y-17835031D01*
X9284563Y-17835031D02*
X9294087Y-17825508D01*
X9294087Y-17825508D02*
X9313134Y-17815984D01*
X9465515Y-17996936D02*
X9475039Y-18006460D01*
X9475039Y-18006460D02*
X9465515Y-18015984D01*
X9465515Y-18015984D02*
X9455991Y-18006460D01*
X9455991Y-18006460D02*
X9465515Y-17996936D01*
X9465515Y-17996936D02*
X9465515Y-18015984D01*
X9598848Y-17815984D02*
X9617896Y-17815984D01*
X9617896Y-17815984D02*
X9636944Y-17825508D01*
X9636944Y-17825508D02*
X9646468Y-17835031D01*
X9646468Y-17835031D02*
X9655991Y-17854079D01*
X9655991Y-17854079D02*
X9665515Y-17892174D01*
X9665515Y-17892174D02*
X9665515Y-17939793D01*
X9665515Y-17939793D02*
X9655991Y-17977889D01*
X9655991Y-17977889D02*
X9646468Y-17996936D01*
X9646468Y-17996936D02*
X9636944Y-18006460D01*
X9636944Y-18006460D02*
X9617896Y-18015984D01*
X9617896Y-18015984D02*
X9598848Y-18015984D01*
X9598848Y-18015984D02*
X9579801Y-18006460D01*
X9579801Y-18006460D02*
X9570277Y-17996936D01*
X9570277Y-17996936D02*
X9560753Y-17977889D01*
X9560753Y-17977889D02*
X9551229Y-17939793D01*
X9551229Y-17939793D02*
X9551229Y-17892174D01*
X9551229Y-17892174D02*
X9560753Y-17854079D01*
X9560753Y-17854079D02*
X9570277Y-17835031D01*
X9570277Y-17835031D02*
X9579801Y-17825508D01*
X9579801Y-17825508D02*
X9598848Y-17815984D01*
X9836944Y-17815984D02*
X9798848Y-17815984D01*
X9798848Y-17815984D02*
X9779801Y-17825508D01*
X9779801Y-17825508D02*
X9770277Y-17835031D01*
X9770277Y-17835031D02*
X9751229Y-17863603D01*
X9751229Y-17863603D02*
X9741706Y-17901698D01*
X9741706Y-17901698D02*
X9741706Y-17977889D01*
X9741706Y-17977889D02*
X9751229Y-17996936D01*
X9751229Y-17996936D02*
X9760753Y-18006460D01*
X9760753Y-18006460D02*
X9779801Y-18015984D01*
X9779801Y-18015984D02*
X9817896Y-18015984D01*
X9817896Y-18015984D02*
X9836944Y-18006460D01*
X9836944Y-18006460D02*
X9846468Y-17996936D01*
X9846468Y-17996936D02*
X9855991Y-17977889D01*
X9855991Y-17977889D02*
X9855991Y-17930270D01*
X9855991Y-17930270D02*
X9846468Y-17911222D01*
X9846468Y-17911222D02*
X9836944Y-17901698D01*
X9836944Y-17901698D02*
X9817896Y-17892174D01*
X9817896Y-17892174D02*
X9779801Y-17892174D01*
X9779801Y-17892174D02*
X9760753Y-17901698D01*
X9760753Y-17901698D02*
X9751229Y-17911222D01*
X9751229Y-17911222D02*
X9741706Y-17930270D01*
X9922658Y-17815984D02*
X10055991Y-17815984D01*
X10055991Y-17815984D02*
X9970277Y-18015984D01*
X10170277Y-17815984D02*
X10189325Y-17815984D01*
X10189325Y-17815984D02*
X10208372Y-17825508D01*
X10208372Y-17825508D02*
X10217896Y-17835031D01*
X10217896Y-17835031D02*
X10227420Y-17854079D01*
X10227420Y-17854079D02*
X10236944Y-17892174D01*
X10236944Y-17892174D02*
X10236944Y-17939793D01*
X10236944Y-17939793D02*
X10227420Y-17977889D01*
X10227420Y-17977889D02*
X10217896Y-17996936D01*
X10217896Y-17996936D02*
X10208372Y-18006460D01*
X10208372Y-18006460D02*
X10189325Y-18015984D01*
X10189325Y-18015984D02*
X10170277Y-18015984D01*
X10170277Y-18015984D02*
X10151229Y-18006460D01*
X10151229Y-18006460D02*
X10141706Y-17996936D01*
X10141706Y-17996936D02*
X10132182Y-17977889D01*
X10132182Y-17977889D02*
X10122658Y-17939793D01*
X10122658Y-17939793D02*
X10122658Y-17892174D01*
X10122658Y-17892174D02*
X10132182Y-17854079D01*
X10132182Y-17854079D02*
X10141706Y-17835031D01*
X10141706Y-17835031D02*
X10151229Y-17825508D01*
X10151229Y-17825508D02*
X10170277Y-17815984D01*
X10313134Y-17815984D02*
X10313134Y-17854079D01*
X10389325Y-17815984D02*
X10389325Y-17854079D01*
X10684563Y-18092174D02*
X10675039Y-18082650D01*
X10675039Y-18082650D02*
X10655991Y-18054079D01*
X10655991Y-18054079D02*
X10646468Y-18035031D01*
X10646468Y-18035031D02*
X10636944Y-18006460D01*
X10636944Y-18006460D02*
X10627420Y-17958841D01*
X10627420Y-17958841D02*
X10627420Y-17920746D01*
X10627420Y-17920746D02*
X10636944Y-17873127D01*
X10636944Y-17873127D02*
X10646468Y-17844555D01*
X10646468Y-17844555D02*
X10655991Y-17825508D01*
X10655991Y-17825508D02*
X10675039Y-17796936D01*
X10675039Y-17796936D02*
X10684563Y-17787412D01*
X10741706Y-17815984D02*
X10865515Y-17815984D01*
X10865515Y-17815984D02*
X10798849Y-17892174D01*
X10798849Y-17892174D02*
X10827420Y-17892174D01*
X10827420Y-17892174D02*
X10846468Y-17901698D01*
X10846468Y-17901698D02*
X10855991Y-17911222D01*
X10855991Y-17911222D02*
X10865515Y-17930270D01*
X10865515Y-17930270D02*
X10865515Y-17977889D01*
X10865515Y-17977889D02*
X10855991Y-17996936D01*
X10855991Y-17996936D02*
X10846468Y-18006460D01*
X10846468Y-18006460D02*
X10827420Y-18015984D01*
X10827420Y-18015984D02*
X10770277Y-18015984D01*
X10770277Y-18015984D02*
X10751230Y-18006460D01*
X10751230Y-18006460D02*
X10741706Y-17996936D01*
X11036944Y-17815984D02*
X10998849Y-17815984D01*
X10998849Y-17815984D02*
X10979801Y-17825508D01*
X10979801Y-17825508D02*
X10970277Y-17835031D01*
X10970277Y-17835031D02*
X10951230Y-17863603D01*
X10951230Y-17863603D02*
X10941706Y-17901698D01*
X10941706Y-17901698D02*
X10941706Y-17977889D01*
X10941706Y-17977889D02*
X10951230Y-17996936D01*
X10951230Y-17996936D02*
X10960753Y-18006460D01*
X10960753Y-18006460D02*
X10979801Y-18015984D01*
X10979801Y-18015984D02*
X11017896Y-18015984D01*
X11017896Y-18015984D02*
X11036944Y-18006460D01*
X11036944Y-18006460D02*
X11046468Y-17996936D01*
X11046468Y-17996936D02*
X11055991Y-17977889D01*
X11055991Y-17977889D02*
X11055991Y-17930270D01*
X11055991Y-17930270D02*
X11046468Y-17911222D01*
X11046468Y-17911222D02*
X11036944Y-17901698D01*
X11036944Y-17901698D02*
X11017896Y-17892174D01*
X11017896Y-17892174D02*
X10979801Y-17892174D01*
X10979801Y-17892174D02*
X10960753Y-17901698D01*
X10960753Y-17901698D02*
X10951230Y-17911222D01*
X10951230Y-17911222D02*
X10941706Y-17930270D01*
X11294087Y-18015984D02*
X11294087Y-17815984D01*
X11379801Y-18015984D02*
X11379801Y-17911222D01*
X11379801Y-17911222D02*
X11370277Y-17892174D01*
X11370277Y-17892174D02*
X11351230Y-17882650D01*
X11351230Y-17882650D02*
X11322658Y-17882650D01*
X11322658Y-17882650D02*
X11303610Y-17892174D01*
X11303610Y-17892174D02*
X11294087Y-17901698D01*
X11503610Y-18015984D02*
X11484563Y-18006460D01*
X11484563Y-18006460D02*
X11475039Y-17996936D01*
X11475039Y-17996936D02*
X11465515Y-17977889D01*
X11465515Y-17977889D02*
X11465515Y-17920746D01*
X11465515Y-17920746D02*
X11475039Y-17901698D01*
X11475039Y-17901698D02*
X11484563Y-17892174D01*
X11484563Y-17892174D02*
X11503610Y-17882650D01*
X11503610Y-17882650D02*
X11532182Y-17882650D01*
X11532182Y-17882650D02*
X11551230Y-17892174D01*
X11551230Y-17892174D02*
X11560753Y-17901698D01*
X11560753Y-17901698D02*
X11570277Y-17920746D01*
X11570277Y-17920746D02*
X11570277Y-17977889D01*
X11570277Y-17977889D02*
X11560753Y-17996936D01*
X11560753Y-17996936D02*
X11551230Y-18006460D01*
X11551230Y-18006460D02*
X11532182Y-18015984D01*
X11532182Y-18015984D02*
X11503610Y-18015984D01*
X11684563Y-18015984D02*
X11665515Y-18006460D01*
X11665515Y-18006460D02*
X11655991Y-17987412D01*
X11655991Y-17987412D02*
X11655991Y-17815984D01*
X11836944Y-18006460D02*
X11817896Y-18015984D01*
X11817896Y-18015984D02*
X11779801Y-18015984D01*
X11779801Y-18015984D02*
X11760753Y-18006460D01*
X11760753Y-18006460D02*
X11751230Y-17987412D01*
X11751230Y-17987412D02*
X11751230Y-17911222D01*
X11751230Y-17911222D02*
X11760753Y-17892174D01*
X11760753Y-17892174D02*
X11779801Y-17882650D01*
X11779801Y-17882650D02*
X11817896Y-17882650D01*
X11817896Y-17882650D02*
X11836944Y-17892174D01*
X11836944Y-17892174D02*
X11846468Y-17911222D01*
X11846468Y-17911222D02*
X11846468Y-17930270D01*
X11846468Y-17930270D02*
X11751230Y-17949317D01*
X11922658Y-18006460D02*
X11941706Y-18015984D01*
X11941706Y-18015984D02*
X11979801Y-18015984D01*
X11979801Y-18015984D02*
X11998849Y-18006460D01*
X11998849Y-18006460D02*
X12008372Y-17987412D01*
X12008372Y-17987412D02*
X12008372Y-17977889D01*
X12008372Y-17977889D02*
X11998849Y-17958841D01*
X11998849Y-17958841D02*
X11979801Y-17949317D01*
X11979801Y-17949317D02*
X11951230Y-17949317D01*
X11951230Y-17949317D02*
X11932182Y-17939793D01*
X11932182Y-17939793D02*
X11922658Y-17920746D01*
X11922658Y-17920746D02*
X11922658Y-17911222D01*
X11922658Y-17911222D02*
X11932182Y-17892174D01*
X11932182Y-17892174D02*
X11951230Y-17882650D01*
X11951230Y-17882650D02*
X11979801Y-17882650D01*
X11979801Y-17882650D02*
X11998849Y-17892174D01*
X12075039Y-18092174D02*
X12084563Y-18082650D01*
X12084563Y-18082650D02*
X12103611Y-18054079D01*
X12103611Y-18054079D02*
X12113134Y-18035031D01*
X12113134Y-18035031D02*
X12122658Y-18006460D01*
X12122658Y-18006460D02*
X12132182Y-17958841D01*
X12132182Y-17958841D02*
X12132182Y-17920746D01*
X12132182Y-17920746D02*
X12122658Y-17873127D01*
X12122658Y-17873127D02*
X12113134Y-17844555D01*
X12113134Y-17844555D02*
X12103611Y-17825508D01*
X12103611Y-17825508D02*
X12084563Y-17796936D01*
X12084563Y-17796936D02*
X12075039Y-17787412D01*
X12436944Y-18092174D02*
X12427420Y-18082650D01*
X12427420Y-18082650D02*
X12408372Y-18054079D01*
X12408372Y-18054079D02*
X12398849Y-18035031D01*
X12398849Y-18035031D02*
X12389325Y-18006460D01*
X12389325Y-18006460D02*
X12379801Y-17958841D01*
X12379801Y-17958841D02*
X12379801Y-17920746D01*
X12379801Y-17920746D02*
X12389325Y-17873127D01*
X12389325Y-17873127D02*
X12398849Y-17844555D01*
X12398849Y-17844555D02*
X12408372Y-17825508D01*
X12408372Y-17825508D02*
X12427420Y-17796936D01*
X12427420Y-17796936D02*
X12436944Y-17787412D01*
X12513134Y-17882650D02*
X12513134Y-18015984D01*
X12513134Y-17901698D02*
X12522658Y-17892174D01*
X12522658Y-17892174D02*
X12541706Y-17882650D01*
X12541706Y-17882650D02*
X12570277Y-17882650D01*
X12570277Y-17882650D02*
X12589325Y-17892174D01*
X12589325Y-17892174D02*
X12598849Y-17911222D01*
X12598849Y-17911222D02*
X12598849Y-18015984D01*
X12722658Y-18015984D02*
X12703611Y-18006460D01*
X12703611Y-18006460D02*
X12694087Y-17996936D01*
X12694087Y-17996936D02*
X12684563Y-17977889D01*
X12684563Y-17977889D02*
X12684563Y-17920746D01*
X12684563Y-17920746D02*
X12694087Y-17901698D01*
X12694087Y-17901698D02*
X12703611Y-17892174D01*
X12703611Y-17892174D02*
X12722658Y-17882650D01*
X12722658Y-17882650D02*
X12751230Y-17882650D01*
X12751230Y-17882650D02*
X12770277Y-17892174D01*
X12770277Y-17892174D02*
X12779801Y-17901698D01*
X12779801Y-17901698D02*
X12789325Y-17920746D01*
X12789325Y-17920746D02*
X12789325Y-17977889D01*
X12789325Y-17977889D02*
X12779801Y-17996936D01*
X12779801Y-17996936D02*
X12770277Y-18006460D01*
X12770277Y-18006460D02*
X12751230Y-18015984D01*
X12751230Y-18015984D02*
X12722658Y-18015984D01*
X12846468Y-17882650D02*
X12922658Y-17882650D01*
X12875039Y-17815984D02*
X12875039Y-17987412D01*
X12875039Y-17987412D02*
X12884563Y-18006460D01*
X12884563Y-18006460D02*
X12903611Y-18015984D01*
X12903611Y-18015984D02*
X12922658Y-18015984D01*
X13141706Y-17882650D02*
X13141706Y-18082650D01*
X13141706Y-17892174D02*
X13160753Y-17882650D01*
X13160753Y-17882650D02*
X13198849Y-17882650D01*
X13198849Y-17882650D02*
X13217896Y-17892174D01*
X13217896Y-17892174D02*
X13227420Y-17901698D01*
X13227420Y-17901698D02*
X13236944Y-17920746D01*
X13236944Y-17920746D02*
X13236944Y-17977889D01*
X13236944Y-17977889D02*
X13227420Y-17996936D01*
X13227420Y-17996936D02*
X13217896Y-18006460D01*
X13217896Y-18006460D02*
X13198849Y-18015984D01*
X13198849Y-18015984D02*
X13160753Y-18015984D01*
X13160753Y-18015984D02*
X13141706Y-18006460D01*
X13351230Y-18015984D02*
X13332182Y-18006460D01*
X13332182Y-18006460D02*
X13322658Y-17987412D01*
X13322658Y-17987412D02*
X13322658Y-17815984D01*
X13513134Y-18015984D02*
X13513134Y-17911222D01*
X13513134Y-17911222D02*
X13503611Y-17892174D01*
X13503611Y-17892174D02*
X13484563Y-17882650D01*
X13484563Y-17882650D02*
X13446468Y-17882650D01*
X13446468Y-17882650D02*
X13427420Y-17892174D01*
X13513134Y-18006460D02*
X13494087Y-18015984D01*
X13494087Y-18015984D02*
X13446468Y-18015984D01*
X13446468Y-18015984D02*
X13427420Y-18006460D01*
X13427420Y-18006460D02*
X13417896Y-17987412D01*
X13417896Y-17987412D02*
X13417896Y-17968365D01*
X13417896Y-17968365D02*
X13427420Y-17949317D01*
X13427420Y-17949317D02*
X13446468Y-17939793D01*
X13446468Y-17939793D02*
X13494087Y-17939793D01*
X13494087Y-17939793D02*
X13513134Y-17930270D01*
X13579801Y-17882650D02*
X13655992Y-17882650D01*
X13608373Y-17815984D02*
X13608373Y-17987412D01*
X13608373Y-17987412D02*
X13617896Y-18006460D01*
X13617896Y-18006460D02*
X13636944Y-18015984D01*
X13636944Y-18015984D02*
X13655992Y-18015984D01*
X13798849Y-18006460D02*
X13779801Y-18015984D01*
X13779801Y-18015984D02*
X13741706Y-18015984D01*
X13741706Y-18015984D02*
X13722658Y-18006460D01*
X13722658Y-18006460D02*
X13713134Y-17987412D01*
X13713134Y-17987412D02*
X13713134Y-17911222D01*
X13713134Y-17911222D02*
X13722658Y-17892174D01*
X13722658Y-17892174D02*
X13741706Y-17882650D01*
X13741706Y-17882650D02*
X13779801Y-17882650D01*
X13779801Y-17882650D02*
X13798849Y-17892174D01*
X13798849Y-17892174D02*
X13808373Y-17911222D01*
X13808373Y-17911222D02*
X13808373Y-17930270D01*
X13808373Y-17930270D02*
X13713134Y-17949317D01*
X13979801Y-18015984D02*
X13979801Y-17815984D01*
X13979801Y-18006460D02*
X13960754Y-18015984D01*
X13960754Y-18015984D02*
X13922658Y-18015984D01*
X13922658Y-18015984D02*
X13903611Y-18006460D01*
X13903611Y-18006460D02*
X13894087Y-17996936D01*
X13894087Y-17996936D02*
X13884563Y-17977889D01*
X13884563Y-17977889D02*
X13884563Y-17920746D01*
X13884563Y-17920746D02*
X13894087Y-17901698D01*
X13894087Y-17901698D02*
X13903611Y-17892174D01*
X13903611Y-17892174D02*
X13922658Y-17882650D01*
X13922658Y-17882650D02*
X13960754Y-17882650D01*
X13960754Y-17882650D02*
X13979801Y-17892174D01*
X14055992Y-18092174D02*
X14065515Y-18082650D01*
X14065515Y-18082650D02*
X14084563Y-18054079D01*
X14084563Y-18054079D02*
X14094087Y-18035031D01*
X14094087Y-18035031D02*
X14103611Y-18006460D01*
X14103611Y-18006460D02*
X14113134Y-17958841D01*
X14113134Y-17958841D02*
X14113134Y-17920746D01*
X14113134Y-17920746D02*
X14103611Y-17873127D01*
X14103611Y-17873127D02*
X14094087Y-17844555D01*
X14094087Y-17844555D02*
X14084563Y-17825508D01*
X14084563Y-17825508D02*
X14065515Y-17796936D01*
X14065515Y-17796936D02*
X14055992Y-17787412D01*
X7009500Y-18114680D02*
X7009500Y-18314680D01*
X6909500Y-18214680D02*
X7109500Y-18214680D01*
X7351229Y-18106164D02*
X7475039Y-18106164D01*
X7475039Y-18106164D02*
X7408372Y-18182354D01*
X7408372Y-18182354D02*
X7436943Y-18182354D01*
X7436943Y-18182354D02*
X7455991Y-18191878D01*
X7455991Y-18191878D02*
X7465515Y-18201402D01*
X7465515Y-18201402D02*
X7475039Y-18220450D01*
X7475039Y-18220450D02*
X7475039Y-18268069D01*
X7475039Y-18268069D02*
X7465515Y-18287116D01*
X7465515Y-18287116D02*
X7455991Y-18296640D01*
X7455991Y-18296640D02*
X7436943Y-18306164D01*
X7436943Y-18306164D02*
X7379801Y-18306164D01*
X7379801Y-18306164D02*
X7360753Y-18296640D01*
X7360753Y-18296640D02*
X7351229Y-18287116D01*
X7560753Y-18287116D02*
X7570277Y-18296640D01*
X7570277Y-18296640D02*
X7560753Y-18306164D01*
X7560753Y-18306164D02*
X7551229Y-18296640D01*
X7551229Y-18296640D02*
X7560753Y-18287116D01*
X7560753Y-18287116D02*
X7560753Y-18306164D01*
X7665515Y-18306164D02*
X7703610Y-18306164D01*
X7703610Y-18306164D02*
X7722658Y-18296640D01*
X7722658Y-18296640D02*
X7732182Y-18287116D01*
X7732182Y-18287116D02*
X7751229Y-18258545D01*
X7751229Y-18258545D02*
X7760753Y-18220450D01*
X7760753Y-18220450D02*
X7760753Y-18144259D01*
X7760753Y-18144259D02*
X7751229Y-18125211D01*
X7751229Y-18125211D02*
X7741705Y-18115688D01*
X7741705Y-18115688D02*
X7722658Y-18106164D01*
X7722658Y-18106164D02*
X7684562Y-18106164D01*
X7684562Y-18106164D02*
X7665515Y-18115688D01*
X7665515Y-18115688D02*
X7655991Y-18125211D01*
X7655991Y-18125211D02*
X7646467Y-18144259D01*
X7646467Y-18144259D02*
X7646467Y-18191878D01*
X7646467Y-18191878D02*
X7655991Y-18210926D01*
X7655991Y-18210926D02*
X7665515Y-18220450D01*
X7665515Y-18220450D02*
X7684562Y-18229973D01*
X7684562Y-18229973D02*
X7722658Y-18229973D01*
X7722658Y-18229973D02*
X7741705Y-18220450D01*
X7741705Y-18220450D02*
X7751229Y-18210926D01*
X7751229Y-18210926D02*
X7760753Y-18191878D01*
X7875039Y-18191878D02*
X7855991Y-18182354D01*
X7855991Y-18182354D02*
X7846467Y-18172830D01*
X7846467Y-18172830D02*
X7836943Y-18153783D01*
X7836943Y-18153783D02*
X7836943Y-18144259D01*
X7836943Y-18144259D02*
X7846467Y-18125211D01*
X7846467Y-18125211D02*
X7855991Y-18115688D01*
X7855991Y-18115688D02*
X7875039Y-18106164D01*
X7875039Y-18106164D02*
X7913134Y-18106164D01*
X7913134Y-18106164D02*
X7932182Y-18115688D01*
X7932182Y-18115688D02*
X7941705Y-18125211D01*
X7941705Y-18125211D02*
X7951229Y-18144259D01*
X7951229Y-18144259D02*
X7951229Y-18153783D01*
X7951229Y-18153783D02*
X7941705Y-18172830D01*
X7941705Y-18172830D02*
X7932182Y-18182354D01*
X7932182Y-18182354D02*
X7913134Y-18191878D01*
X7913134Y-18191878D02*
X7875039Y-18191878D01*
X7875039Y-18191878D02*
X7855991Y-18201402D01*
X7855991Y-18201402D02*
X7846467Y-18210926D01*
X7846467Y-18210926D02*
X7836943Y-18229973D01*
X7836943Y-18229973D02*
X7836943Y-18268069D01*
X7836943Y-18268069D02*
X7846467Y-18287116D01*
X7846467Y-18287116D02*
X7855991Y-18296640D01*
X7855991Y-18296640D02*
X7875039Y-18306164D01*
X7875039Y-18306164D02*
X7913134Y-18306164D01*
X7913134Y-18306164D02*
X7932182Y-18296640D01*
X7932182Y-18296640D02*
X7941705Y-18287116D01*
X7941705Y-18287116D02*
X7951229Y-18268069D01*
X7951229Y-18268069D02*
X7951229Y-18229973D01*
X7951229Y-18229973D02*
X7941705Y-18210926D01*
X7941705Y-18210926D02*
X7932182Y-18201402D01*
X7932182Y-18201402D02*
X7913134Y-18191878D01*
X8065515Y-18191878D02*
X8046467Y-18182354D01*
X8046467Y-18182354D02*
X8036943Y-18172830D01*
X8036943Y-18172830D02*
X8027420Y-18153783D01*
X8027420Y-18153783D02*
X8027420Y-18144259D01*
X8027420Y-18144259D02*
X8036943Y-18125211D01*
X8036943Y-18125211D02*
X8046467Y-18115688D01*
X8046467Y-18115688D02*
X8065515Y-18106164D01*
X8065515Y-18106164D02*
X8103610Y-18106164D01*
X8103610Y-18106164D02*
X8122658Y-18115688D01*
X8122658Y-18115688D02*
X8132182Y-18125211D01*
X8132182Y-18125211D02*
X8141705Y-18144259D01*
X8141705Y-18144259D02*
X8141705Y-18153783D01*
X8141705Y-18153783D02*
X8132182Y-18172830D01*
X8132182Y-18172830D02*
X8122658Y-18182354D01*
X8122658Y-18182354D02*
X8103610Y-18191878D01*
X8103610Y-18191878D02*
X8065515Y-18191878D01*
X8065515Y-18191878D02*
X8046467Y-18201402D01*
X8046467Y-18201402D02*
X8036943Y-18210926D01*
X8036943Y-18210926D02*
X8027420Y-18229973D01*
X8027420Y-18229973D02*
X8027420Y-18268069D01*
X8027420Y-18268069D02*
X8036943Y-18287116D01*
X8036943Y-18287116D02*
X8046467Y-18296640D01*
X8046467Y-18296640D02*
X8065515Y-18306164D01*
X8065515Y-18306164D02*
X8103610Y-18306164D01*
X8103610Y-18306164D02*
X8122658Y-18296640D01*
X8122658Y-18296640D02*
X8132182Y-18287116D01*
X8132182Y-18287116D02*
X8141705Y-18268069D01*
X8141705Y-18268069D02*
X8141705Y-18229973D01*
X8141705Y-18229973D02*
X8132182Y-18210926D01*
X8132182Y-18210926D02*
X8122658Y-18201402D01*
X8122658Y-18201402D02*
X8103610Y-18191878D01*
X8227420Y-18306164D02*
X8227420Y-18172830D01*
X8227420Y-18191878D02*
X8236943Y-18182354D01*
X8236943Y-18182354D02*
X8255991Y-18172830D01*
X8255991Y-18172830D02*
X8284563Y-18172830D01*
X8284563Y-18172830D02*
X8303610Y-18182354D01*
X8303610Y-18182354D02*
X8313134Y-18201402D01*
X8313134Y-18201402D02*
X8313134Y-18306164D01*
X8313134Y-18201402D02*
X8322658Y-18182354D01*
X8322658Y-18182354D02*
X8341705Y-18172830D01*
X8341705Y-18172830D02*
X8370277Y-18172830D01*
X8370277Y-18172830D02*
X8389325Y-18182354D01*
X8389325Y-18182354D02*
X8398848Y-18201402D01*
X8398848Y-18201402D02*
X8398848Y-18306164D01*
X8494086Y-18306164D02*
X8494086Y-18172830D01*
X8494086Y-18191878D02*
X8503610Y-18182354D01*
X8503610Y-18182354D02*
X8522658Y-18172830D01*
X8522658Y-18172830D02*
X8551229Y-18172830D01*
X8551229Y-18172830D02*
X8570277Y-18182354D01*
X8570277Y-18182354D02*
X8579801Y-18201402D01*
X8579801Y-18201402D02*
X8579801Y-18306164D01*
X8579801Y-18201402D02*
X8589325Y-18182354D01*
X8589325Y-18182354D02*
X8608372Y-18172830D01*
X8608372Y-18172830D02*
X8636944Y-18172830D01*
X8636944Y-18172830D02*
X8655991Y-18182354D01*
X8655991Y-18182354D02*
X8665515Y-18201402D01*
X8665515Y-18201402D02*
X8665515Y-18306164D01*
X9055991Y-18096640D02*
X8884563Y-18353783D01*
X9313134Y-18106164D02*
X9332182Y-18106164D01*
X9332182Y-18106164D02*
X9351229Y-18115688D01*
X9351229Y-18115688D02*
X9360753Y-18125211D01*
X9360753Y-18125211D02*
X9370277Y-18144259D01*
X9370277Y-18144259D02*
X9379801Y-18182354D01*
X9379801Y-18182354D02*
X9379801Y-18229973D01*
X9379801Y-18229973D02*
X9370277Y-18268069D01*
X9370277Y-18268069D02*
X9360753Y-18287116D01*
X9360753Y-18287116D02*
X9351229Y-18296640D01*
X9351229Y-18296640D02*
X9332182Y-18306164D01*
X9332182Y-18306164D02*
X9313134Y-18306164D01*
X9313134Y-18306164D02*
X9294087Y-18296640D01*
X9294087Y-18296640D02*
X9284563Y-18287116D01*
X9284563Y-18287116D02*
X9275039Y-18268069D01*
X9275039Y-18268069D02*
X9265515Y-18229973D01*
X9265515Y-18229973D02*
X9265515Y-18182354D01*
X9265515Y-18182354D02*
X9275039Y-18144259D01*
X9275039Y-18144259D02*
X9284563Y-18125211D01*
X9284563Y-18125211D02*
X9294087Y-18115688D01*
X9294087Y-18115688D02*
X9313134Y-18106164D01*
X9465515Y-18287116D02*
X9475039Y-18296640D01*
X9475039Y-18296640D02*
X9465515Y-18306164D01*
X9465515Y-18306164D02*
X9455991Y-18296640D01*
X9455991Y-18296640D02*
X9465515Y-18287116D01*
X9465515Y-18287116D02*
X9465515Y-18306164D01*
X9665515Y-18306164D02*
X9551229Y-18306164D01*
X9608372Y-18306164D02*
X9608372Y-18106164D01*
X9608372Y-18106164D02*
X9589325Y-18134735D01*
X9589325Y-18134735D02*
X9570277Y-18153783D01*
X9570277Y-18153783D02*
X9551229Y-18163307D01*
X9846468Y-18106164D02*
X9751229Y-18106164D01*
X9751229Y-18106164D02*
X9741706Y-18201402D01*
X9741706Y-18201402D02*
X9751229Y-18191878D01*
X9751229Y-18191878D02*
X9770277Y-18182354D01*
X9770277Y-18182354D02*
X9817896Y-18182354D01*
X9817896Y-18182354D02*
X9836944Y-18191878D01*
X9836944Y-18191878D02*
X9846468Y-18201402D01*
X9846468Y-18201402D02*
X9855991Y-18220450D01*
X9855991Y-18220450D02*
X9855991Y-18268069D01*
X9855991Y-18268069D02*
X9846468Y-18287116D01*
X9846468Y-18287116D02*
X9836944Y-18296640D01*
X9836944Y-18296640D02*
X9817896Y-18306164D01*
X9817896Y-18306164D02*
X9770277Y-18306164D01*
X9770277Y-18306164D02*
X9751229Y-18296640D01*
X9751229Y-18296640D02*
X9741706Y-18287116D01*
X9922658Y-18106164D02*
X10055991Y-18106164D01*
X10055991Y-18106164D02*
X9970277Y-18306164D01*
X10170277Y-18106164D02*
X10189325Y-18106164D01*
X10189325Y-18106164D02*
X10208372Y-18115688D01*
X10208372Y-18115688D02*
X10217896Y-18125211D01*
X10217896Y-18125211D02*
X10227420Y-18144259D01*
X10227420Y-18144259D02*
X10236944Y-18182354D01*
X10236944Y-18182354D02*
X10236944Y-18229973D01*
X10236944Y-18229973D02*
X10227420Y-18268069D01*
X10227420Y-18268069D02*
X10217896Y-18287116D01*
X10217896Y-18287116D02*
X10208372Y-18296640D01*
X10208372Y-18296640D02*
X10189325Y-18306164D01*
X10189325Y-18306164D02*
X10170277Y-18306164D01*
X10170277Y-18306164D02*
X10151229Y-18296640D01*
X10151229Y-18296640D02*
X10141706Y-18287116D01*
X10141706Y-18287116D02*
X10132182Y-18268069D01*
X10132182Y-18268069D02*
X10122658Y-18229973D01*
X10122658Y-18229973D02*
X10122658Y-18182354D01*
X10122658Y-18182354D02*
X10132182Y-18144259D01*
X10132182Y-18144259D02*
X10141706Y-18125211D01*
X10141706Y-18125211D02*
X10151229Y-18115688D01*
X10151229Y-18115688D02*
X10170277Y-18106164D01*
X10313134Y-18106164D02*
X10313134Y-18144259D01*
X10389325Y-18106164D02*
X10389325Y-18144259D01*
X10684563Y-18382354D02*
X10675039Y-18372830D01*
X10675039Y-18372830D02*
X10655991Y-18344259D01*
X10655991Y-18344259D02*
X10646468Y-18325211D01*
X10646468Y-18325211D02*
X10636944Y-18296640D01*
X10636944Y-18296640D02*
X10627420Y-18249021D01*
X10627420Y-18249021D02*
X10627420Y-18210926D01*
X10627420Y-18210926D02*
X10636944Y-18163307D01*
X10636944Y-18163307D02*
X10646468Y-18134735D01*
X10646468Y-18134735D02*
X10655991Y-18115688D01*
X10655991Y-18115688D02*
X10675039Y-18087116D01*
X10675039Y-18087116D02*
X10684563Y-18077592D01*
X10865515Y-18306164D02*
X10751230Y-18306164D01*
X10808372Y-18306164D02*
X10808372Y-18106164D01*
X10808372Y-18106164D02*
X10789325Y-18134735D01*
X10789325Y-18134735D02*
X10770277Y-18153783D01*
X10770277Y-18153783D02*
X10751230Y-18163307D01*
X10979801Y-18191878D02*
X10960753Y-18182354D01*
X10960753Y-18182354D02*
X10951230Y-18172830D01*
X10951230Y-18172830D02*
X10941706Y-18153783D01*
X10941706Y-18153783D02*
X10941706Y-18144259D01*
X10941706Y-18144259D02*
X10951230Y-18125211D01*
X10951230Y-18125211D02*
X10960753Y-18115688D01*
X10960753Y-18115688D02*
X10979801Y-18106164D01*
X10979801Y-18106164D02*
X11017896Y-18106164D01*
X11017896Y-18106164D02*
X11036944Y-18115688D01*
X11036944Y-18115688D02*
X11046468Y-18125211D01*
X11046468Y-18125211D02*
X11055991Y-18144259D01*
X11055991Y-18144259D02*
X11055991Y-18153783D01*
X11055991Y-18153783D02*
X11046468Y-18172830D01*
X11046468Y-18172830D02*
X11036944Y-18182354D01*
X11036944Y-18182354D02*
X11017896Y-18191878D01*
X11017896Y-18191878D02*
X10979801Y-18191878D01*
X10979801Y-18191878D02*
X10960753Y-18201402D01*
X10960753Y-18201402D02*
X10951230Y-18210926D01*
X10951230Y-18210926D02*
X10941706Y-18229973D01*
X10941706Y-18229973D02*
X10941706Y-18268069D01*
X10941706Y-18268069D02*
X10951230Y-18287116D01*
X10951230Y-18287116D02*
X10960753Y-18296640D01*
X10960753Y-18296640D02*
X10979801Y-18306164D01*
X10979801Y-18306164D02*
X11017896Y-18306164D01*
X11017896Y-18306164D02*
X11036944Y-18296640D01*
X11036944Y-18296640D02*
X11046468Y-18287116D01*
X11046468Y-18287116D02*
X11055991Y-18268069D01*
X11055991Y-18268069D02*
X11055991Y-18229973D01*
X11055991Y-18229973D02*
X11046468Y-18210926D01*
X11046468Y-18210926D02*
X11036944Y-18201402D01*
X11036944Y-18201402D02*
X11017896Y-18191878D01*
X11294087Y-18306164D02*
X11294087Y-18106164D01*
X11379801Y-18306164D02*
X11379801Y-18201402D01*
X11379801Y-18201402D02*
X11370277Y-18182354D01*
X11370277Y-18182354D02*
X11351230Y-18172830D01*
X11351230Y-18172830D02*
X11322658Y-18172830D01*
X11322658Y-18172830D02*
X11303610Y-18182354D01*
X11303610Y-18182354D02*
X11294087Y-18191878D01*
X11503610Y-18306164D02*
X11484563Y-18296640D01*
X11484563Y-18296640D02*
X11475039Y-18287116D01*
X11475039Y-18287116D02*
X11465515Y-18268069D01*
X11465515Y-18268069D02*
X11465515Y-18210926D01*
X11465515Y-18210926D02*
X11475039Y-18191878D01*
X11475039Y-18191878D02*
X11484563Y-18182354D01*
X11484563Y-18182354D02*
X11503610Y-18172830D01*
X11503610Y-18172830D02*
X11532182Y-18172830D01*
X11532182Y-18172830D02*
X11551230Y-18182354D01*
X11551230Y-18182354D02*
X11560753Y-18191878D01*
X11560753Y-18191878D02*
X11570277Y-18210926D01*
X11570277Y-18210926D02*
X11570277Y-18268069D01*
X11570277Y-18268069D02*
X11560753Y-18287116D01*
X11560753Y-18287116D02*
X11551230Y-18296640D01*
X11551230Y-18296640D02*
X11532182Y-18306164D01*
X11532182Y-18306164D02*
X11503610Y-18306164D01*
X11684563Y-18306164D02*
X11665515Y-18296640D01*
X11665515Y-18296640D02*
X11655991Y-18277592D01*
X11655991Y-18277592D02*
X11655991Y-18106164D01*
X11836944Y-18296640D02*
X11817896Y-18306164D01*
X11817896Y-18306164D02*
X11779801Y-18306164D01*
X11779801Y-18306164D02*
X11760753Y-18296640D01*
X11760753Y-18296640D02*
X11751230Y-18277592D01*
X11751230Y-18277592D02*
X11751230Y-18201402D01*
X11751230Y-18201402D02*
X11760753Y-18182354D01*
X11760753Y-18182354D02*
X11779801Y-18172830D01*
X11779801Y-18172830D02*
X11817896Y-18172830D01*
X11817896Y-18172830D02*
X11836944Y-18182354D01*
X11836944Y-18182354D02*
X11846468Y-18201402D01*
X11846468Y-18201402D02*
X11846468Y-18220450D01*
X11846468Y-18220450D02*
X11751230Y-18239497D01*
X11922658Y-18296640D02*
X11941706Y-18306164D01*
X11941706Y-18306164D02*
X11979801Y-18306164D01*
X11979801Y-18306164D02*
X11998849Y-18296640D01*
X11998849Y-18296640D02*
X12008372Y-18277592D01*
X12008372Y-18277592D02*
X12008372Y-18268069D01*
X12008372Y-18268069D02*
X11998849Y-18249021D01*
X11998849Y-18249021D02*
X11979801Y-18239497D01*
X11979801Y-18239497D02*
X11951230Y-18239497D01*
X11951230Y-18239497D02*
X11932182Y-18229973D01*
X11932182Y-18229973D02*
X11922658Y-18210926D01*
X11922658Y-18210926D02*
X11922658Y-18201402D01*
X11922658Y-18201402D02*
X11932182Y-18182354D01*
X11932182Y-18182354D02*
X11951230Y-18172830D01*
X11951230Y-18172830D02*
X11979801Y-18172830D01*
X11979801Y-18172830D02*
X11998849Y-18182354D01*
X12075039Y-18382354D02*
X12084563Y-18372830D01*
X12084563Y-18372830D02*
X12103611Y-18344259D01*
X12103611Y-18344259D02*
X12113134Y-18325211D01*
X12113134Y-18325211D02*
X12122658Y-18296640D01*
X12122658Y-18296640D02*
X12132182Y-18249021D01*
X12132182Y-18249021D02*
X12132182Y-18210926D01*
X12132182Y-18210926D02*
X12122658Y-18163307D01*
X12122658Y-18163307D02*
X12113134Y-18134735D01*
X12113134Y-18134735D02*
X12103611Y-18115688D01*
X12103611Y-18115688D02*
X12084563Y-18087116D01*
X12084563Y-18087116D02*
X12075039Y-18077592D01*
X12436944Y-18382354D02*
X12427420Y-18372830D01*
X12427420Y-18372830D02*
X12408372Y-18344259D01*
X12408372Y-18344259D02*
X12398849Y-18325211D01*
X12398849Y-18325211D02*
X12389325Y-18296640D01*
X12389325Y-18296640D02*
X12379801Y-18249021D01*
X12379801Y-18249021D02*
X12379801Y-18210926D01*
X12379801Y-18210926D02*
X12389325Y-18163307D01*
X12389325Y-18163307D02*
X12398849Y-18134735D01*
X12398849Y-18134735D02*
X12408372Y-18115688D01*
X12408372Y-18115688D02*
X12427420Y-18087116D01*
X12427420Y-18087116D02*
X12436944Y-18077592D01*
X12513134Y-18172830D02*
X12513134Y-18306164D01*
X12513134Y-18191878D02*
X12522658Y-18182354D01*
X12522658Y-18182354D02*
X12541706Y-18172830D01*
X12541706Y-18172830D02*
X12570277Y-18172830D01*
X12570277Y-18172830D02*
X12589325Y-18182354D01*
X12589325Y-18182354D02*
X12598849Y-18201402D01*
X12598849Y-18201402D02*
X12598849Y-18306164D01*
X12722658Y-18306164D02*
X12703611Y-18296640D01*
X12703611Y-18296640D02*
X12694087Y-18287116D01*
X12694087Y-18287116D02*
X12684563Y-18268069D01*
X12684563Y-18268069D02*
X12684563Y-18210926D01*
X12684563Y-18210926D02*
X12694087Y-18191878D01*
X12694087Y-18191878D02*
X12703611Y-18182354D01*
X12703611Y-18182354D02*
X12722658Y-18172830D01*
X12722658Y-18172830D02*
X12751230Y-18172830D01*
X12751230Y-18172830D02*
X12770277Y-18182354D01*
X12770277Y-18182354D02*
X12779801Y-18191878D01*
X12779801Y-18191878D02*
X12789325Y-18210926D01*
X12789325Y-18210926D02*
X12789325Y-18268069D01*
X12789325Y-18268069D02*
X12779801Y-18287116D01*
X12779801Y-18287116D02*
X12770277Y-18296640D01*
X12770277Y-18296640D02*
X12751230Y-18306164D01*
X12751230Y-18306164D02*
X12722658Y-18306164D01*
X12846468Y-18172830D02*
X12922658Y-18172830D01*
X12875039Y-18106164D02*
X12875039Y-18277592D01*
X12875039Y-18277592D02*
X12884563Y-18296640D01*
X12884563Y-18296640D02*
X12903611Y-18306164D01*
X12903611Y-18306164D02*
X12922658Y-18306164D01*
X13141706Y-18172830D02*
X13141706Y-18372830D01*
X13141706Y-18182354D02*
X13160753Y-18172830D01*
X13160753Y-18172830D02*
X13198849Y-18172830D01*
X13198849Y-18172830D02*
X13217896Y-18182354D01*
X13217896Y-18182354D02*
X13227420Y-18191878D01*
X13227420Y-18191878D02*
X13236944Y-18210926D01*
X13236944Y-18210926D02*
X13236944Y-18268069D01*
X13236944Y-18268069D02*
X13227420Y-18287116D01*
X13227420Y-18287116D02*
X13217896Y-18296640D01*
X13217896Y-18296640D02*
X13198849Y-18306164D01*
X13198849Y-18306164D02*
X13160753Y-18306164D01*
X13160753Y-18306164D02*
X13141706Y-18296640D01*
X13351230Y-18306164D02*
X13332182Y-18296640D01*
X13332182Y-18296640D02*
X13322658Y-18277592D01*
X13322658Y-18277592D02*
X13322658Y-18106164D01*
X13513134Y-18306164D02*
X13513134Y-18201402D01*
X13513134Y-18201402D02*
X13503611Y-18182354D01*
X13503611Y-18182354D02*
X13484563Y-18172830D01*
X13484563Y-18172830D02*
X13446468Y-18172830D01*
X13446468Y-18172830D02*
X13427420Y-18182354D01*
X13513134Y-18296640D02*
X13494087Y-18306164D01*
X13494087Y-18306164D02*
X13446468Y-18306164D01*
X13446468Y-18306164D02*
X13427420Y-18296640D01*
X13427420Y-18296640D02*
X13417896Y-18277592D01*
X13417896Y-18277592D02*
X13417896Y-18258545D01*
X13417896Y-18258545D02*
X13427420Y-18239497D01*
X13427420Y-18239497D02*
X13446468Y-18229973D01*
X13446468Y-18229973D02*
X13494087Y-18229973D01*
X13494087Y-18229973D02*
X13513134Y-18220450D01*
X13579801Y-18172830D02*
X13655992Y-18172830D01*
X13608373Y-18106164D02*
X13608373Y-18277592D01*
X13608373Y-18277592D02*
X13617896Y-18296640D01*
X13617896Y-18296640D02*
X13636944Y-18306164D01*
X13636944Y-18306164D02*
X13655992Y-18306164D01*
X13798849Y-18296640D02*
X13779801Y-18306164D01*
X13779801Y-18306164D02*
X13741706Y-18306164D01*
X13741706Y-18306164D02*
X13722658Y-18296640D01*
X13722658Y-18296640D02*
X13713134Y-18277592D01*
X13713134Y-18277592D02*
X13713134Y-18201402D01*
X13713134Y-18201402D02*
X13722658Y-18182354D01*
X13722658Y-18182354D02*
X13741706Y-18172830D01*
X13741706Y-18172830D02*
X13779801Y-18172830D01*
X13779801Y-18172830D02*
X13798849Y-18182354D01*
X13798849Y-18182354D02*
X13808373Y-18201402D01*
X13808373Y-18201402D02*
X13808373Y-18220450D01*
X13808373Y-18220450D02*
X13713134Y-18239497D01*
X13979801Y-18306164D02*
X13979801Y-18106164D01*
X13979801Y-18296640D02*
X13960754Y-18306164D01*
X13960754Y-18306164D02*
X13922658Y-18306164D01*
X13922658Y-18306164D02*
X13903611Y-18296640D01*
X13903611Y-18296640D02*
X13894087Y-18287116D01*
X13894087Y-18287116D02*
X13884563Y-18268069D01*
X13884563Y-18268069D02*
X13884563Y-18210926D01*
X13884563Y-18210926D02*
X13894087Y-18191878D01*
X13894087Y-18191878D02*
X13903611Y-18182354D01*
X13903611Y-18182354D02*
X13922658Y-18172830D01*
X13922658Y-18172830D02*
X13960754Y-18172830D01*
X13960754Y-18172830D02*
X13979801Y-18182354D01*
X14055992Y-18382354D02*
X14065515Y-18372830D01*
X14065515Y-18372830D02*
X14084563Y-18344259D01*
X14084563Y-18344259D02*
X14094087Y-18325211D01*
X14094087Y-18325211D02*
X14103611Y-18296640D01*
X14103611Y-18296640D02*
X14113134Y-18249021D01*
X14113134Y-18249021D02*
X14113134Y-18210926D01*
X14113134Y-18210926D02*
X14103611Y-18163307D01*
X14103611Y-18163307D02*
X14094087Y-18134735D01*
X14094087Y-18134735D02*
X14084563Y-18115688D01*
X14084563Y-18115688D02*
X14065515Y-18087116D01*
X14065515Y-18087116D02*
X14055992Y-18077592D01*
M02*
