%TF.GenerationSoftware,KiCad,Pcbnew,8.0.3*%
%TF.CreationDate,2024-07-02T22:23:14+01:00*%
%TF.ProjectId,simple_split,73696d70-6c65-45f7-9370-6c69742e6b69,v1.0.0*%
%TF.SameCoordinates,Original*%
%TF.FileFunction,Copper,L1,Top*%
%TF.FilePolarity,Positive*%
%FSLAX46Y46*%
G04 Gerber Fmt 4.6, Leading zero omitted, Abs format (unit mm)*
G04 Created by KiCad (PCBNEW 8.0.3) date 2024-07-02 22:23:14*
%MOMM*%
%LPD*%
G01*
G04 APERTURE LIST*
%TA.AperFunction,ComponentPad*%
%ADD10C,2.286000*%
%TD*%
%TA.AperFunction,ComponentPad*%
%ADD11R,1.752600X1.752600*%
%TD*%
%TA.AperFunction,ComponentPad*%
%ADD12C,1.752600*%
%TD*%
%TA.AperFunction,ComponentPad*%
%ADD13C,1.397000*%
%TD*%
%TA.AperFunction,ComponentPad*%
%ADD14O,2.000000X1.600000*%
%TD*%
%TA.AperFunction,ViaPad*%
%ADD15C,0.800000*%
%TD*%
%TA.AperFunction,Conductor*%
%ADD16C,0.250000*%
%TD*%
G04 APERTURE END LIST*
D10*
%TO.P,S3,1*%
%TO.N,Switch1*%
X80210000Y-87820500D03*
%TO.N,gnd*%
X85290000Y-87820500D03*
%TO.P,S3,2*%
%TO.N,Switch1*%
X78940000Y-90360500D03*
%TO.N,gnd*%
X86560000Y-90360500D03*
%TD*%
D11*
%TO.P,U2,1,TX0/PD3*%
%TO.N,led*%
X172720000Y-81280000D03*
D12*
%TO.P,U2,2,RX1/PD2*%
%TO.N,data*%
X172720000Y-83820000D03*
%TO.P,U2,3,GND*%
%TO.N,gnd*%
X172720000Y-86360000D03*
%TO.P,U2,4,GND*%
X172720000Y-88900000D03*
%TO.P,U2,5,2/PD1*%
%TO.N,sda*%
X172720000Y-91440000D03*
%TO.P,U2,6,3/PD0*%
%TO.N,scl*%
X172720000Y-93980000D03*
%TO.P,U2,7,4/PD4*%
%TO.N,Switch7*%
X172720000Y-96520000D03*
%TO.P,U2,8,5/PC6*%
%TO.N,Switch8*%
X172720000Y-99060000D03*
%TO.P,U2,9,6/PD7*%
%TO.N,Switch9*%
X172720000Y-101600000D03*
%TO.P,U2,10,7/PE6*%
%TO.N,Switch10*%
X172720000Y-104140000D03*
%TO.P,U2,11,8/PB4*%
%TO.N,Switch6*%
X172720000Y-106680000D03*
%TO.P,U2,12,9/PB5*%
%TO.N,Switch1*%
X172948600Y-109220000D03*
%TO.P,U2,13,10/PB6*%
%TO.N,Switch13*%
X187960000Y-109220000D03*
%TO.P,U2,14,16/PB2*%
%TO.N,Switch12*%
X187960000Y-106680000D03*
%TO.P,U2,15,14/PB3*%
%TO.N,Switch11*%
X187960000Y-104140000D03*
%TO.P,U2,16,15/PB1*%
%TO.N,unconnected-(U2-Pad16)*%
X187960000Y-101600000D03*
%TO.P,U2,17,A0/PF7*%
%TO.N,Switch2*%
X187960000Y-99060000D03*
%TO.P,U2,18,A1/PF6*%
%TO.N,Switch3*%
X187960000Y-96520000D03*
%TO.P,U2,19,A2/PF5*%
%TO.N,Switch4*%
X187960000Y-93980000D03*
%TO.P,U2,20,A3/PF4*%
%TO.N,Switch5*%
X187960000Y-91440000D03*
%TO.P,U2,21,VCC*%
%TO.N,vcc*%
X187960000Y-88900000D03*
%TO.P,U2,22,RST*%
%TO.N,reset*%
X187960000Y-86360000D03*
%TO.P,U2,23,GND*%
%TO.N,gnd*%
X187960000Y-83820000D03*
%TO.P,U2,24,B0*%
%TO.N,raw*%
X187960000Y-81280000D03*
%TO.P,U2,25,B7*%
%TO.N,Switch14*%
X175260000Y-109220000D03*
%TO.P,U2,26,D5*%
%TO.N,Switch15*%
X177800000Y-109220000D03*
%TO.P,U2,27,C7*%
%TO.N,Switch18*%
X180340000Y-109220000D03*
%TO.P,U2,28,F1*%
%TO.N,Switch17*%
X182880000Y-109220000D03*
%TO.P,U2,29,F0*%
%TO.N,Switch16*%
X185420000Y-109220000D03*
%TD*%
D10*
%TO.P,S4,1*%
%TO.N,Switch12*%
X99210000Y-113347500D03*
%TO.N,gnd*%
X104290000Y-113347500D03*
%TO.P,S4,2*%
%TO.N,Switch12*%
X97940000Y-115887500D03*
%TO.N,gnd*%
X105560000Y-115887500D03*
%TD*%
%TO.P,S13,1*%
%TO.N,Switch15*%
X156210000Y-116205000D03*
%TO.N,gnd*%
X161290000Y-116205000D03*
%TO.P,S13,2*%
%TO.N,Switch15*%
X154940000Y-118745000D03*
%TO.N,gnd*%
X162560000Y-118745000D03*
%TD*%
%TO.P,S8,1*%
%TO.N,Switch8*%
X118210000Y-89535000D03*
%TO.N,gnd*%
X123290000Y-89535000D03*
%TO.P,S8,2*%
%TO.N,Switch8*%
X116940000Y-92075000D03*
%TO.N,gnd*%
X124560000Y-92075000D03*
%TD*%
D13*
%TO.P,OL1,1,SDA*%
%TO.N,sda*%
X176530000Y-114300000D03*
%TO.P,OL1,2,SCL*%
%TO.N,scl*%
X179070000Y-114300000D03*
%TO.P,OL1,3,VCC*%
%TO.N,vcc*%
X181610000Y-114300000D03*
%TO.P,OL1,4,GND*%
%TO.N,gnd*%
X184150000Y-114300000D03*
%TD*%
D10*
%TO.P,S9,1*%
%TO.N,Switch3*%
X118210000Y-70485000D03*
%TO.N,gnd*%
X123290000Y-70485000D03*
%TO.P,S9,2*%
%TO.N,Switch3*%
X116940000Y-73025000D03*
%TO.N,gnd*%
X124560000Y-73025000D03*
%TD*%
D14*
%TO.P,J2,1,SLEEVE*%
%TO.N,gnd*%
X176692500Y-127240000D03*
%TO.P,J2,2,TIP*%
X177792500Y-131840000D03*
%TO.P,J2,3,RING1*%
%TO.N,data*%
X181792500Y-131840000D03*
%TO.P,J2,4,RING2*%
%TO.N,vcc*%
X184792500Y-131840000D03*
%TD*%
D10*
%TO.P,S18,1*%
%TO.N,Switch16*%
X173422543Y-149844170D03*
%TO.N,gnd*%
X177682990Y-152610937D03*
%TO.P,S18,2*%
%TO.N,Switch16*%
X170974048Y-151282702D03*
%TO.N,gnd*%
X177364718Y-155432851D03*
%TD*%
%TO.P,S12,1*%
%TO.N,Switch4*%
X137210000Y-75247500D03*
%TO.N,gnd*%
X142290000Y-75247500D03*
%TO.P,S12,2*%
%TO.N,Switch4*%
X135940000Y-77787500D03*
%TO.N,gnd*%
X143560000Y-77787500D03*
%TD*%
%TO.P,S2,1*%
%TO.N,Switch6*%
X80210000Y-106870500D03*
%TO.N,gnd*%
X85290000Y-106870500D03*
%TO.P,S2,2*%
%TO.N,Switch6*%
X78940000Y-109410500D03*
%TO.N,gnd*%
X86560000Y-109410500D03*
%TD*%
%TO.P,S7,1*%
%TO.N,Switch13*%
X118210000Y-108585000D03*
%TO.N,gnd*%
X123290000Y-108585000D03*
%TO.P,S7,2*%
%TO.N,Switch13*%
X116940000Y-111125000D03*
%TO.N,gnd*%
X124560000Y-111125000D03*
%TD*%
%TO.P,S15,1*%
%TO.N,Switch5*%
X156210000Y-78105000D03*
%TO.N,gnd*%
X161290000Y-78105000D03*
%TO.P,S15,2*%
%TO.N,Switch5*%
X154940000Y-80645000D03*
%TO.N,gnd*%
X162560000Y-80645000D03*
%TD*%
%TO.P,S16,1*%
%TO.N,Switch18*%
X132146721Y-135923710D03*
%TO.N,gnd*%
X137149544Y-136805843D03*
%TO.P,S16,2*%
%TO.N,Switch18*%
X130454949Y-138204589D03*
%TO.N,gnd*%
X137959184Y-139527788D03*
%TD*%
%TO.P,S14,1*%
%TO.N,Switch10*%
X156210000Y-97155000D03*
%TO.N,gnd*%
X161290000Y-97155000D03*
%TO.P,S14,2*%
%TO.N,Switch10*%
X154940000Y-99695000D03*
%TO.N,gnd*%
X162560000Y-99695000D03*
%TD*%
%TO.P,S5,1*%
%TO.N,Switch7*%
X99210000Y-94297500D03*
%TO.N,gnd*%
X104290000Y-94297500D03*
%TO.P,S5,2*%
%TO.N,Switch7*%
X97940000Y-96837500D03*
%TO.N,gnd*%
X105560000Y-96837500D03*
%TD*%
%TO.P,S6,1*%
%TO.N,Switch2*%
X99210000Y-75247500D03*
%TO.N,gnd*%
X104290000Y-75247500D03*
%TO.P,S6,2*%
%TO.N,Switch2*%
X97940000Y-77787500D03*
%TO.N,gnd*%
X105560000Y-77787500D03*
%TD*%
%TO.P,S1,1*%
%TO.N,Switch11*%
X80210000Y-125920500D03*
%TO.N,gnd*%
X85290000Y-125920500D03*
%TO.P,S1,2*%
%TO.N,Switch11*%
X78940000Y-128460500D03*
%TO.N,gnd*%
X86560000Y-128460500D03*
%TD*%
%TO.P,S17,1*%
%TO.N,Switch17*%
X152648623Y-140670230D03*
%TO.N,gnd*%
X157479990Y-142240036D03*
%TO.P,S17,2*%
%TO.N,Switch17*%
X150655878Y-142693462D03*
%TO.N,gnd*%
X157902928Y-145048171D03*
%TD*%
%TO.P,S11,1*%
%TO.N,Switch9*%
X137210000Y-94297500D03*
%TO.N,gnd*%
X142290000Y-94297500D03*
%TO.P,S11,2*%
%TO.N,Switch9*%
X135940000Y-96837500D03*
%TO.N,gnd*%
X143560000Y-96837500D03*
%TD*%
%TO.P,S10,1*%
%TO.N,Switch14*%
X137210000Y-113347500D03*
%TO.N,gnd*%
X142290000Y-113347500D03*
%TO.P,S10,2*%
%TO.N,Switch14*%
X135940000Y-115887500D03*
%TO.N,gnd*%
X143560000Y-115887500D03*
%TD*%
D13*
%TO.P,OL2,1,SDA*%
%TO.N,sda*%
X184150000Y-116840000D03*
%TO.P,OL2,2,SCL*%
%TO.N,scl*%
X181610000Y-116840000D03*
%TO.P,OL2,3,VCC*%
%TO.N,vcc*%
X179070000Y-116840000D03*
%TO.P,OL2,4,GND*%
%TO.N,gnd*%
X176530000Y-116840000D03*
%TD*%
D14*
%TO.P,J1,1,SLEEVE*%
%TO.N,gnd*%
X176692500Y-131840000D03*
%TO.P,J1,2,TIP*%
X177792500Y-127240000D03*
%TO.P,J1,3,RING1*%
%TO.N,data*%
X181792500Y-127240000D03*
%TO.P,J1,4,RING2*%
%TO.N,vcc*%
X184792500Y-127240000D03*
%TD*%
D15*
%TO.N,Switch1*%
X163818400Y-104787300D03*
%TD*%
D16*
%TO.N,gnd*%
X177792500Y-127240000D02*
X176692500Y-127240000D01*
X182880000Y-115570000D02*
X184150000Y-114300000D01*
X177683000Y-131840000D02*
X177683000Y-145048200D01*
X177683000Y-131840000D02*
X176692500Y-131840000D01*
X176530000Y-116840000D02*
X177800000Y-115570000D01*
X86560000Y-109410500D02*
X100353000Y-109410500D01*
X185420000Y-86360000D02*
X172720000Y-86360000D01*
X85290000Y-125920500D02*
X86560000Y-127190500D01*
X177800000Y-115570000D02*
X182880000Y-115570000D01*
X167005000Y-80645000D02*
X162560000Y-80645000D01*
X177792500Y-131840000D02*
X177792500Y-130713300D01*
X177792500Y-127240000D02*
X177792500Y-130713300D01*
X177683000Y-145048200D02*
X177683000Y-152610900D01*
X172720000Y-86360000D02*
X167005000Y-80645000D01*
X100353000Y-109410500D02*
X104290000Y-113347500D01*
X177683000Y-145048200D02*
X157902900Y-145048200D01*
X177792500Y-131840000D02*
X177683000Y-131840000D01*
X86560000Y-127190500D02*
X86560000Y-128460500D01*
X187960000Y-83820000D02*
X185420000Y-86360000D01*
%TO.N,vcc*%
X184792500Y-126113300D02*
X179070000Y-120390800D01*
X179070000Y-120390800D02*
X179070000Y-116840000D01*
X184792500Y-127240000D02*
X184792500Y-126113300D01*
%TO.N,Switch18*%
X178361700Y-111198300D02*
X180340000Y-109220000D01*
X177096000Y-111198300D02*
X178361700Y-111198300D01*
X164181000Y-124113300D02*
X177096000Y-111198300D01*
X143957100Y-124113300D02*
X164181000Y-124113300D01*
X132146700Y-135923700D02*
X143957100Y-124113300D01*
%TO.N,Switch1*%
X80210000Y-87820500D02*
X80210000Y-89090500D01*
X86402400Y-93495200D02*
X86402400Y-92908400D01*
X82584500Y-89090500D02*
X80210000Y-89090500D01*
X163744000Y-104861700D02*
X97768900Y-104861700D01*
X97768900Y-104861700D02*
X86402400Y-93495200D01*
X163818400Y-104787300D02*
X163744000Y-104861700D01*
X86402400Y-92908400D02*
X82584500Y-89090500D01*
X80210000Y-89090500D02*
X78940000Y-90360500D01*
%TO.N,Switch2*%
X169992300Y-90664900D02*
X172038900Y-92711500D01*
X140508300Y-85902900D02*
X145270300Y-90664900D01*
X105098300Y-80022100D02*
X105098300Y-80671400D01*
X181611500Y-92711500D02*
X187960000Y-99060000D01*
X105098300Y-80671400D02*
X110329800Y-85902900D01*
X97990700Y-77736800D02*
X99210000Y-77736800D01*
X99210000Y-77736800D02*
X102813000Y-77736800D01*
X145270300Y-90664900D02*
X169992300Y-90664900D01*
X102813000Y-77736800D02*
X105098300Y-80022100D01*
X97940000Y-77787500D02*
X97990700Y-77736800D01*
X99210000Y-77736800D02*
X99210000Y-75247500D01*
X172038900Y-92711500D02*
X181611500Y-92711500D01*
X110329800Y-85902900D02*
X140508300Y-85902900D01*
%TO.N,Switch4*%
X152575700Y-90171500D02*
X184151500Y-90171500D01*
X139668300Y-76517500D02*
X143402400Y-80251600D01*
X184151500Y-90171500D02*
X187960000Y-93980000D01*
X143402400Y-80998200D02*
X152575700Y-90171500D01*
X137210000Y-76517500D02*
X139668300Y-76517500D01*
X137210000Y-76517500D02*
X135940000Y-77787500D01*
X137210000Y-75247500D02*
X137210000Y-76517500D01*
X143402400Y-80251600D02*
X143402400Y-80998200D01*
%TO.N,Switch5*%
X166239700Y-87630000D02*
X162402400Y-83792700D01*
X187960000Y-91440000D02*
X184150000Y-87630000D01*
X184150000Y-87630000D02*
X166239700Y-87630000D01*
X162402400Y-83194600D02*
X157312800Y-78105000D01*
X162402400Y-83792700D02*
X162402400Y-83194600D01*
X157312800Y-78105000D02*
X156210000Y-78105000D01*
%TO.N,Switch6*%
X135750900Y-106680000D02*
X126195000Y-116235900D01*
X126195000Y-116235900D02*
X110065900Y-116235900D01*
X81694100Y-105386400D02*
X80210000Y-106870500D01*
X172720000Y-106680000D02*
X135750900Y-106680000D01*
X110065900Y-116235900D02*
X99216400Y-105386400D01*
X99216400Y-105386400D02*
X81694100Y-105386400D01*
%TO.N,Switch7*%
X144924000Y-91182300D02*
X141326100Y-87584400D01*
X172720000Y-96520000D02*
X167382300Y-91182300D01*
X97940000Y-95567500D02*
X97940000Y-96837500D01*
X141326100Y-87584400D02*
X105923100Y-87584400D01*
X105923100Y-87584400D02*
X99210000Y-94297500D01*
X99210000Y-94297500D02*
X97940000Y-95567500D01*
X167382300Y-91182300D02*
X144924000Y-91182300D01*
%TO.N,Switch8*%
X118210000Y-89535000D02*
X119694100Y-88050900D01*
X144736900Y-91634100D02*
X165294100Y-91634100D01*
X119694100Y-88050900D02*
X141153700Y-88050900D01*
X165294100Y-91634100D02*
X172720000Y-99060000D01*
X141153700Y-88050900D02*
X144736900Y-91634100D01*
%TO.N,Switch9*%
X172720000Y-101600000D02*
X163912800Y-92792800D01*
X135940000Y-95567500D02*
X135940000Y-96837500D01*
X138714700Y-92792800D02*
X137210000Y-94297500D01*
X163912800Y-92792800D02*
X138714700Y-92792800D01*
X137210000Y-94297500D02*
X135940000Y-95567500D01*
%TO.N,Switch10*%
X162402400Y-102853400D02*
X162402400Y-102245900D01*
X162402400Y-102245900D02*
X158581500Y-98425000D01*
X172720000Y-104140000D02*
X172545400Y-103965400D01*
X156210000Y-97155000D02*
X156210000Y-98425000D01*
X156210000Y-98425000D02*
X154940000Y-99695000D01*
X163514400Y-103965400D02*
X162402400Y-102853400D01*
X158581500Y-98425000D02*
X156210000Y-98425000D01*
X172545400Y-103965400D02*
X163514400Y-103965400D01*
%TO.N,Switch11*%
X184150000Y-108756700D02*
X183394800Y-108001500D01*
X187960000Y-104140000D02*
X189669400Y-105849400D01*
X176463000Y-109738400D02*
X173631400Y-112570000D01*
X82709400Y-123421100D02*
X80210000Y-125920500D01*
X173631400Y-112570000D02*
X153424000Y-112570000D01*
X188432600Y-110471500D02*
X184915600Y-110471500D01*
X184915600Y-110471500D02*
X184150000Y-109705900D01*
X184150000Y-109705900D02*
X184150000Y-108756700D01*
X176463000Y-108849300D02*
X176463000Y-109738400D01*
X183394800Y-108001500D02*
X177310800Y-108001500D01*
X142572900Y-123421100D02*
X82709400Y-123421100D01*
X177310800Y-108001500D02*
X176463000Y-108849300D01*
X189669400Y-105849400D02*
X189669400Y-109234700D01*
X189669400Y-109234700D02*
X188432600Y-110471500D01*
X153424000Y-112570000D02*
X142572900Y-123421100D01*
%TO.N,Switch12*%
X176432600Y-106680000D02*
X175162600Y-107950000D01*
X99210000Y-114617500D02*
X97940000Y-115887500D01*
X125598400Y-119866600D02*
X106197300Y-119866600D01*
X137515000Y-107950000D02*
X125598400Y-119866600D01*
X187960000Y-106680000D02*
X176432600Y-106680000D01*
X101578300Y-114617500D02*
X99210000Y-114617500D01*
X105402400Y-118441600D02*
X101578300Y-114617500D01*
X99210000Y-113347500D02*
X99210000Y-114617500D01*
X175162600Y-107950000D02*
X137515000Y-107950000D01*
X105402400Y-119071700D02*
X105402400Y-118441600D01*
X106197300Y-119866600D02*
X105402400Y-119071700D01*
%TO.N,Switch13*%
X165056100Y-105465200D02*
X188450400Y-105465200D01*
X189192500Y-106207300D02*
X189192500Y-107987500D01*
X164989000Y-105532300D02*
X165056100Y-105465200D01*
X118210000Y-108585000D02*
X121262700Y-105532300D01*
X189192500Y-107987500D02*
X187960000Y-109220000D01*
X188450400Y-105465200D02*
X189192500Y-106207300D01*
X121262700Y-105532300D02*
X164989000Y-105532300D01*
%TO.N,Switch14*%
X139352400Y-111205100D02*
X137210000Y-113347500D01*
X175260000Y-109220000D02*
X173274900Y-111205100D01*
X173274900Y-111205100D02*
X139352400Y-111205100D01*
%TO.N,Switch15*%
X156210000Y-116205000D02*
X154940000Y-117475000D01*
X177800000Y-109220000D02*
X172842400Y-114177600D01*
X158237400Y-114177600D02*
X156210000Y-116205000D01*
X172842400Y-114177600D02*
X158237400Y-114177600D01*
X154940000Y-117475000D02*
X154940000Y-118745000D01*
%TO.N,Switch16*%
X170974000Y-151282700D02*
X171984000Y-151282700D01*
X171984000Y-151282700D02*
X173422500Y-149844200D01*
%TO.N,Switch17*%
X176724000Y-115570000D02*
X177982900Y-114311100D01*
X177982900Y-114311100D02*
X177982900Y-113923100D01*
X177982900Y-113923100D02*
X182686000Y-109220000D01*
X176346900Y-115570000D02*
X176724000Y-115570000D01*
X182686000Y-109220000D02*
X182880000Y-109220000D01*
X152648600Y-139268300D02*
X176346900Y-115570000D01*
X152648600Y-140670200D02*
X152648600Y-139268300D01*
%TD*%
M02*
