%TF.GenerationSoftware,KiCad,Pcbnew,8.0.3*%
%TF.CreationDate,2024-07-02T22:23:14+01:00*%
%TF.ProjectId,simple_split,73696d70-6c65-45f7-9370-6c69742e6b69,v1.0.0*%
%TF.SameCoordinates,Original*%
%TF.FileFunction,Legend,Top*%
%TF.FilePolarity,Positive*%
%FSLAX46Y46*%
G04 Gerber Fmt 4.6, Leading zero omitted, Abs format (unit mm)*
G04 Created by KiCad (PCBNEW 8.0.3) date 2024-07-02 22:23:14*
%MOMM*%
%LPD*%
G01*
G04 APERTURE LIST*
%ADD10C,0.150000*%
%ADD11C,0.381000*%
%ADD12R,1.752600X1.752600*%
%ADD13C,1.752600*%
%ADD14C,1.397000*%
G04 APERTURE END LIST*
D10*
X174326619Y-104083247D02*
X174593285Y-104083247D01*
X174707571Y-104502295D02*
X174326619Y-104502295D01*
X174326619Y-104502295D02*
X174326619Y-103702295D01*
X174326619Y-103702295D02*
X174707571Y-103702295D01*
X175393286Y-103702295D02*
X175240905Y-103702295D01*
X175240905Y-103702295D02*
X175164714Y-103740390D01*
X175164714Y-103740390D02*
X175126619Y-103778485D01*
X175126619Y-103778485D02*
X175050429Y-103892771D01*
X175050429Y-103892771D02*
X175012333Y-104045152D01*
X175012333Y-104045152D02*
X175012333Y-104349914D01*
X175012333Y-104349914D02*
X175050429Y-104426104D01*
X175050429Y-104426104D02*
X175088524Y-104464200D01*
X175088524Y-104464200D02*
X175164714Y-104502295D01*
X175164714Y-104502295D02*
X175317095Y-104502295D01*
X175317095Y-104502295D02*
X175393286Y-104464200D01*
X175393286Y-104464200D02*
X175431381Y-104426104D01*
X175431381Y-104426104D02*
X175469476Y-104349914D01*
X175469476Y-104349914D02*
X175469476Y-104159438D01*
X175469476Y-104159438D02*
X175431381Y-104083247D01*
X175431381Y-104083247D02*
X175393286Y-104045152D01*
X175393286Y-104045152D02*
X175317095Y-104007057D01*
X175317095Y-104007057D02*
X175164714Y-104007057D01*
X175164714Y-104007057D02*
X175088524Y-104045152D01*
X175088524Y-104045152D02*
X175050429Y-104083247D01*
X175050429Y-104083247D02*
X175012333Y-104159438D01*
X185534333Y-93923247D02*
X185267667Y-93923247D01*
X185267667Y-94342295D02*
X185267667Y-93542295D01*
X185267667Y-93542295D02*
X185648619Y-93542295D01*
X186334333Y-93542295D02*
X185953381Y-93542295D01*
X185953381Y-93542295D02*
X185915285Y-93923247D01*
X185915285Y-93923247D02*
X185953381Y-93885152D01*
X185953381Y-93885152D02*
X186029571Y-93847057D01*
X186029571Y-93847057D02*
X186220047Y-93847057D01*
X186220047Y-93847057D02*
X186296238Y-93885152D01*
X186296238Y-93885152D02*
X186334333Y-93923247D01*
X186334333Y-93923247D02*
X186372428Y-93999438D01*
X186372428Y-93999438D02*
X186372428Y-94189914D01*
X186372428Y-94189914D02*
X186334333Y-94266104D01*
X186334333Y-94266104D02*
X186296238Y-94304200D01*
X186296238Y-94304200D02*
X186220047Y-94342295D01*
X186220047Y-94342295D02*
X186029571Y-94342295D01*
X186029571Y-94342295D02*
X185953381Y-94304200D01*
X185953381Y-94304200D02*
X185915285Y-94266104D01*
X174288524Y-84182295D02*
X174288524Y-83382295D01*
X174288524Y-83382295D02*
X174479000Y-83382295D01*
X174479000Y-83382295D02*
X174593286Y-83420390D01*
X174593286Y-83420390D02*
X174669476Y-83496580D01*
X174669476Y-83496580D02*
X174707571Y-83572771D01*
X174707571Y-83572771D02*
X174745667Y-83725152D01*
X174745667Y-83725152D02*
X174745667Y-83839438D01*
X174745667Y-83839438D02*
X174707571Y-83991819D01*
X174707571Y-83991819D02*
X174669476Y-84068009D01*
X174669476Y-84068009D02*
X174593286Y-84144200D01*
X174593286Y-84144200D02*
X174479000Y-84182295D01*
X174479000Y-84182295D02*
X174288524Y-84182295D01*
X175050428Y-83458485D02*
X175088524Y-83420390D01*
X175088524Y-83420390D02*
X175164714Y-83382295D01*
X175164714Y-83382295D02*
X175355190Y-83382295D01*
X175355190Y-83382295D02*
X175431381Y-83420390D01*
X175431381Y-83420390D02*
X175469476Y-83458485D01*
X175469476Y-83458485D02*
X175507571Y-83534676D01*
X175507571Y-83534676D02*
X175507571Y-83610866D01*
X175507571Y-83610866D02*
X175469476Y-83725152D01*
X175469476Y-83725152D02*
X175012333Y-84182295D01*
X175012333Y-84182295D02*
X175507571Y-84182295D01*
X184734333Y-88462295D02*
X185001000Y-89262295D01*
X185001000Y-89262295D02*
X185267666Y-88462295D01*
X185991476Y-89186104D02*
X185953380Y-89224200D01*
X185953380Y-89224200D02*
X185839095Y-89262295D01*
X185839095Y-89262295D02*
X185762904Y-89262295D01*
X185762904Y-89262295D02*
X185648618Y-89224200D01*
X185648618Y-89224200D02*
X185572428Y-89148009D01*
X185572428Y-89148009D02*
X185534333Y-89071819D01*
X185534333Y-89071819D02*
X185496237Y-88919438D01*
X185496237Y-88919438D02*
X185496237Y-88805152D01*
X185496237Y-88805152D02*
X185534333Y-88652771D01*
X185534333Y-88652771D02*
X185572428Y-88576580D01*
X185572428Y-88576580D02*
X185648618Y-88500390D01*
X185648618Y-88500390D02*
X185762904Y-88462295D01*
X185762904Y-88462295D02*
X185839095Y-88462295D01*
X185839095Y-88462295D02*
X185953380Y-88500390D01*
X185953380Y-88500390D02*
X185991476Y-88538485D01*
X186791476Y-89186104D02*
X186753380Y-89224200D01*
X186753380Y-89224200D02*
X186639095Y-89262295D01*
X186639095Y-89262295D02*
X186562904Y-89262295D01*
X186562904Y-89262295D02*
X186448618Y-89224200D01*
X186448618Y-89224200D02*
X186372428Y-89148009D01*
X186372428Y-89148009D02*
X186334333Y-89071819D01*
X186334333Y-89071819D02*
X186296237Y-88919438D01*
X186296237Y-88919438D02*
X186296237Y-88805152D01*
X186296237Y-88805152D02*
X186334333Y-88652771D01*
X186334333Y-88652771D02*
X186372428Y-88576580D01*
X186372428Y-88576580D02*
X186448618Y-88500390D01*
X186448618Y-88500390D02*
X186562904Y-88462295D01*
X186562904Y-88462295D02*
X186639095Y-88462295D01*
X186639095Y-88462295D02*
X186753380Y-88500390D01*
X186753380Y-88500390D02*
X186791476Y-88538485D01*
X186503850Y-108114543D02*
X186598131Y-108067403D01*
X186598131Y-108067403D02*
X186645271Y-108067403D01*
X186645271Y-108067403D02*
X186715982Y-108090973D01*
X186715982Y-108090973D02*
X186786692Y-108161683D01*
X186786692Y-108161683D02*
X186810263Y-108232394D01*
X186810263Y-108232394D02*
X186810263Y-108279535D01*
X186810263Y-108279535D02*
X186786692Y-108350245D01*
X186786692Y-108350245D02*
X186598131Y-108538807D01*
X186598131Y-108538807D02*
X186103156Y-108043832D01*
X186103156Y-108043832D02*
X186268147Y-107878841D01*
X186268147Y-107878841D02*
X186338858Y-107855271D01*
X186338858Y-107855271D02*
X186385999Y-107855271D01*
X186385999Y-107855271D02*
X186456709Y-107878841D01*
X186456709Y-107878841D02*
X186503850Y-107925981D01*
X186503850Y-107925981D02*
X186527420Y-107996692D01*
X186527420Y-107996692D02*
X186527420Y-108043832D01*
X186527420Y-108043832D02*
X186503850Y-108114543D01*
X186503850Y-108114543D02*
X186338858Y-108279535D01*
X186810263Y-107336726D02*
X186715982Y-107431006D01*
X186715982Y-107431006D02*
X186692411Y-107501717D01*
X186692411Y-107501717D02*
X186692411Y-107548858D01*
X186692411Y-107548858D02*
X186715982Y-107666709D01*
X186715982Y-107666709D02*
X186786692Y-107784560D01*
X186786692Y-107784560D02*
X186975254Y-107973122D01*
X186975254Y-107973122D02*
X187045965Y-107996692D01*
X187045965Y-107996692D02*
X187093105Y-107996692D01*
X187093105Y-107996692D02*
X187163816Y-107973122D01*
X187163816Y-107973122D02*
X187258097Y-107878841D01*
X187258097Y-107878841D02*
X187281667Y-107808130D01*
X187281667Y-107808130D02*
X187281667Y-107760990D01*
X187281667Y-107760990D02*
X187258097Y-107690279D01*
X187258097Y-107690279D02*
X187140246Y-107572428D01*
X187140246Y-107572428D02*
X187069535Y-107548858D01*
X187069535Y-107548858D02*
X187022395Y-107548858D01*
X187022395Y-107548858D02*
X186951684Y-107572428D01*
X186951684Y-107572428D02*
X186857403Y-107666709D01*
X186857403Y-107666709D02*
X186833833Y-107737419D01*
X186833833Y-107737419D02*
X186833833Y-107784560D01*
X186833833Y-107784560D02*
X186857403Y-107855271D01*
X174269476Y-88500390D02*
X174193286Y-88462295D01*
X174193286Y-88462295D02*
X174079000Y-88462295D01*
X174079000Y-88462295D02*
X173964714Y-88500390D01*
X173964714Y-88500390D02*
X173888524Y-88576580D01*
X173888524Y-88576580D02*
X173850429Y-88652771D01*
X173850429Y-88652771D02*
X173812333Y-88805152D01*
X173812333Y-88805152D02*
X173812333Y-88919438D01*
X173812333Y-88919438D02*
X173850429Y-89071819D01*
X173850429Y-89071819D02*
X173888524Y-89148009D01*
X173888524Y-89148009D02*
X173964714Y-89224200D01*
X173964714Y-89224200D02*
X174079000Y-89262295D01*
X174079000Y-89262295D02*
X174155191Y-89262295D01*
X174155191Y-89262295D02*
X174269476Y-89224200D01*
X174269476Y-89224200D02*
X174307572Y-89186104D01*
X174307572Y-89186104D02*
X174307572Y-88919438D01*
X174307572Y-88919438D02*
X174155191Y-88919438D01*
X174650429Y-89262295D02*
X174650429Y-88462295D01*
X174650429Y-88462295D02*
X175107572Y-89262295D01*
X175107572Y-89262295D02*
X175107572Y-88462295D01*
X175488524Y-89262295D02*
X175488524Y-88462295D01*
X175488524Y-88462295D02*
X175679000Y-88462295D01*
X175679000Y-88462295D02*
X175793286Y-88500390D01*
X175793286Y-88500390D02*
X175869476Y-88576580D01*
X175869476Y-88576580D02*
X175907571Y-88652771D01*
X175907571Y-88652771D02*
X175945667Y-88805152D01*
X175945667Y-88805152D02*
X175945667Y-88919438D01*
X175945667Y-88919438D02*
X175907571Y-89071819D01*
X175907571Y-89071819D02*
X175869476Y-89148009D01*
X175869476Y-89148009D02*
X175793286Y-89224200D01*
X175793286Y-89224200D02*
X175679000Y-89262295D01*
X175679000Y-89262295D02*
X175488524Y-89262295D01*
X174288524Y-91802295D02*
X174288524Y-91002295D01*
X174288524Y-91002295D02*
X174479000Y-91002295D01*
X174479000Y-91002295D02*
X174593286Y-91040390D01*
X174593286Y-91040390D02*
X174669476Y-91116580D01*
X174669476Y-91116580D02*
X174707571Y-91192771D01*
X174707571Y-91192771D02*
X174745667Y-91345152D01*
X174745667Y-91345152D02*
X174745667Y-91459438D01*
X174745667Y-91459438D02*
X174707571Y-91611819D01*
X174707571Y-91611819D02*
X174669476Y-91688009D01*
X174669476Y-91688009D02*
X174593286Y-91764200D01*
X174593286Y-91764200D02*
X174479000Y-91802295D01*
X174479000Y-91802295D02*
X174288524Y-91802295D01*
X175507571Y-91802295D02*
X175050428Y-91802295D01*
X175279000Y-91802295D02*
X175279000Y-91002295D01*
X175279000Y-91002295D02*
X175202809Y-91116580D01*
X175202809Y-91116580D02*
X175126619Y-91192771D01*
X175126619Y-91192771D02*
X175050428Y-91230866D01*
X174288524Y-101962295D02*
X174288524Y-101162295D01*
X174288524Y-101162295D02*
X174479000Y-101162295D01*
X174479000Y-101162295D02*
X174593286Y-101200390D01*
X174593286Y-101200390D02*
X174669476Y-101276580D01*
X174669476Y-101276580D02*
X174707571Y-101352771D01*
X174707571Y-101352771D02*
X174745667Y-101505152D01*
X174745667Y-101505152D02*
X174745667Y-101619438D01*
X174745667Y-101619438D02*
X174707571Y-101771819D01*
X174707571Y-101771819D02*
X174669476Y-101848009D01*
X174669476Y-101848009D02*
X174593286Y-101924200D01*
X174593286Y-101924200D02*
X174479000Y-101962295D01*
X174479000Y-101962295D02*
X174288524Y-101962295D01*
X175012333Y-101162295D02*
X175545667Y-101162295D01*
X175545667Y-101162295D02*
X175202809Y-101962295D01*
X174288524Y-94342295D02*
X174288524Y-93542295D01*
X174288524Y-93542295D02*
X174479000Y-93542295D01*
X174479000Y-93542295D02*
X174593286Y-93580390D01*
X174593286Y-93580390D02*
X174669476Y-93656580D01*
X174669476Y-93656580D02*
X174707571Y-93732771D01*
X174707571Y-93732771D02*
X174745667Y-93885152D01*
X174745667Y-93885152D02*
X174745667Y-93999438D01*
X174745667Y-93999438D02*
X174707571Y-94151819D01*
X174707571Y-94151819D02*
X174669476Y-94228009D01*
X174669476Y-94228009D02*
X174593286Y-94304200D01*
X174593286Y-94304200D02*
X174479000Y-94342295D01*
X174479000Y-94342295D02*
X174288524Y-94342295D01*
X175240905Y-93542295D02*
X175317095Y-93542295D01*
X175317095Y-93542295D02*
X175393286Y-93580390D01*
X175393286Y-93580390D02*
X175431381Y-93618485D01*
X175431381Y-93618485D02*
X175469476Y-93694676D01*
X175469476Y-93694676D02*
X175507571Y-93847057D01*
X175507571Y-93847057D02*
X175507571Y-94037533D01*
X175507571Y-94037533D02*
X175469476Y-94189914D01*
X175469476Y-94189914D02*
X175431381Y-94266104D01*
X175431381Y-94266104D02*
X175393286Y-94304200D01*
X175393286Y-94304200D02*
X175317095Y-94342295D01*
X175317095Y-94342295D02*
X175240905Y-94342295D01*
X175240905Y-94342295D02*
X175164714Y-94304200D01*
X175164714Y-94304200D02*
X175126619Y-94266104D01*
X175126619Y-94266104D02*
X175088524Y-94189914D01*
X175088524Y-94189914D02*
X175050428Y-94037533D01*
X175050428Y-94037533D02*
X175050428Y-93847057D01*
X175050428Y-93847057D02*
X175088524Y-93694676D01*
X175088524Y-93694676D02*
X175126619Y-93618485D01*
X175126619Y-93618485D02*
X175164714Y-93580390D01*
X175164714Y-93580390D02*
X175240905Y-93542295D01*
X174288524Y-96882295D02*
X174288524Y-96082295D01*
X174288524Y-96082295D02*
X174479000Y-96082295D01*
X174479000Y-96082295D02*
X174593286Y-96120390D01*
X174593286Y-96120390D02*
X174669476Y-96196580D01*
X174669476Y-96196580D02*
X174707571Y-96272771D01*
X174707571Y-96272771D02*
X174745667Y-96425152D01*
X174745667Y-96425152D02*
X174745667Y-96539438D01*
X174745667Y-96539438D02*
X174707571Y-96691819D01*
X174707571Y-96691819D02*
X174669476Y-96768009D01*
X174669476Y-96768009D02*
X174593286Y-96844200D01*
X174593286Y-96844200D02*
X174479000Y-96882295D01*
X174479000Y-96882295D02*
X174288524Y-96882295D01*
X175431381Y-96348961D02*
X175431381Y-96882295D01*
X175240905Y-96044200D02*
X175050428Y-96615628D01*
X175050428Y-96615628D02*
X175545667Y-96615628D01*
X174745667Y-99346104D02*
X174707571Y-99384200D01*
X174707571Y-99384200D02*
X174593286Y-99422295D01*
X174593286Y-99422295D02*
X174517095Y-99422295D01*
X174517095Y-99422295D02*
X174402809Y-99384200D01*
X174402809Y-99384200D02*
X174326619Y-99308009D01*
X174326619Y-99308009D02*
X174288524Y-99231819D01*
X174288524Y-99231819D02*
X174250428Y-99079438D01*
X174250428Y-99079438D02*
X174250428Y-98965152D01*
X174250428Y-98965152D02*
X174288524Y-98812771D01*
X174288524Y-98812771D02*
X174326619Y-98736580D01*
X174326619Y-98736580D02*
X174402809Y-98660390D01*
X174402809Y-98660390D02*
X174517095Y-98622295D01*
X174517095Y-98622295D02*
X174593286Y-98622295D01*
X174593286Y-98622295D02*
X174707571Y-98660390D01*
X174707571Y-98660390D02*
X174745667Y-98698485D01*
X175431381Y-98622295D02*
X175279000Y-98622295D01*
X175279000Y-98622295D02*
X175202809Y-98660390D01*
X175202809Y-98660390D02*
X175164714Y-98698485D01*
X175164714Y-98698485D02*
X175088524Y-98812771D01*
X175088524Y-98812771D02*
X175050428Y-98965152D01*
X175050428Y-98965152D02*
X175050428Y-99269914D01*
X175050428Y-99269914D02*
X175088524Y-99346104D01*
X175088524Y-99346104D02*
X175126619Y-99384200D01*
X175126619Y-99384200D02*
X175202809Y-99422295D01*
X175202809Y-99422295D02*
X175355190Y-99422295D01*
X175355190Y-99422295D02*
X175431381Y-99384200D01*
X175431381Y-99384200D02*
X175469476Y-99346104D01*
X175469476Y-99346104D02*
X175507571Y-99269914D01*
X175507571Y-99269914D02*
X175507571Y-99079438D01*
X175507571Y-99079438D02*
X175469476Y-99003247D01*
X175469476Y-99003247D02*
X175431381Y-98965152D01*
X175431381Y-98965152D02*
X175355190Y-98927057D01*
X175355190Y-98927057D02*
X175202809Y-98927057D01*
X175202809Y-98927057D02*
X175126619Y-98965152D01*
X175126619Y-98965152D02*
X175088524Y-99003247D01*
X175088524Y-99003247D02*
X175050428Y-99079438D01*
X184606667Y-107799366D02*
X184373333Y-107799366D01*
X184373333Y-108166033D02*
X184373333Y-107466033D01*
X184373333Y-107466033D02*
X184706667Y-107466033D01*
X185106667Y-107466033D02*
X185173333Y-107466033D01*
X185173333Y-107466033D02*
X185240000Y-107499366D01*
X185240000Y-107499366D02*
X185273333Y-107532700D01*
X185273333Y-107532700D02*
X185306667Y-107599366D01*
X185306667Y-107599366D02*
X185340000Y-107732700D01*
X185340000Y-107732700D02*
X185340000Y-107899366D01*
X185340000Y-107899366D02*
X185306667Y-108032700D01*
X185306667Y-108032700D02*
X185273333Y-108099366D01*
X185273333Y-108099366D02*
X185240000Y-108132700D01*
X185240000Y-108132700D02*
X185173333Y-108166033D01*
X185173333Y-108166033D02*
X185106667Y-108166033D01*
X185106667Y-108166033D02*
X185040000Y-108132700D01*
X185040000Y-108132700D02*
X185006667Y-108099366D01*
X185006667Y-108099366D02*
X184973333Y-108032700D01*
X184973333Y-108032700D02*
X184940000Y-107899366D01*
X184940000Y-107899366D02*
X184940000Y-107732700D01*
X184940000Y-107732700D02*
X184973333Y-107599366D01*
X184973333Y-107599366D02*
X185006667Y-107532700D01*
X185006667Y-107532700D02*
X185040000Y-107499366D01*
X185040000Y-107499366D02*
X185106667Y-107466033D01*
X185534333Y-91383247D02*
X185267667Y-91383247D01*
X185267667Y-91802295D02*
X185267667Y-91002295D01*
X185267667Y-91002295D02*
X185648619Y-91002295D01*
X186296238Y-91268961D02*
X186296238Y-91802295D01*
X186105762Y-90964200D02*
X185915285Y-91535628D01*
X185915285Y-91535628D02*
X186410524Y-91535628D01*
X185477190Y-106623247D02*
X185591476Y-106661342D01*
X185591476Y-106661342D02*
X185629571Y-106699438D01*
X185629571Y-106699438D02*
X185667667Y-106775628D01*
X185667667Y-106775628D02*
X185667667Y-106889914D01*
X185667667Y-106889914D02*
X185629571Y-106966104D01*
X185629571Y-106966104D02*
X185591476Y-107004200D01*
X185591476Y-107004200D02*
X185515286Y-107042295D01*
X185515286Y-107042295D02*
X185210524Y-107042295D01*
X185210524Y-107042295D02*
X185210524Y-106242295D01*
X185210524Y-106242295D02*
X185477190Y-106242295D01*
X185477190Y-106242295D02*
X185553381Y-106280390D01*
X185553381Y-106280390D02*
X185591476Y-106318485D01*
X185591476Y-106318485D02*
X185629571Y-106394676D01*
X185629571Y-106394676D02*
X185629571Y-106470866D01*
X185629571Y-106470866D02*
X185591476Y-106547057D01*
X185591476Y-106547057D02*
X185553381Y-106585152D01*
X185553381Y-106585152D02*
X185477190Y-106623247D01*
X185477190Y-106623247D02*
X185210524Y-106623247D01*
X185972428Y-106318485D02*
X186010524Y-106280390D01*
X186010524Y-106280390D02*
X186086714Y-106242295D01*
X186086714Y-106242295D02*
X186277190Y-106242295D01*
X186277190Y-106242295D02*
X186353381Y-106280390D01*
X186353381Y-106280390D02*
X186391476Y-106318485D01*
X186391476Y-106318485D02*
X186429571Y-106394676D01*
X186429571Y-106394676D02*
X186429571Y-106470866D01*
X186429571Y-106470866D02*
X186391476Y-106585152D01*
X186391476Y-106585152D02*
X185934333Y-107042295D01*
X185934333Y-107042295D02*
X186429571Y-107042295D01*
X185477190Y-101543247D02*
X185591476Y-101581342D01*
X185591476Y-101581342D02*
X185629571Y-101619438D01*
X185629571Y-101619438D02*
X185667667Y-101695628D01*
X185667667Y-101695628D02*
X185667667Y-101809914D01*
X185667667Y-101809914D02*
X185629571Y-101886104D01*
X185629571Y-101886104D02*
X185591476Y-101924200D01*
X185591476Y-101924200D02*
X185515286Y-101962295D01*
X185515286Y-101962295D02*
X185210524Y-101962295D01*
X185210524Y-101962295D02*
X185210524Y-101162295D01*
X185210524Y-101162295D02*
X185477190Y-101162295D01*
X185477190Y-101162295D02*
X185553381Y-101200390D01*
X185553381Y-101200390D02*
X185591476Y-101238485D01*
X185591476Y-101238485D02*
X185629571Y-101314676D01*
X185629571Y-101314676D02*
X185629571Y-101390866D01*
X185629571Y-101390866D02*
X185591476Y-101467057D01*
X185591476Y-101467057D02*
X185553381Y-101505152D01*
X185553381Y-101505152D02*
X185477190Y-101543247D01*
X185477190Y-101543247D02*
X185210524Y-101543247D01*
X186429571Y-101962295D02*
X185972428Y-101962295D01*
X186201000Y-101962295D02*
X186201000Y-101162295D01*
X186201000Y-101162295D02*
X186124809Y-101276580D01*
X186124809Y-101276580D02*
X186048619Y-101352771D01*
X186048619Y-101352771D02*
X185972428Y-101390866D01*
X174577651Y-80842295D02*
X175034794Y-80842295D01*
X174806222Y-81642295D02*
X174806222Y-80842295D01*
X175225270Y-80842295D02*
X175758604Y-81642295D01*
X175758604Y-80842295D02*
X175225270Y-81642295D01*
X176215747Y-80842295D02*
X176291937Y-80842295D01*
X176291937Y-80842295D02*
X176368128Y-80880390D01*
X176368128Y-80880390D02*
X176406223Y-80918485D01*
X176406223Y-80918485D02*
X176444318Y-80994676D01*
X176444318Y-80994676D02*
X176482413Y-81147057D01*
X176482413Y-81147057D02*
X176482413Y-81337533D01*
X176482413Y-81337533D02*
X176444318Y-81489914D01*
X176444318Y-81489914D02*
X176406223Y-81566104D01*
X176406223Y-81566104D02*
X176368128Y-81604200D01*
X176368128Y-81604200D02*
X176291937Y-81642295D01*
X176291937Y-81642295D02*
X176215747Y-81642295D01*
X176215747Y-81642295D02*
X176139556Y-81604200D01*
X176139556Y-81604200D02*
X176101461Y-81566104D01*
X176101461Y-81566104D02*
X176063366Y-81489914D01*
X176063366Y-81489914D02*
X176025270Y-81337533D01*
X176025270Y-81337533D02*
X176025270Y-81147057D01*
X176025270Y-81147057D02*
X176063366Y-80994676D01*
X176063366Y-80994676D02*
X176101461Y-80918485D01*
X176101461Y-80918485D02*
X176139556Y-80880390D01*
X176139556Y-80880390D02*
X176215747Y-80842295D01*
X177396699Y-80804200D02*
X176710985Y-81832771D01*
X177663366Y-81642295D02*
X177663366Y-80842295D01*
X177663366Y-80842295D02*
X177853842Y-80842295D01*
X177853842Y-80842295D02*
X177968128Y-80880390D01*
X177968128Y-80880390D02*
X178044318Y-80956580D01*
X178044318Y-80956580D02*
X178082413Y-81032771D01*
X178082413Y-81032771D02*
X178120509Y-81185152D01*
X178120509Y-81185152D02*
X178120509Y-81299438D01*
X178120509Y-81299438D02*
X178082413Y-81451819D01*
X178082413Y-81451819D02*
X178044318Y-81528009D01*
X178044318Y-81528009D02*
X177968128Y-81604200D01*
X177968128Y-81604200D02*
X177853842Y-81642295D01*
X177853842Y-81642295D02*
X177663366Y-81642295D01*
X178387175Y-80842295D02*
X178882413Y-80842295D01*
X178882413Y-80842295D02*
X178615747Y-81147057D01*
X178615747Y-81147057D02*
X178730032Y-81147057D01*
X178730032Y-81147057D02*
X178806223Y-81185152D01*
X178806223Y-81185152D02*
X178844318Y-81223247D01*
X178844318Y-81223247D02*
X178882413Y-81299438D01*
X178882413Y-81299438D02*
X178882413Y-81489914D01*
X178882413Y-81489914D02*
X178844318Y-81566104D01*
X178844318Y-81566104D02*
X178806223Y-81604200D01*
X178806223Y-81604200D02*
X178730032Y-81642295D01*
X178730032Y-81642295D02*
X178501461Y-81642295D01*
X178501461Y-81642295D02*
X178425270Y-81604200D01*
X178425270Y-81604200D02*
X178387175Y-81566104D01*
X185539786Y-86654200D02*
X185654072Y-86692295D01*
X185654072Y-86692295D02*
X185844548Y-86692295D01*
X185844548Y-86692295D02*
X185920739Y-86654200D01*
X185920739Y-86654200D02*
X185958834Y-86616104D01*
X185958834Y-86616104D02*
X185996929Y-86539914D01*
X185996929Y-86539914D02*
X185996929Y-86463723D01*
X185996929Y-86463723D02*
X185958834Y-86387533D01*
X185958834Y-86387533D02*
X185920739Y-86349438D01*
X185920739Y-86349438D02*
X185844548Y-86311342D01*
X185844548Y-86311342D02*
X185692167Y-86273247D01*
X185692167Y-86273247D02*
X185615977Y-86235152D01*
X185615977Y-86235152D02*
X185577882Y-86197057D01*
X185577882Y-86197057D02*
X185539786Y-86120866D01*
X185539786Y-86120866D02*
X185539786Y-86044676D01*
X185539786Y-86044676D02*
X185577882Y-85968485D01*
X185577882Y-85968485D02*
X185615977Y-85930390D01*
X185615977Y-85930390D02*
X185692167Y-85892295D01*
X185692167Y-85892295D02*
X185882644Y-85892295D01*
X185882644Y-85892295D02*
X185996929Y-85930390D01*
X186225501Y-85892295D02*
X186682644Y-85892295D01*
X186454072Y-86692295D02*
X186454072Y-85892295D01*
X177209524Y-108012295D02*
X177209524Y-107212295D01*
X177209524Y-107212295D02*
X177400000Y-107212295D01*
X177400000Y-107212295D02*
X177514286Y-107250390D01*
X177514286Y-107250390D02*
X177590476Y-107326580D01*
X177590476Y-107326580D02*
X177628571Y-107402771D01*
X177628571Y-107402771D02*
X177666667Y-107555152D01*
X177666667Y-107555152D02*
X177666667Y-107669438D01*
X177666667Y-107669438D02*
X177628571Y-107821819D01*
X177628571Y-107821819D02*
X177590476Y-107898009D01*
X177590476Y-107898009D02*
X177514286Y-107974200D01*
X177514286Y-107974200D02*
X177400000Y-108012295D01*
X177400000Y-108012295D02*
X177209524Y-108012295D01*
X178390476Y-107212295D02*
X178009524Y-107212295D01*
X178009524Y-107212295D02*
X177971428Y-107593247D01*
X177971428Y-107593247D02*
X178009524Y-107555152D01*
X178009524Y-107555152D02*
X178085714Y-107517057D01*
X178085714Y-107517057D02*
X178276190Y-107517057D01*
X178276190Y-107517057D02*
X178352381Y-107555152D01*
X178352381Y-107555152D02*
X178390476Y-107593247D01*
X178390476Y-107593247D02*
X178428571Y-107669438D01*
X178428571Y-107669438D02*
X178428571Y-107859914D01*
X178428571Y-107859914D02*
X178390476Y-107936104D01*
X178390476Y-107936104D02*
X178352381Y-107974200D01*
X178352381Y-107974200D02*
X178276190Y-108012295D01*
X178276190Y-108012295D02*
X178085714Y-108012295D01*
X178085714Y-108012295D02*
X178009524Y-107974200D01*
X178009524Y-107974200D02*
X177971428Y-107936104D01*
X185534333Y-99003247D02*
X185267667Y-99003247D01*
X185267667Y-99422295D02*
X185267667Y-98622295D01*
X185267667Y-98622295D02*
X185648619Y-98622295D01*
X185877190Y-98622295D02*
X186410524Y-98622295D01*
X186410524Y-98622295D02*
X186067666Y-99422295D01*
X174269476Y-85960390D02*
X174193286Y-85922295D01*
X174193286Y-85922295D02*
X174079000Y-85922295D01*
X174079000Y-85922295D02*
X173964714Y-85960390D01*
X173964714Y-85960390D02*
X173888524Y-86036580D01*
X173888524Y-86036580D02*
X173850429Y-86112771D01*
X173850429Y-86112771D02*
X173812333Y-86265152D01*
X173812333Y-86265152D02*
X173812333Y-86379438D01*
X173812333Y-86379438D02*
X173850429Y-86531819D01*
X173850429Y-86531819D02*
X173888524Y-86608009D01*
X173888524Y-86608009D02*
X173964714Y-86684200D01*
X173964714Y-86684200D02*
X174079000Y-86722295D01*
X174079000Y-86722295D02*
X174155191Y-86722295D01*
X174155191Y-86722295D02*
X174269476Y-86684200D01*
X174269476Y-86684200D02*
X174307572Y-86646104D01*
X174307572Y-86646104D02*
X174307572Y-86379438D01*
X174307572Y-86379438D02*
X174155191Y-86379438D01*
X174650429Y-86722295D02*
X174650429Y-85922295D01*
X174650429Y-85922295D02*
X175107572Y-86722295D01*
X175107572Y-86722295D02*
X175107572Y-85922295D01*
X175488524Y-86722295D02*
X175488524Y-85922295D01*
X175488524Y-85922295D02*
X175679000Y-85922295D01*
X175679000Y-85922295D02*
X175793286Y-85960390D01*
X175793286Y-85960390D02*
X175869476Y-86036580D01*
X175869476Y-86036580D02*
X175907571Y-86112771D01*
X175907571Y-86112771D02*
X175945667Y-86265152D01*
X175945667Y-86265152D02*
X175945667Y-86379438D01*
X175945667Y-86379438D02*
X175907571Y-86531819D01*
X175907571Y-86531819D02*
X175869476Y-86608009D01*
X175869476Y-86608009D02*
X175793286Y-86684200D01*
X175793286Y-86684200D02*
X175679000Y-86722295D01*
X175679000Y-86722295D02*
X175488524Y-86722295D01*
X185477190Y-81223247D02*
X185591476Y-81261342D01*
X185591476Y-81261342D02*
X185629571Y-81299438D01*
X185629571Y-81299438D02*
X185667667Y-81375628D01*
X185667667Y-81375628D02*
X185667667Y-81489914D01*
X185667667Y-81489914D02*
X185629571Y-81566104D01*
X185629571Y-81566104D02*
X185591476Y-81604200D01*
X185591476Y-81604200D02*
X185515286Y-81642295D01*
X185515286Y-81642295D02*
X185210524Y-81642295D01*
X185210524Y-81642295D02*
X185210524Y-80842295D01*
X185210524Y-80842295D02*
X185477190Y-80842295D01*
X185477190Y-80842295D02*
X185553381Y-80880390D01*
X185553381Y-80880390D02*
X185591476Y-80918485D01*
X185591476Y-80918485D02*
X185629571Y-80994676D01*
X185629571Y-80994676D02*
X185629571Y-81070866D01*
X185629571Y-81070866D02*
X185591476Y-81147057D01*
X185591476Y-81147057D02*
X185553381Y-81185152D01*
X185553381Y-81185152D02*
X185477190Y-81223247D01*
X185477190Y-81223247D02*
X185210524Y-81223247D01*
X186162905Y-80842295D02*
X186239095Y-80842295D01*
X186239095Y-80842295D02*
X186315286Y-80880390D01*
X186315286Y-80880390D02*
X186353381Y-80918485D01*
X186353381Y-80918485D02*
X186391476Y-80994676D01*
X186391476Y-80994676D02*
X186429571Y-81147057D01*
X186429571Y-81147057D02*
X186429571Y-81337533D01*
X186429571Y-81337533D02*
X186391476Y-81489914D01*
X186391476Y-81489914D02*
X186353381Y-81566104D01*
X186353381Y-81566104D02*
X186315286Y-81604200D01*
X186315286Y-81604200D02*
X186239095Y-81642295D01*
X186239095Y-81642295D02*
X186162905Y-81642295D01*
X186162905Y-81642295D02*
X186086714Y-81604200D01*
X186086714Y-81604200D02*
X186048619Y-81566104D01*
X186048619Y-81566104D02*
X186010524Y-81489914D01*
X186010524Y-81489914D02*
X185972428Y-81337533D01*
X185972428Y-81337533D02*
X185972428Y-81147057D01*
X185972428Y-81147057D02*
X186010524Y-80994676D01*
X186010524Y-80994676D02*
X186048619Y-80918485D01*
X186048619Y-80918485D02*
X186086714Y-80880390D01*
X186086714Y-80880390D02*
X186162905Y-80842295D01*
X180206667Y-107936104D02*
X180168571Y-107974200D01*
X180168571Y-107974200D02*
X180054286Y-108012295D01*
X180054286Y-108012295D02*
X179978095Y-108012295D01*
X179978095Y-108012295D02*
X179863809Y-107974200D01*
X179863809Y-107974200D02*
X179787619Y-107898009D01*
X179787619Y-107898009D02*
X179749524Y-107821819D01*
X179749524Y-107821819D02*
X179711428Y-107669438D01*
X179711428Y-107669438D02*
X179711428Y-107555152D01*
X179711428Y-107555152D02*
X179749524Y-107402771D01*
X179749524Y-107402771D02*
X179787619Y-107326580D01*
X179787619Y-107326580D02*
X179863809Y-107250390D01*
X179863809Y-107250390D02*
X179978095Y-107212295D01*
X179978095Y-107212295D02*
X180054286Y-107212295D01*
X180054286Y-107212295D02*
X180168571Y-107250390D01*
X180168571Y-107250390D02*
X180206667Y-107288485D01*
X180473333Y-107212295D02*
X181006667Y-107212295D01*
X181006667Y-107212295D02*
X180663809Y-108012295D01*
X185477190Y-104083247D02*
X185591476Y-104121342D01*
X185591476Y-104121342D02*
X185629571Y-104159438D01*
X185629571Y-104159438D02*
X185667667Y-104235628D01*
X185667667Y-104235628D02*
X185667667Y-104349914D01*
X185667667Y-104349914D02*
X185629571Y-104426104D01*
X185629571Y-104426104D02*
X185591476Y-104464200D01*
X185591476Y-104464200D02*
X185515286Y-104502295D01*
X185515286Y-104502295D02*
X185210524Y-104502295D01*
X185210524Y-104502295D02*
X185210524Y-103702295D01*
X185210524Y-103702295D02*
X185477190Y-103702295D01*
X185477190Y-103702295D02*
X185553381Y-103740390D01*
X185553381Y-103740390D02*
X185591476Y-103778485D01*
X185591476Y-103778485D02*
X185629571Y-103854676D01*
X185629571Y-103854676D02*
X185629571Y-103930866D01*
X185629571Y-103930866D02*
X185591476Y-104007057D01*
X185591476Y-104007057D02*
X185553381Y-104045152D01*
X185553381Y-104045152D02*
X185477190Y-104083247D01*
X185477190Y-104083247D02*
X185210524Y-104083247D01*
X185934333Y-103702295D02*
X186429571Y-103702295D01*
X186429571Y-103702295D02*
X186162905Y-104007057D01*
X186162905Y-104007057D02*
X186277190Y-104007057D01*
X186277190Y-104007057D02*
X186353381Y-104045152D01*
X186353381Y-104045152D02*
X186391476Y-104083247D01*
X186391476Y-104083247D02*
X186429571Y-104159438D01*
X186429571Y-104159438D02*
X186429571Y-104349914D01*
X186429571Y-104349914D02*
X186391476Y-104426104D01*
X186391476Y-104426104D02*
X186353381Y-104464200D01*
X186353381Y-104464200D02*
X186277190Y-104502295D01*
X186277190Y-104502295D02*
X186048619Y-104502295D01*
X186048619Y-104502295D02*
X185972428Y-104464200D01*
X185972428Y-104464200D02*
X185934333Y-104426104D01*
X175556667Y-107799366D02*
X175656667Y-107832700D01*
X175656667Y-107832700D02*
X175690000Y-107866033D01*
X175690000Y-107866033D02*
X175723333Y-107932700D01*
X175723333Y-107932700D02*
X175723333Y-108032700D01*
X175723333Y-108032700D02*
X175690000Y-108099366D01*
X175690000Y-108099366D02*
X175656667Y-108132700D01*
X175656667Y-108132700D02*
X175590000Y-108166033D01*
X175590000Y-108166033D02*
X175323333Y-108166033D01*
X175323333Y-108166033D02*
X175323333Y-107466033D01*
X175323333Y-107466033D02*
X175556667Y-107466033D01*
X175556667Y-107466033D02*
X175623333Y-107499366D01*
X175623333Y-107499366D02*
X175656667Y-107532700D01*
X175656667Y-107532700D02*
X175690000Y-107599366D01*
X175690000Y-107599366D02*
X175690000Y-107666033D01*
X175690000Y-107666033D02*
X175656667Y-107732700D01*
X175656667Y-107732700D02*
X175623333Y-107766033D01*
X175623333Y-107766033D02*
X175556667Y-107799366D01*
X175556667Y-107799366D02*
X175323333Y-107799366D01*
X175956667Y-107466033D02*
X176423333Y-107466033D01*
X176423333Y-107466033D02*
X176123333Y-108166033D01*
X173775456Y-107713850D02*
X173822596Y-107808131D01*
X173822596Y-107808131D02*
X173822596Y-107855271D01*
X173822596Y-107855271D02*
X173799026Y-107925982D01*
X173799026Y-107925982D02*
X173728316Y-107996692D01*
X173728316Y-107996692D02*
X173657605Y-108020263D01*
X173657605Y-108020263D02*
X173610464Y-108020263D01*
X173610464Y-108020263D02*
X173539754Y-107996692D01*
X173539754Y-107996692D02*
X173351192Y-107808131D01*
X173351192Y-107808131D02*
X173846167Y-107313156D01*
X173846167Y-107313156D02*
X174011158Y-107478147D01*
X174011158Y-107478147D02*
X174034728Y-107548858D01*
X174034728Y-107548858D02*
X174034728Y-107595999D01*
X174034728Y-107595999D02*
X174011158Y-107666709D01*
X174011158Y-107666709D02*
X173964018Y-107713850D01*
X173964018Y-107713850D02*
X173893307Y-107737420D01*
X173893307Y-107737420D02*
X173846167Y-107737420D01*
X173846167Y-107737420D02*
X173775456Y-107713850D01*
X173775456Y-107713850D02*
X173610464Y-107548858D01*
X174576844Y-108043833D02*
X174341141Y-107808131D01*
X174341141Y-107808131D02*
X174081869Y-108020263D01*
X174081869Y-108020263D02*
X174129009Y-108020263D01*
X174129009Y-108020263D02*
X174199720Y-108043833D01*
X174199720Y-108043833D02*
X174317571Y-108161684D01*
X174317571Y-108161684D02*
X174341141Y-108232395D01*
X174341141Y-108232395D02*
X174341141Y-108279535D01*
X174341141Y-108279535D02*
X174317571Y-108350246D01*
X174317571Y-108350246D02*
X174199720Y-108468097D01*
X174199720Y-108468097D02*
X174129009Y-108491667D01*
X174129009Y-108491667D02*
X174081869Y-108491667D01*
X174081869Y-108491667D02*
X174011158Y-108468097D01*
X174011158Y-108468097D02*
X173893307Y-108350246D01*
X173893307Y-108350246D02*
X173869737Y-108279535D01*
X173869737Y-108279535D02*
X173869737Y-108232395D01*
X185191476Y-83420390D02*
X185115286Y-83382295D01*
X185115286Y-83382295D02*
X185001000Y-83382295D01*
X185001000Y-83382295D02*
X184886714Y-83420390D01*
X184886714Y-83420390D02*
X184810524Y-83496580D01*
X184810524Y-83496580D02*
X184772429Y-83572771D01*
X184772429Y-83572771D02*
X184734333Y-83725152D01*
X184734333Y-83725152D02*
X184734333Y-83839438D01*
X184734333Y-83839438D02*
X184772429Y-83991819D01*
X184772429Y-83991819D02*
X184810524Y-84068009D01*
X184810524Y-84068009D02*
X184886714Y-84144200D01*
X184886714Y-84144200D02*
X185001000Y-84182295D01*
X185001000Y-84182295D02*
X185077191Y-84182295D01*
X185077191Y-84182295D02*
X185191476Y-84144200D01*
X185191476Y-84144200D02*
X185229572Y-84106104D01*
X185229572Y-84106104D02*
X185229572Y-83839438D01*
X185229572Y-83839438D02*
X185077191Y-83839438D01*
X185572429Y-84182295D02*
X185572429Y-83382295D01*
X185572429Y-83382295D02*
X186029572Y-84182295D01*
X186029572Y-84182295D02*
X186029572Y-83382295D01*
X186410524Y-84182295D02*
X186410524Y-83382295D01*
X186410524Y-83382295D02*
X186601000Y-83382295D01*
X186601000Y-83382295D02*
X186715286Y-83420390D01*
X186715286Y-83420390D02*
X186791476Y-83496580D01*
X186791476Y-83496580D02*
X186829571Y-83572771D01*
X186829571Y-83572771D02*
X186867667Y-83725152D01*
X186867667Y-83725152D02*
X186867667Y-83839438D01*
X186867667Y-83839438D02*
X186829571Y-83991819D01*
X186829571Y-83991819D02*
X186791476Y-84068009D01*
X186791476Y-84068009D02*
X186715286Y-84144200D01*
X186715286Y-84144200D02*
X186601000Y-84182295D01*
X186601000Y-84182295D02*
X186410524Y-84182295D01*
X182613333Y-107593247D02*
X182346667Y-107593247D01*
X182346667Y-108012295D02*
X182346667Y-107212295D01*
X182346667Y-107212295D02*
X182727619Y-107212295D01*
X183451428Y-108012295D02*
X182994285Y-108012295D01*
X183222857Y-108012295D02*
X183222857Y-107212295D01*
X183222857Y-107212295D02*
X183146666Y-107326580D01*
X183146666Y-107326580D02*
X183070476Y-107402771D01*
X183070476Y-107402771D02*
X182994285Y-107440866D01*
X185534333Y-96463247D02*
X185267667Y-96463247D01*
X185267667Y-96882295D02*
X185267667Y-96082295D01*
X185267667Y-96082295D02*
X185648619Y-96082295D01*
X186296238Y-96082295D02*
X186143857Y-96082295D01*
X186143857Y-96082295D02*
X186067666Y-96120390D01*
X186067666Y-96120390D02*
X186029571Y-96158485D01*
X186029571Y-96158485D02*
X185953381Y-96272771D01*
X185953381Y-96272771D02*
X185915285Y-96425152D01*
X185915285Y-96425152D02*
X185915285Y-96729914D01*
X185915285Y-96729914D02*
X185953381Y-96806104D01*
X185953381Y-96806104D02*
X185991476Y-96844200D01*
X185991476Y-96844200D02*
X186067666Y-96882295D01*
X186067666Y-96882295D02*
X186220047Y-96882295D01*
X186220047Y-96882295D02*
X186296238Y-96844200D01*
X186296238Y-96844200D02*
X186334333Y-96806104D01*
X186334333Y-96806104D02*
X186372428Y-96729914D01*
X186372428Y-96729914D02*
X186372428Y-96539438D01*
X186372428Y-96539438D02*
X186334333Y-96463247D01*
X186334333Y-96463247D02*
X186296238Y-96425152D01*
X186296238Y-96425152D02*
X186220047Y-96387057D01*
X186220047Y-96387057D02*
X186067666Y-96387057D01*
X186067666Y-96387057D02*
X185991476Y-96425152D01*
X185991476Y-96425152D02*
X185953381Y-96463247D01*
X185953381Y-96463247D02*
X185915285Y-96539438D01*
X174555190Y-106623247D02*
X174669476Y-106661342D01*
X174669476Y-106661342D02*
X174707571Y-106699438D01*
X174707571Y-106699438D02*
X174745667Y-106775628D01*
X174745667Y-106775628D02*
X174745667Y-106889914D01*
X174745667Y-106889914D02*
X174707571Y-106966104D01*
X174707571Y-106966104D02*
X174669476Y-107004200D01*
X174669476Y-107004200D02*
X174593286Y-107042295D01*
X174593286Y-107042295D02*
X174288524Y-107042295D01*
X174288524Y-107042295D02*
X174288524Y-106242295D01*
X174288524Y-106242295D02*
X174555190Y-106242295D01*
X174555190Y-106242295D02*
X174631381Y-106280390D01*
X174631381Y-106280390D02*
X174669476Y-106318485D01*
X174669476Y-106318485D02*
X174707571Y-106394676D01*
X174707571Y-106394676D02*
X174707571Y-106470866D01*
X174707571Y-106470866D02*
X174669476Y-106547057D01*
X174669476Y-106547057D02*
X174631381Y-106585152D01*
X174631381Y-106585152D02*
X174555190Y-106623247D01*
X174555190Y-106623247D02*
X174288524Y-106623247D01*
X175431381Y-106508961D02*
X175431381Y-107042295D01*
X175240905Y-106204200D02*
X175050428Y-106775628D01*
X175050428Y-106775628D02*
X175545667Y-106775628D01*
X177482856Y-113204819D02*
X177387618Y-113157200D01*
X177387618Y-113157200D02*
X177339999Y-113061961D01*
X177339999Y-113061961D02*
X177339999Y-112204819D01*
X178244761Y-113157200D02*
X178149523Y-113204819D01*
X178149523Y-113204819D02*
X177959047Y-113204819D01*
X177959047Y-113204819D02*
X177863809Y-113157200D01*
X177863809Y-113157200D02*
X177816190Y-113061961D01*
X177816190Y-113061961D02*
X177816190Y-112681009D01*
X177816190Y-112681009D02*
X177863809Y-112585771D01*
X177863809Y-112585771D02*
X177959047Y-112538152D01*
X177959047Y-112538152D02*
X178149523Y-112538152D01*
X178149523Y-112538152D02*
X178244761Y-112585771D01*
X178244761Y-112585771D02*
X178292380Y-112681009D01*
X178292380Y-112681009D02*
X178292380Y-112776247D01*
X178292380Y-112776247D02*
X177816190Y-112871485D01*
X178578095Y-112538152D02*
X178959047Y-112538152D01*
X178720952Y-113204819D02*
X178720952Y-112347676D01*
X178720952Y-112347676D02*
X178768571Y-112252438D01*
X178768571Y-112252438D02*
X178863809Y-112204819D01*
X178863809Y-112204819D02*
X178959047Y-112204819D01*
X179149524Y-112538152D02*
X179530476Y-112538152D01*
X179292381Y-112204819D02*
X179292381Y-113061961D01*
X179292381Y-113061961D02*
X179340000Y-113157200D01*
X179340000Y-113157200D02*
X179435238Y-113204819D01*
X179435238Y-113204819D02*
X179530476Y-113204819D01*
X180768572Y-113204819D02*
X180673334Y-113157200D01*
X180673334Y-113157200D02*
X180625715Y-113109580D01*
X180625715Y-113109580D02*
X180578096Y-113014342D01*
X180578096Y-113014342D02*
X180578096Y-112728628D01*
X180578096Y-112728628D02*
X180625715Y-112633390D01*
X180625715Y-112633390D02*
X180673334Y-112585771D01*
X180673334Y-112585771D02*
X180768572Y-112538152D01*
X180768572Y-112538152D02*
X180911429Y-112538152D01*
X180911429Y-112538152D02*
X181006667Y-112585771D01*
X181006667Y-112585771D02*
X181054286Y-112633390D01*
X181054286Y-112633390D02*
X181101905Y-112728628D01*
X181101905Y-112728628D02*
X181101905Y-113014342D01*
X181101905Y-113014342D02*
X181054286Y-113109580D01*
X181054286Y-113109580D02*
X181006667Y-113157200D01*
X181006667Y-113157200D02*
X180911429Y-113204819D01*
X180911429Y-113204819D02*
X180768572Y-113204819D01*
X181673334Y-113204819D02*
X181578096Y-113157200D01*
X181578096Y-113157200D02*
X181530477Y-113061961D01*
X181530477Y-113061961D02*
X181530477Y-112204819D01*
X182435239Y-113157200D02*
X182340001Y-113204819D01*
X182340001Y-113204819D02*
X182149525Y-113204819D01*
X182149525Y-113204819D02*
X182054287Y-113157200D01*
X182054287Y-113157200D02*
X182006668Y-113061961D01*
X182006668Y-113061961D02*
X182006668Y-112681009D01*
X182006668Y-112681009D02*
X182054287Y-112585771D01*
X182054287Y-112585771D02*
X182149525Y-112538152D01*
X182149525Y-112538152D02*
X182340001Y-112538152D01*
X182340001Y-112538152D02*
X182435239Y-112585771D01*
X182435239Y-112585771D02*
X182482858Y-112681009D01*
X182482858Y-112681009D02*
X182482858Y-112776247D01*
X182482858Y-112776247D02*
X182006668Y-112871485D01*
X183340001Y-113204819D02*
X183340001Y-112204819D01*
X183340001Y-113157200D02*
X183244763Y-113204819D01*
X183244763Y-113204819D02*
X183054287Y-113204819D01*
X183054287Y-113204819D02*
X182959049Y-113157200D01*
X182959049Y-113157200D02*
X182911430Y-113109580D01*
X182911430Y-113109580D02*
X182863811Y-113014342D01*
X182863811Y-113014342D02*
X182863811Y-112728628D01*
X182863811Y-112728628D02*
X182911430Y-112633390D01*
X182911430Y-112633390D02*
X182959049Y-112585771D01*
X182959049Y-112585771D02*
X183054287Y-112538152D01*
X183054287Y-112538152D02*
X183244763Y-112538152D01*
X183244763Y-112538152D02*
X183340001Y-112585771D01*
D11*
%TO.C,U2*%
X171450000Y-77470000D02*
X171450000Y-80010000D01*
X171450000Y-80010000D02*
X171450000Y-110490000D01*
X171450000Y-110490000D02*
X189230000Y-110490000D01*
X173990000Y-80010000D02*
X171450000Y-80010000D01*
X173990000Y-80010000D02*
X173990000Y-82550000D01*
X173990000Y-82550000D02*
X171450000Y-82550000D01*
X189230000Y-77470000D02*
X171450000Y-77470000D01*
X189230000Y-80010000D02*
X189230000Y-77470000D01*
X189230000Y-110490000D02*
X189230000Y-80010000D01*
D10*
X184871568Y-86689360D02*
X184771568Y-86689360D01*
X184771568Y-85889360D01*
X184871568Y-85889360D01*
X184871568Y-86689360D01*
G36*
X184871568Y-86689360D02*
G01*
X184771568Y-86689360D01*
X184771568Y-85889360D01*
X184871568Y-85889360D01*
X184871568Y-86689360D01*
G37*
X185071568Y-86389360D02*
X184971568Y-86389360D01*
X184971568Y-86289360D01*
X185071568Y-86289360D01*
X185071568Y-86389360D01*
G36*
X185071568Y-86389360D02*
G01*
X184971568Y-86389360D01*
X184971568Y-86289360D01*
X185071568Y-86289360D01*
X185071568Y-86389360D01*
G37*
X185271568Y-85989360D02*
X184771568Y-85989360D01*
X184771568Y-85889360D01*
X185271568Y-85889360D01*
X185271568Y-85989360D01*
G36*
X185271568Y-85989360D02*
G01*
X184771568Y-85989360D01*
X184771568Y-85889360D01*
X185271568Y-85889360D01*
X185271568Y-85989360D01*
G37*
X185271568Y-86189360D02*
X185171568Y-86189360D01*
X185171568Y-85889360D01*
X185271568Y-85889360D01*
X185271568Y-86189360D01*
G36*
X185271568Y-86189360D02*
G01*
X185171568Y-86189360D01*
X185171568Y-85889360D01*
X185271568Y-85889360D01*
X185271568Y-86189360D01*
G37*
X185271568Y-86689360D02*
X185171568Y-86689360D01*
X185171568Y-86489360D01*
X185271568Y-86489360D01*
X185271568Y-86689360D01*
G36*
X185271568Y-86689360D02*
G01*
X185171568Y-86689360D01*
X185171568Y-86489360D01*
X185271568Y-86489360D01*
X185271568Y-86689360D01*
G37*
%TO.C,J2*%
X175892500Y-132590000D02*
X175892500Y-126490000D01*
X187992500Y-126490000D02*
X175892500Y-126490000D01*
X187992500Y-126740000D02*
X189992500Y-126740000D01*
X187992500Y-132340000D02*
X189992500Y-132340000D01*
X187992500Y-132590000D02*
X175892500Y-132590000D01*
X187992500Y-132590000D02*
X187992500Y-126490000D01*
X189992500Y-132340000D02*
X189992500Y-126740000D01*
%TD*%
D12*
%TO.C,U2*%
X172720000Y-81280000D03*
D13*
X172720000Y-83820000D03*
X172720000Y-86360000D03*
X172720000Y-88900000D03*
X172720000Y-91440000D03*
X172720000Y-93980000D03*
X172720000Y-96520000D03*
X172720000Y-99060000D03*
X172720000Y-101600000D03*
X172720000Y-104140000D03*
X172720000Y-106680000D03*
X172948600Y-109220000D03*
X187960000Y-109220000D03*
X187960000Y-106680000D03*
X187960000Y-104140000D03*
X187960000Y-101600000D03*
X187960000Y-99060000D03*
X187960000Y-96520000D03*
X187960000Y-93980000D03*
X187960000Y-91440000D03*
X187960000Y-88900000D03*
X187960000Y-86360000D03*
X187960000Y-83820000D03*
X187960000Y-81280000D03*
X175260000Y-109220000D03*
X177800000Y-109220000D03*
X180340000Y-109220000D03*
X182880000Y-109220000D03*
X185420000Y-109220000D03*
%TD*%
D14*
%TO.C,OL1*%
X176530000Y-114300000D03*
X179070000Y-114300000D03*
X181610000Y-114300000D03*
X184150000Y-114300000D03*
%TD*%
M02*
