%TF.GenerationSoftware,KiCad,Pcbnew,8.0.3*%
%TF.CreationDate,2024-07-02T22:23:14+01:00*%
%TF.ProjectId,simple_split,73696d70-6c65-45f7-9370-6c69742e6b69,v1.0.0*%
%TF.SameCoordinates,Original*%
%TF.FileFunction,Legend,Bot*%
%TF.FilePolarity,Positive*%
%FSLAX46Y46*%
G04 Gerber Fmt 4.6, Leading zero omitted, Abs format (unit mm)*
G04 Created by KiCad (PCBNEW 8.0.3) date 2024-07-02 22:23:14*
%MOMM*%
%LPD*%
G01*
G04 APERTURE LIST*
%ADD10C,0.150000*%
%ADD11C,0.381000*%
%ADD12R,1.752600X1.752600*%
%ADD13C,1.752600*%
%ADD14C,1.397000*%
G04 APERTURE END LIST*
D10*
X175469475Y-101962295D02*
X175469475Y-101162295D01*
X175469475Y-101162295D02*
X175278999Y-101162295D01*
X175278999Y-101162295D02*
X175164713Y-101200390D01*
X175164713Y-101200390D02*
X175088523Y-101276580D01*
X175088523Y-101276580D02*
X175050428Y-101352771D01*
X175050428Y-101352771D02*
X175012332Y-101505152D01*
X175012332Y-101505152D02*
X175012332Y-101619438D01*
X175012332Y-101619438D02*
X175050428Y-101771819D01*
X175050428Y-101771819D02*
X175088523Y-101848009D01*
X175088523Y-101848009D02*
X175164713Y-101924200D01*
X175164713Y-101924200D02*
X175278999Y-101962295D01*
X175278999Y-101962295D02*
X175469475Y-101962295D01*
X174745666Y-101162295D02*
X174212332Y-101162295D01*
X174212332Y-101162295D02*
X174555190Y-101962295D01*
X186124809Y-106623247D02*
X186010523Y-106661342D01*
X186010523Y-106661342D02*
X185972428Y-106699438D01*
X185972428Y-106699438D02*
X185934332Y-106775628D01*
X185934332Y-106775628D02*
X185934332Y-106889914D01*
X185934332Y-106889914D02*
X185972428Y-106966104D01*
X185972428Y-106966104D02*
X186010523Y-107004200D01*
X186010523Y-107004200D02*
X186086713Y-107042295D01*
X186086713Y-107042295D02*
X186391475Y-107042295D01*
X186391475Y-107042295D02*
X186391475Y-106242295D01*
X186391475Y-106242295D02*
X186124809Y-106242295D01*
X186124809Y-106242295D02*
X186048618Y-106280390D01*
X186048618Y-106280390D02*
X186010523Y-106318485D01*
X186010523Y-106318485D02*
X185972428Y-106394676D01*
X185972428Y-106394676D02*
X185972428Y-106470866D01*
X185972428Y-106470866D02*
X186010523Y-106547057D01*
X186010523Y-106547057D02*
X186048618Y-106585152D01*
X186048618Y-106585152D02*
X186124809Y-106623247D01*
X186124809Y-106623247D02*
X186391475Y-106623247D01*
X185629571Y-106318485D02*
X185591475Y-106280390D01*
X185591475Y-106280390D02*
X185515285Y-106242295D01*
X185515285Y-106242295D02*
X185324809Y-106242295D01*
X185324809Y-106242295D02*
X185248618Y-106280390D01*
X185248618Y-106280390D02*
X185210523Y-106318485D01*
X185210523Y-106318485D02*
X185172428Y-106394676D01*
X185172428Y-106394676D02*
X185172428Y-106470866D01*
X185172428Y-106470866D02*
X185210523Y-106585152D01*
X185210523Y-106585152D02*
X185667666Y-107042295D01*
X185667666Y-107042295D02*
X185172428Y-107042295D01*
X186067666Y-91383247D02*
X186334332Y-91383247D01*
X186334332Y-91802295D02*
X186334332Y-91002295D01*
X186334332Y-91002295D02*
X185953380Y-91002295D01*
X185305761Y-91268961D02*
X185305761Y-91802295D01*
X185496237Y-90964200D02*
X185686714Y-91535628D01*
X185686714Y-91535628D02*
X185191475Y-91535628D01*
X176123333Y-107799366D02*
X176023333Y-107832700D01*
X176023333Y-107832700D02*
X175989999Y-107866033D01*
X175989999Y-107866033D02*
X175956666Y-107932700D01*
X175956666Y-107932700D02*
X175956666Y-108032700D01*
X175956666Y-108032700D02*
X175989999Y-108099366D01*
X175989999Y-108099366D02*
X176023333Y-108132700D01*
X176023333Y-108132700D02*
X176089999Y-108166033D01*
X176089999Y-108166033D02*
X176356666Y-108166033D01*
X176356666Y-108166033D02*
X176356666Y-107466033D01*
X176356666Y-107466033D02*
X176123333Y-107466033D01*
X176123333Y-107466033D02*
X176056666Y-107499366D01*
X176056666Y-107499366D02*
X176023333Y-107532700D01*
X176023333Y-107532700D02*
X175989999Y-107599366D01*
X175989999Y-107599366D02*
X175989999Y-107666033D01*
X175989999Y-107666033D02*
X176023333Y-107732700D01*
X176023333Y-107732700D02*
X176056666Y-107766033D01*
X176056666Y-107766033D02*
X176123333Y-107799366D01*
X176123333Y-107799366D02*
X176356666Y-107799366D01*
X175723333Y-107466033D02*
X175256666Y-107466033D01*
X175256666Y-107466033D02*
X175556666Y-108166033D01*
X186124809Y-104083247D02*
X186010523Y-104121342D01*
X186010523Y-104121342D02*
X185972428Y-104159438D01*
X185972428Y-104159438D02*
X185934332Y-104235628D01*
X185934332Y-104235628D02*
X185934332Y-104349914D01*
X185934332Y-104349914D02*
X185972428Y-104426104D01*
X185972428Y-104426104D02*
X186010523Y-104464200D01*
X186010523Y-104464200D02*
X186086713Y-104502295D01*
X186086713Y-104502295D02*
X186391475Y-104502295D01*
X186391475Y-104502295D02*
X186391475Y-103702295D01*
X186391475Y-103702295D02*
X186124809Y-103702295D01*
X186124809Y-103702295D02*
X186048618Y-103740390D01*
X186048618Y-103740390D02*
X186010523Y-103778485D01*
X186010523Y-103778485D02*
X185972428Y-103854676D01*
X185972428Y-103854676D02*
X185972428Y-103930866D01*
X185972428Y-103930866D02*
X186010523Y-104007057D01*
X186010523Y-104007057D02*
X186048618Y-104045152D01*
X186048618Y-104045152D02*
X186124809Y-104083247D01*
X186124809Y-104083247D02*
X186391475Y-104083247D01*
X185667666Y-103702295D02*
X185172428Y-103702295D01*
X185172428Y-103702295D02*
X185439094Y-104007057D01*
X185439094Y-104007057D02*
X185324809Y-104007057D01*
X185324809Y-104007057D02*
X185248618Y-104045152D01*
X185248618Y-104045152D02*
X185210523Y-104083247D01*
X185210523Y-104083247D02*
X185172428Y-104159438D01*
X185172428Y-104159438D02*
X185172428Y-104349914D01*
X185172428Y-104349914D02*
X185210523Y-104426104D01*
X185210523Y-104426104D02*
X185248618Y-104464200D01*
X185248618Y-104464200D02*
X185324809Y-104502295D01*
X185324809Y-104502295D02*
X185553380Y-104502295D01*
X185553380Y-104502295D02*
X185629571Y-104464200D01*
X185629571Y-104464200D02*
X185667666Y-104426104D01*
X186867666Y-88462295D02*
X186600999Y-89262295D01*
X186600999Y-89262295D02*
X186334333Y-88462295D01*
X185610523Y-89186104D02*
X185648619Y-89224200D01*
X185648619Y-89224200D02*
X185762904Y-89262295D01*
X185762904Y-89262295D02*
X185839095Y-89262295D01*
X185839095Y-89262295D02*
X185953381Y-89224200D01*
X185953381Y-89224200D02*
X186029571Y-89148009D01*
X186029571Y-89148009D02*
X186067666Y-89071819D01*
X186067666Y-89071819D02*
X186105762Y-88919438D01*
X186105762Y-88919438D02*
X186105762Y-88805152D01*
X186105762Y-88805152D02*
X186067666Y-88652771D01*
X186067666Y-88652771D02*
X186029571Y-88576580D01*
X186029571Y-88576580D02*
X185953381Y-88500390D01*
X185953381Y-88500390D02*
X185839095Y-88462295D01*
X185839095Y-88462295D02*
X185762904Y-88462295D01*
X185762904Y-88462295D02*
X185648619Y-88500390D01*
X185648619Y-88500390D02*
X185610523Y-88538485D01*
X184810523Y-89186104D02*
X184848619Y-89224200D01*
X184848619Y-89224200D02*
X184962904Y-89262295D01*
X184962904Y-89262295D02*
X185039095Y-89262295D01*
X185039095Y-89262295D02*
X185153381Y-89224200D01*
X185153381Y-89224200D02*
X185229571Y-89148009D01*
X185229571Y-89148009D02*
X185267666Y-89071819D01*
X185267666Y-89071819D02*
X185305762Y-88919438D01*
X185305762Y-88919438D02*
X185305762Y-88805152D01*
X185305762Y-88805152D02*
X185267666Y-88652771D01*
X185267666Y-88652771D02*
X185229571Y-88576580D01*
X185229571Y-88576580D02*
X185153381Y-88500390D01*
X185153381Y-88500390D02*
X185039095Y-88462295D01*
X185039095Y-88462295D02*
X184962904Y-88462295D01*
X184962904Y-88462295D02*
X184848619Y-88500390D01*
X184848619Y-88500390D02*
X184810523Y-88538485D01*
X175012332Y-99346104D02*
X175050428Y-99384200D01*
X175050428Y-99384200D02*
X175164713Y-99422295D01*
X175164713Y-99422295D02*
X175240904Y-99422295D01*
X175240904Y-99422295D02*
X175355190Y-99384200D01*
X175355190Y-99384200D02*
X175431380Y-99308009D01*
X175431380Y-99308009D02*
X175469475Y-99231819D01*
X175469475Y-99231819D02*
X175507571Y-99079438D01*
X175507571Y-99079438D02*
X175507571Y-98965152D01*
X175507571Y-98965152D02*
X175469475Y-98812771D01*
X175469475Y-98812771D02*
X175431380Y-98736580D01*
X175431380Y-98736580D02*
X175355190Y-98660390D01*
X175355190Y-98660390D02*
X175240904Y-98622295D01*
X175240904Y-98622295D02*
X175164713Y-98622295D01*
X175164713Y-98622295D02*
X175050428Y-98660390D01*
X175050428Y-98660390D02*
X175012332Y-98698485D01*
X174326618Y-98622295D02*
X174478999Y-98622295D01*
X174478999Y-98622295D02*
X174555190Y-98660390D01*
X174555190Y-98660390D02*
X174593285Y-98698485D01*
X174593285Y-98698485D02*
X174669475Y-98812771D01*
X174669475Y-98812771D02*
X174707571Y-98965152D01*
X174707571Y-98965152D02*
X174707571Y-99269914D01*
X174707571Y-99269914D02*
X174669475Y-99346104D01*
X174669475Y-99346104D02*
X174631380Y-99384200D01*
X174631380Y-99384200D02*
X174555190Y-99422295D01*
X174555190Y-99422295D02*
X174402809Y-99422295D01*
X174402809Y-99422295D02*
X174326618Y-99384200D01*
X174326618Y-99384200D02*
X174288523Y-99346104D01*
X174288523Y-99346104D02*
X174250428Y-99269914D01*
X174250428Y-99269914D02*
X174250428Y-99079438D01*
X174250428Y-99079438D02*
X174288523Y-99003247D01*
X174288523Y-99003247D02*
X174326618Y-98965152D01*
X174326618Y-98965152D02*
X174402809Y-98927057D01*
X174402809Y-98927057D02*
X174555190Y-98927057D01*
X174555190Y-98927057D02*
X174631380Y-98965152D01*
X174631380Y-98965152D02*
X174669475Y-99003247D01*
X174669475Y-99003247D02*
X174707571Y-99079438D01*
X185073333Y-107799366D02*
X185306666Y-107799366D01*
X185306666Y-108166033D02*
X185306666Y-107466033D01*
X185306666Y-107466033D02*
X184973333Y-107466033D01*
X184573333Y-107466033D02*
X184506666Y-107466033D01*
X184506666Y-107466033D02*
X184439999Y-107499366D01*
X184439999Y-107499366D02*
X184406666Y-107532700D01*
X184406666Y-107532700D02*
X184373333Y-107599366D01*
X184373333Y-107599366D02*
X184339999Y-107732700D01*
X184339999Y-107732700D02*
X184339999Y-107899366D01*
X184339999Y-107899366D02*
X184373333Y-108032700D01*
X184373333Y-108032700D02*
X184406666Y-108099366D01*
X184406666Y-108099366D02*
X184439999Y-108132700D01*
X184439999Y-108132700D02*
X184506666Y-108166033D01*
X184506666Y-108166033D02*
X184573333Y-108166033D01*
X184573333Y-108166033D02*
X184639999Y-108132700D01*
X184639999Y-108132700D02*
X184673333Y-108099366D01*
X184673333Y-108099366D02*
X184706666Y-108032700D01*
X184706666Y-108032700D02*
X184739999Y-107899366D01*
X184739999Y-107899366D02*
X184739999Y-107732700D01*
X184739999Y-107732700D02*
X184706666Y-107599366D01*
X184706666Y-107599366D02*
X184673333Y-107532700D01*
X184673333Y-107532700D02*
X184639999Y-107499366D01*
X184639999Y-107499366D02*
X184573333Y-107466033D01*
X186067666Y-99003247D02*
X186334332Y-99003247D01*
X186334332Y-99422295D02*
X186334332Y-98622295D01*
X186334332Y-98622295D02*
X185953380Y-98622295D01*
X185724809Y-98622295D02*
X185191475Y-98622295D01*
X185191475Y-98622295D02*
X185534333Y-99422295D01*
X175469475Y-84182295D02*
X175469475Y-83382295D01*
X175469475Y-83382295D02*
X175278999Y-83382295D01*
X175278999Y-83382295D02*
X175164713Y-83420390D01*
X175164713Y-83420390D02*
X175088523Y-83496580D01*
X175088523Y-83496580D02*
X175050428Y-83572771D01*
X175050428Y-83572771D02*
X175012332Y-83725152D01*
X175012332Y-83725152D02*
X175012332Y-83839438D01*
X175012332Y-83839438D02*
X175050428Y-83991819D01*
X175050428Y-83991819D02*
X175088523Y-84068009D01*
X175088523Y-84068009D02*
X175164713Y-84144200D01*
X175164713Y-84144200D02*
X175278999Y-84182295D01*
X175278999Y-84182295D02*
X175469475Y-84182295D01*
X174707571Y-83458485D02*
X174669475Y-83420390D01*
X174669475Y-83420390D02*
X174593285Y-83382295D01*
X174593285Y-83382295D02*
X174402809Y-83382295D01*
X174402809Y-83382295D02*
X174326618Y-83420390D01*
X174326618Y-83420390D02*
X174288523Y-83458485D01*
X174288523Y-83458485D02*
X174250428Y-83534676D01*
X174250428Y-83534676D02*
X174250428Y-83610866D01*
X174250428Y-83610866D02*
X174288523Y-83725152D01*
X174288523Y-83725152D02*
X174745666Y-84182295D01*
X174745666Y-84182295D02*
X174250428Y-84182295D01*
X186904543Y-107713850D02*
X186857403Y-107808131D01*
X186857403Y-107808131D02*
X186857403Y-107855271D01*
X186857403Y-107855271D02*
X186880973Y-107925982D01*
X186880973Y-107925982D02*
X186951683Y-107996692D01*
X186951683Y-107996692D02*
X187022394Y-108020263D01*
X187022394Y-108020263D02*
X187069535Y-108020263D01*
X187069535Y-108020263D02*
X187140245Y-107996692D01*
X187140245Y-107996692D02*
X187328807Y-107808131D01*
X187328807Y-107808131D02*
X186833832Y-107313156D01*
X186833832Y-107313156D02*
X186668841Y-107478147D01*
X186668841Y-107478147D02*
X186645271Y-107548858D01*
X186645271Y-107548858D02*
X186645271Y-107595999D01*
X186645271Y-107595999D02*
X186668841Y-107666709D01*
X186668841Y-107666709D02*
X186715981Y-107713850D01*
X186715981Y-107713850D02*
X186786692Y-107737420D01*
X186786692Y-107737420D02*
X186833832Y-107737420D01*
X186833832Y-107737420D02*
X186904543Y-107713850D01*
X186904543Y-107713850D02*
X187069535Y-107548858D01*
X186126726Y-108020263D02*
X186221006Y-107925982D01*
X186221006Y-107925982D02*
X186291717Y-107902411D01*
X186291717Y-107902411D02*
X186338858Y-107902411D01*
X186338858Y-107902411D02*
X186456709Y-107925982D01*
X186456709Y-107925982D02*
X186574560Y-107996692D01*
X186574560Y-107996692D02*
X186763122Y-108185254D01*
X186763122Y-108185254D02*
X186786692Y-108255965D01*
X186786692Y-108255965D02*
X186786692Y-108303105D01*
X186786692Y-108303105D02*
X186763122Y-108373816D01*
X186763122Y-108373816D02*
X186668841Y-108468097D01*
X186668841Y-108468097D02*
X186598130Y-108491667D01*
X186598130Y-108491667D02*
X186550990Y-108491667D01*
X186550990Y-108491667D02*
X186480279Y-108468097D01*
X186480279Y-108468097D02*
X186362428Y-108350246D01*
X186362428Y-108350246D02*
X186338858Y-108279535D01*
X186338858Y-108279535D02*
X186338858Y-108232395D01*
X186338858Y-108232395D02*
X186362428Y-108161684D01*
X186362428Y-108161684D02*
X186456709Y-108067403D01*
X186456709Y-108067403D02*
X186527419Y-108043833D01*
X186527419Y-108043833D02*
X186574560Y-108043833D01*
X186574560Y-108043833D02*
X186645271Y-108067403D01*
X180473332Y-107936104D02*
X180511428Y-107974200D01*
X180511428Y-107974200D02*
X180625713Y-108012295D01*
X180625713Y-108012295D02*
X180701904Y-108012295D01*
X180701904Y-108012295D02*
X180816190Y-107974200D01*
X180816190Y-107974200D02*
X180892380Y-107898009D01*
X180892380Y-107898009D02*
X180930475Y-107821819D01*
X180930475Y-107821819D02*
X180968571Y-107669438D01*
X180968571Y-107669438D02*
X180968571Y-107555152D01*
X180968571Y-107555152D02*
X180930475Y-107402771D01*
X180930475Y-107402771D02*
X180892380Y-107326580D01*
X180892380Y-107326580D02*
X180816190Y-107250390D01*
X180816190Y-107250390D02*
X180701904Y-107212295D01*
X180701904Y-107212295D02*
X180625713Y-107212295D01*
X180625713Y-107212295D02*
X180511428Y-107250390D01*
X180511428Y-107250390D02*
X180473332Y-107288485D01*
X180206666Y-107212295D02*
X179673332Y-107212295D01*
X179673332Y-107212295D02*
X180016190Y-108012295D01*
X178958604Y-80842295D02*
X178501461Y-80842295D01*
X178730033Y-81642295D02*
X178730033Y-80842295D01*
X178310985Y-80842295D02*
X177777651Y-81642295D01*
X177777651Y-80842295D02*
X178310985Y-81642295D01*
X177320508Y-80842295D02*
X177244318Y-80842295D01*
X177244318Y-80842295D02*
X177168127Y-80880390D01*
X177168127Y-80880390D02*
X177130032Y-80918485D01*
X177130032Y-80918485D02*
X177091937Y-80994676D01*
X177091937Y-80994676D02*
X177053842Y-81147057D01*
X177053842Y-81147057D02*
X177053842Y-81337533D01*
X177053842Y-81337533D02*
X177091937Y-81489914D01*
X177091937Y-81489914D02*
X177130032Y-81566104D01*
X177130032Y-81566104D02*
X177168127Y-81604200D01*
X177168127Y-81604200D02*
X177244318Y-81642295D01*
X177244318Y-81642295D02*
X177320508Y-81642295D01*
X177320508Y-81642295D02*
X177396699Y-81604200D01*
X177396699Y-81604200D02*
X177434794Y-81566104D01*
X177434794Y-81566104D02*
X177472889Y-81489914D01*
X177472889Y-81489914D02*
X177510985Y-81337533D01*
X177510985Y-81337533D02*
X177510985Y-81147057D01*
X177510985Y-81147057D02*
X177472889Y-80994676D01*
X177472889Y-80994676D02*
X177434794Y-80918485D01*
X177434794Y-80918485D02*
X177396699Y-80880390D01*
X177396699Y-80880390D02*
X177320508Y-80842295D01*
X176139556Y-80804200D02*
X176825270Y-81832771D01*
X175872889Y-81642295D02*
X175872889Y-80842295D01*
X175872889Y-80842295D02*
X175682413Y-80842295D01*
X175682413Y-80842295D02*
X175568127Y-80880390D01*
X175568127Y-80880390D02*
X175491937Y-80956580D01*
X175491937Y-80956580D02*
X175453842Y-81032771D01*
X175453842Y-81032771D02*
X175415746Y-81185152D01*
X175415746Y-81185152D02*
X175415746Y-81299438D01*
X175415746Y-81299438D02*
X175453842Y-81451819D01*
X175453842Y-81451819D02*
X175491937Y-81528009D01*
X175491937Y-81528009D02*
X175568127Y-81604200D01*
X175568127Y-81604200D02*
X175682413Y-81642295D01*
X175682413Y-81642295D02*
X175872889Y-81642295D01*
X175149080Y-80842295D02*
X174653842Y-80842295D01*
X174653842Y-80842295D02*
X174920508Y-81147057D01*
X174920508Y-81147057D02*
X174806223Y-81147057D01*
X174806223Y-81147057D02*
X174730032Y-81185152D01*
X174730032Y-81185152D02*
X174691937Y-81223247D01*
X174691937Y-81223247D02*
X174653842Y-81299438D01*
X174653842Y-81299438D02*
X174653842Y-81489914D01*
X174653842Y-81489914D02*
X174691937Y-81566104D01*
X174691937Y-81566104D02*
X174730032Y-81604200D01*
X174730032Y-81604200D02*
X174806223Y-81642295D01*
X174806223Y-81642295D02*
X175034794Y-81642295D01*
X175034794Y-81642295D02*
X175110985Y-81604200D01*
X175110985Y-81604200D02*
X175149080Y-81566104D01*
X175488523Y-88500390D02*
X175564713Y-88462295D01*
X175564713Y-88462295D02*
X175678999Y-88462295D01*
X175678999Y-88462295D02*
X175793285Y-88500390D01*
X175793285Y-88500390D02*
X175869475Y-88576580D01*
X175869475Y-88576580D02*
X175907570Y-88652771D01*
X175907570Y-88652771D02*
X175945666Y-88805152D01*
X175945666Y-88805152D02*
X175945666Y-88919438D01*
X175945666Y-88919438D02*
X175907570Y-89071819D01*
X175907570Y-89071819D02*
X175869475Y-89148009D01*
X175869475Y-89148009D02*
X175793285Y-89224200D01*
X175793285Y-89224200D02*
X175678999Y-89262295D01*
X175678999Y-89262295D02*
X175602808Y-89262295D01*
X175602808Y-89262295D02*
X175488523Y-89224200D01*
X175488523Y-89224200D02*
X175450427Y-89186104D01*
X175450427Y-89186104D02*
X175450427Y-88919438D01*
X175450427Y-88919438D02*
X175602808Y-88919438D01*
X175107570Y-89262295D02*
X175107570Y-88462295D01*
X175107570Y-88462295D02*
X174650427Y-89262295D01*
X174650427Y-89262295D02*
X174650427Y-88462295D01*
X174269475Y-89262295D02*
X174269475Y-88462295D01*
X174269475Y-88462295D02*
X174078999Y-88462295D01*
X174078999Y-88462295D02*
X173964713Y-88500390D01*
X173964713Y-88500390D02*
X173888523Y-88576580D01*
X173888523Y-88576580D02*
X173850428Y-88652771D01*
X173850428Y-88652771D02*
X173812332Y-88805152D01*
X173812332Y-88805152D02*
X173812332Y-88919438D01*
X173812332Y-88919438D02*
X173850428Y-89071819D01*
X173850428Y-89071819D02*
X173888523Y-89148009D01*
X173888523Y-89148009D02*
X173964713Y-89224200D01*
X173964713Y-89224200D02*
X174078999Y-89262295D01*
X174078999Y-89262295D02*
X174269475Y-89262295D01*
X186067666Y-93923247D02*
X186334332Y-93923247D01*
X186334332Y-94342295D02*
X186334332Y-93542295D01*
X186334332Y-93542295D02*
X185953380Y-93542295D01*
X185267666Y-93542295D02*
X185648618Y-93542295D01*
X185648618Y-93542295D02*
X185686714Y-93923247D01*
X185686714Y-93923247D02*
X185648618Y-93885152D01*
X185648618Y-93885152D02*
X185572428Y-93847057D01*
X185572428Y-93847057D02*
X185381952Y-93847057D01*
X185381952Y-93847057D02*
X185305761Y-93885152D01*
X185305761Y-93885152D02*
X185267666Y-93923247D01*
X185267666Y-93923247D02*
X185229571Y-93999438D01*
X185229571Y-93999438D02*
X185229571Y-94189914D01*
X185229571Y-94189914D02*
X185267666Y-94266104D01*
X185267666Y-94266104D02*
X185305761Y-94304200D01*
X185305761Y-94304200D02*
X185381952Y-94342295D01*
X185381952Y-94342295D02*
X185572428Y-94342295D01*
X185572428Y-94342295D02*
X185648618Y-94304200D01*
X185648618Y-94304200D02*
X185686714Y-94266104D01*
X175202809Y-106623247D02*
X175088523Y-106661342D01*
X175088523Y-106661342D02*
X175050428Y-106699438D01*
X175050428Y-106699438D02*
X175012332Y-106775628D01*
X175012332Y-106775628D02*
X175012332Y-106889914D01*
X175012332Y-106889914D02*
X175050428Y-106966104D01*
X175050428Y-106966104D02*
X175088523Y-107004200D01*
X175088523Y-107004200D02*
X175164713Y-107042295D01*
X175164713Y-107042295D02*
X175469475Y-107042295D01*
X175469475Y-107042295D02*
X175469475Y-106242295D01*
X175469475Y-106242295D02*
X175202809Y-106242295D01*
X175202809Y-106242295D02*
X175126618Y-106280390D01*
X175126618Y-106280390D02*
X175088523Y-106318485D01*
X175088523Y-106318485D02*
X175050428Y-106394676D01*
X175050428Y-106394676D02*
X175050428Y-106470866D01*
X175050428Y-106470866D02*
X175088523Y-106547057D01*
X175088523Y-106547057D02*
X175126618Y-106585152D01*
X175126618Y-106585152D02*
X175202809Y-106623247D01*
X175202809Y-106623247D02*
X175469475Y-106623247D01*
X174326618Y-106508961D02*
X174326618Y-107042295D01*
X174517094Y-106204200D02*
X174707571Y-106775628D01*
X174707571Y-106775628D02*
X174212332Y-106775628D01*
X186124809Y-101543247D02*
X186010523Y-101581342D01*
X186010523Y-101581342D02*
X185972428Y-101619438D01*
X185972428Y-101619438D02*
X185934332Y-101695628D01*
X185934332Y-101695628D02*
X185934332Y-101809914D01*
X185934332Y-101809914D02*
X185972428Y-101886104D01*
X185972428Y-101886104D02*
X186010523Y-101924200D01*
X186010523Y-101924200D02*
X186086713Y-101962295D01*
X186086713Y-101962295D02*
X186391475Y-101962295D01*
X186391475Y-101962295D02*
X186391475Y-101162295D01*
X186391475Y-101162295D02*
X186124809Y-101162295D01*
X186124809Y-101162295D02*
X186048618Y-101200390D01*
X186048618Y-101200390D02*
X186010523Y-101238485D01*
X186010523Y-101238485D02*
X185972428Y-101314676D01*
X185972428Y-101314676D02*
X185972428Y-101390866D01*
X185972428Y-101390866D02*
X186010523Y-101467057D01*
X186010523Y-101467057D02*
X186048618Y-101505152D01*
X186048618Y-101505152D02*
X186124809Y-101543247D01*
X186124809Y-101543247D02*
X186391475Y-101543247D01*
X185172428Y-101962295D02*
X185629571Y-101962295D01*
X185400999Y-101962295D02*
X185400999Y-101162295D01*
X185400999Y-101162295D02*
X185477190Y-101276580D01*
X185477190Y-101276580D02*
X185553380Y-101352771D01*
X185553380Y-101352771D02*
X185629571Y-101390866D01*
X175469475Y-91802295D02*
X175469475Y-91002295D01*
X175469475Y-91002295D02*
X175278999Y-91002295D01*
X175278999Y-91002295D02*
X175164713Y-91040390D01*
X175164713Y-91040390D02*
X175088523Y-91116580D01*
X175088523Y-91116580D02*
X175050428Y-91192771D01*
X175050428Y-91192771D02*
X175012332Y-91345152D01*
X175012332Y-91345152D02*
X175012332Y-91459438D01*
X175012332Y-91459438D02*
X175050428Y-91611819D01*
X175050428Y-91611819D02*
X175088523Y-91688009D01*
X175088523Y-91688009D02*
X175164713Y-91764200D01*
X175164713Y-91764200D02*
X175278999Y-91802295D01*
X175278999Y-91802295D02*
X175469475Y-91802295D01*
X174250428Y-91802295D02*
X174707571Y-91802295D01*
X174478999Y-91802295D02*
X174478999Y-91002295D01*
X174478999Y-91002295D02*
X174555190Y-91116580D01*
X174555190Y-91116580D02*
X174631380Y-91192771D01*
X174631380Y-91192771D02*
X174707571Y-91230866D01*
X186067666Y-96463247D02*
X186334332Y-96463247D01*
X186334332Y-96882295D02*
X186334332Y-96082295D01*
X186334332Y-96082295D02*
X185953380Y-96082295D01*
X185305761Y-96082295D02*
X185458142Y-96082295D01*
X185458142Y-96082295D02*
X185534333Y-96120390D01*
X185534333Y-96120390D02*
X185572428Y-96158485D01*
X185572428Y-96158485D02*
X185648618Y-96272771D01*
X185648618Y-96272771D02*
X185686714Y-96425152D01*
X185686714Y-96425152D02*
X185686714Y-96729914D01*
X185686714Y-96729914D02*
X185648618Y-96806104D01*
X185648618Y-96806104D02*
X185610523Y-96844200D01*
X185610523Y-96844200D02*
X185534333Y-96882295D01*
X185534333Y-96882295D02*
X185381952Y-96882295D01*
X185381952Y-96882295D02*
X185305761Y-96844200D01*
X185305761Y-96844200D02*
X185267666Y-96806104D01*
X185267666Y-96806104D02*
X185229571Y-96729914D01*
X185229571Y-96729914D02*
X185229571Y-96539438D01*
X185229571Y-96539438D02*
X185267666Y-96463247D01*
X185267666Y-96463247D02*
X185305761Y-96425152D01*
X185305761Y-96425152D02*
X185381952Y-96387057D01*
X185381952Y-96387057D02*
X185534333Y-96387057D01*
X185534333Y-96387057D02*
X185610523Y-96425152D01*
X185610523Y-96425152D02*
X185648618Y-96463247D01*
X185648618Y-96463247D02*
X185686714Y-96539438D01*
X175488523Y-85960390D02*
X175564713Y-85922295D01*
X175564713Y-85922295D02*
X175678999Y-85922295D01*
X175678999Y-85922295D02*
X175793285Y-85960390D01*
X175793285Y-85960390D02*
X175869475Y-86036580D01*
X175869475Y-86036580D02*
X175907570Y-86112771D01*
X175907570Y-86112771D02*
X175945666Y-86265152D01*
X175945666Y-86265152D02*
X175945666Y-86379438D01*
X175945666Y-86379438D02*
X175907570Y-86531819D01*
X175907570Y-86531819D02*
X175869475Y-86608009D01*
X175869475Y-86608009D02*
X175793285Y-86684200D01*
X175793285Y-86684200D02*
X175678999Y-86722295D01*
X175678999Y-86722295D02*
X175602808Y-86722295D01*
X175602808Y-86722295D02*
X175488523Y-86684200D01*
X175488523Y-86684200D02*
X175450427Y-86646104D01*
X175450427Y-86646104D02*
X175450427Y-86379438D01*
X175450427Y-86379438D02*
X175602808Y-86379438D01*
X175107570Y-86722295D02*
X175107570Y-85922295D01*
X175107570Y-85922295D02*
X174650427Y-86722295D01*
X174650427Y-86722295D02*
X174650427Y-85922295D01*
X174269475Y-86722295D02*
X174269475Y-85922295D01*
X174269475Y-85922295D02*
X174078999Y-85922295D01*
X174078999Y-85922295D02*
X173964713Y-85960390D01*
X173964713Y-85960390D02*
X173888523Y-86036580D01*
X173888523Y-86036580D02*
X173850428Y-86112771D01*
X173850428Y-86112771D02*
X173812332Y-86265152D01*
X173812332Y-86265152D02*
X173812332Y-86379438D01*
X173812332Y-86379438D02*
X173850428Y-86531819D01*
X173850428Y-86531819D02*
X173888523Y-86608009D01*
X173888523Y-86608009D02*
X173964713Y-86684200D01*
X173964713Y-86684200D02*
X174078999Y-86722295D01*
X174078999Y-86722295D02*
X174269475Y-86722295D01*
X175469475Y-96882295D02*
X175469475Y-96082295D01*
X175469475Y-96082295D02*
X175278999Y-96082295D01*
X175278999Y-96082295D02*
X175164713Y-96120390D01*
X175164713Y-96120390D02*
X175088523Y-96196580D01*
X175088523Y-96196580D02*
X175050428Y-96272771D01*
X175050428Y-96272771D02*
X175012332Y-96425152D01*
X175012332Y-96425152D02*
X175012332Y-96539438D01*
X175012332Y-96539438D02*
X175050428Y-96691819D01*
X175050428Y-96691819D02*
X175088523Y-96768009D01*
X175088523Y-96768009D02*
X175164713Y-96844200D01*
X175164713Y-96844200D02*
X175278999Y-96882295D01*
X175278999Y-96882295D02*
X175469475Y-96882295D01*
X174326618Y-96348961D02*
X174326618Y-96882295D01*
X174517094Y-96044200D02*
X174707571Y-96615628D01*
X174707571Y-96615628D02*
X174212332Y-96615628D01*
X178390475Y-108012295D02*
X178390475Y-107212295D01*
X178390475Y-107212295D02*
X178199999Y-107212295D01*
X178199999Y-107212295D02*
X178085713Y-107250390D01*
X178085713Y-107250390D02*
X178009523Y-107326580D01*
X178009523Y-107326580D02*
X177971428Y-107402771D01*
X177971428Y-107402771D02*
X177933332Y-107555152D01*
X177933332Y-107555152D02*
X177933332Y-107669438D01*
X177933332Y-107669438D02*
X177971428Y-107821819D01*
X177971428Y-107821819D02*
X178009523Y-107898009D01*
X178009523Y-107898009D02*
X178085713Y-107974200D01*
X178085713Y-107974200D02*
X178199999Y-108012295D01*
X178199999Y-108012295D02*
X178390475Y-108012295D01*
X177209523Y-107212295D02*
X177590475Y-107212295D01*
X177590475Y-107212295D02*
X177628571Y-107593247D01*
X177628571Y-107593247D02*
X177590475Y-107555152D01*
X177590475Y-107555152D02*
X177514285Y-107517057D01*
X177514285Y-107517057D02*
X177323809Y-107517057D01*
X177323809Y-107517057D02*
X177247618Y-107555152D01*
X177247618Y-107555152D02*
X177209523Y-107593247D01*
X177209523Y-107593247D02*
X177171428Y-107669438D01*
X177171428Y-107669438D02*
X177171428Y-107859914D01*
X177171428Y-107859914D02*
X177209523Y-107936104D01*
X177209523Y-107936104D02*
X177247618Y-107974200D01*
X177247618Y-107974200D02*
X177323809Y-108012295D01*
X177323809Y-108012295D02*
X177514285Y-108012295D01*
X177514285Y-108012295D02*
X177590475Y-107974200D01*
X177590475Y-107974200D02*
X177628571Y-107936104D01*
X183146666Y-107593247D02*
X183413332Y-107593247D01*
X183413332Y-108012295D02*
X183413332Y-107212295D01*
X183413332Y-107212295D02*
X183032380Y-107212295D01*
X182308571Y-108012295D02*
X182765714Y-108012295D01*
X182537142Y-108012295D02*
X182537142Y-107212295D01*
X182537142Y-107212295D02*
X182613333Y-107326580D01*
X182613333Y-107326580D02*
X182689523Y-107402771D01*
X182689523Y-107402771D02*
X182765714Y-107440866D01*
X174176149Y-108114543D02*
X174081868Y-108067403D01*
X174081868Y-108067403D02*
X174034728Y-108067403D01*
X174034728Y-108067403D02*
X173964017Y-108090973D01*
X173964017Y-108090973D02*
X173893307Y-108161683D01*
X173893307Y-108161683D02*
X173869736Y-108232394D01*
X173869736Y-108232394D02*
X173869736Y-108279535D01*
X173869736Y-108279535D02*
X173893307Y-108350245D01*
X173893307Y-108350245D02*
X174081868Y-108538807D01*
X174081868Y-108538807D02*
X174576843Y-108043832D01*
X174576843Y-108043832D02*
X174411852Y-107878841D01*
X174411852Y-107878841D02*
X174341141Y-107855271D01*
X174341141Y-107855271D02*
X174294000Y-107855271D01*
X174294000Y-107855271D02*
X174223290Y-107878841D01*
X174223290Y-107878841D02*
X174176149Y-107925981D01*
X174176149Y-107925981D02*
X174152579Y-107996692D01*
X174152579Y-107996692D02*
X174152579Y-108043832D01*
X174152579Y-108043832D02*
X174176149Y-108114543D01*
X174176149Y-108114543D02*
X174341141Y-108279535D01*
X173846166Y-107313155D02*
X174081868Y-107548858D01*
X174081868Y-107548858D02*
X173869736Y-107808130D01*
X173869736Y-107808130D02*
X173869736Y-107760990D01*
X173869736Y-107760990D02*
X173846166Y-107690279D01*
X173846166Y-107690279D02*
X173728315Y-107572428D01*
X173728315Y-107572428D02*
X173657604Y-107548858D01*
X173657604Y-107548858D02*
X173610464Y-107548858D01*
X173610464Y-107548858D02*
X173539753Y-107572428D01*
X173539753Y-107572428D02*
X173421902Y-107690279D01*
X173421902Y-107690279D02*
X173398332Y-107760990D01*
X173398332Y-107760990D02*
X173398332Y-107808130D01*
X173398332Y-107808130D02*
X173421902Y-107878841D01*
X173421902Y-107878841D02*
X173539753Y-107996692D01*
X173539753Y-107996692D02*
X173610464Y-108020262D01*
X173610464Y-108020262D02*
X173657604Y-108020262D01*
X185913333Y-86664200D02*
X185799047Y-86702295D01*
X185799047Y-86702295D02*
X185608571Y-86702295D01*
X185608571Y-86702295D02*
X185532380Y-86664200D01*
X185532380Y-86664200D02*
X185494285Y-86626104D01*
X185494285Y-86626104D02*
X185456190Y-86549914D01*
X185456190Y-86549914D02*
X185456190Y-86473723D01*
X185456190Y-86473723D02*
X185494285Y-86397533D01*
X185494285Y-86397533D02*
X185532380Y-86359438D01*
X185532380Y-86359438D02*
X185608571Y-86321342D01*
X185608571Y-86321342D02*
X185760952Y-86283247D01*
X185760952Y-86283247D02*
X185837142Y-86245152D01*
X185837142Y-86245152D02*
X185875237Y-86207057D01*
X185875237Y-86207057D02*
X185913333Y-86130866D01*
X185913333Y-86130866D02*
X185913333Y-86054676D01*
X185913333Y-86054676D02*
X185875237Y-85978485D01*
X185875237Y-85978485D02*
X185837142Y-85940390D01*
X185837142Y-85940390D02*
X185760952Y-85902295D01*
X185760952Y-85902295D02*
X185570475Y-85902295D01*
X185570475Y-85902295D02*
X185456190Y-85940390D01*
X185227618Y-85902295D02*
X184770475Y-85902295D01*
X184999047Y-86702295D02*
X184999047Y-85902295D01*
X175431380Y-104083247D02*
X175164714Y-104083247D01*
X175050428Y-104502295D02*
X175431380Y-104502295D01*
X175431380Y-104502295D02*
X175431380Y-103702295D01*
X175431380Y-103702295D02*
X175050428Y-103702295D01*
X174364713Y-103702295D02*
X174517094Y-103702295D01*
X174517094Y-103702295D02*
X174593285Y-103740390D01*
X174593285Y-103740390D02*
X174631380Y-103778485D01*
X174631380Y-103778485D02*
X174707570Y-103892771D01*
X174707570Y-103892771D02*
X174745666Y-104045152D01*
X174745666Y-104045152D02*
X174745666Y-104349914D01*
X174745666Y-104349914D02*
X174707570Y-104426104D01*
X174707570Y-104426104D02*
X174669475Y-104464200D01*
X174669475Y-104464200D02*
X174593285Y-104502295D01*
X174593285Y-104502295D02*
X174440904Y-104502295D01*
X174440904Y-104502295D02*
X174364713Y-104464200D01*
X174364713Y-104464200D02*
X174326618Y-104426104D01*
X174326618Y-104426104D02*
X174288523Y-104349914D01*
X174288523Y-104349914D02*
X174288523Y-104159438D01*
X174288523Y-104159438D02*
X174326618Y-104083247D01*
X174326618Y-104083247D02*
X174364713Y-104045152D01*
X174364713Y-104045152D02*
X174440904Y-104007057D01*
X174440904Y-104007057D02*
X174593285Y-104007057D01*
X174593285Y-104007057D02*
X174669475Y-104045152D01*
X174669475Y-104045152D02*
X174707570Y-104083247D01*
X174707570Y-104083247D02*
X174745666Y-104159438D01*
X186410523Y-83420390D02*
X186486713Y-83382295D01*
X186486713Y-83382295D02*
X186600999Y-83382295D01*
X186600999Y-83382295D02*
X186715285Y-83420390D01*
X186715285Y-83420390D02*
X186791475Y-83496580D01*
X186791475Y-83496580D02*
X186829570Y-83572771D01*
X186829570Y-83572771D02*
X186867666Y-83725152D01*
X186867666Y-83725152D02*
X186867666Y-83839438D01*
X186867666Y-83839438D02*
X186829570Y-83991819D01*
X186829570Y-83991819D02*
X186791475Y-84068009D01*
X186791475Y-84068009D02*
X186715285Y-84144200D01*
X186715285Y-84144200D02*
X186600999Y-84182295D01*
X186600999Y-84182295D02*
X186524808Y-84182295D01*
X186524808Y-84182295D02*
X186410523Y-84144200D01*
X186410523Y-84144200D02*
X186372427Y-84106104D01*
X186372427Y-84106104D02*
X186372427Y-83839438D01*
X186372427Y-83839438D02*
X186524808Y-83839438D01*
X186029570Y-84182295D02*
X186029570Y-83382295D01*
X186029570Y-83382295D02*
X185572427Y-84182295D01*
X185572427Y-84182295D02*
X185572427Y-83382295D01*
X185191475Y-84182295D02*
X185191475Y-83382295D01*
X185191475Y-83382295D02*
X185000999Y-83382295D01*
X185000999Y-83382295D02*
X184886713Y-83420390D01*
X184886713Y-83420390D02*
X184810523Y-83496580D01*
X184810523Y-83496580D02*
X184772428Y-83572771D01*
X184772428Y-83572771D02*
X184734332Y-83725152D01*
X184734332Y-83725152D02*
X184734332Y-83839438D01*
X184734332Y-83839438D02*
X184772428Y-83991819D01*
X184772428Y-83991819D02*
X184810523Y-84068009D01*
X184810523Y-84068009D02*
X184886713Y-84144200D01*
X184886713Y-84144200D02*
X185000999Y-84182295D01*
X185000999Y-84182295D02*
X185191475Y-84182295D01*
X186124809Y-81223247D02*
X186010523Y-81261342D01*
X186010523Y-81261342D02*
X185972428Y-81299438D01*
X185972428Y-81299438D02*
X185934332Y-81375628D01*
X185934332Y-81375628D02*
X185934332Y-81489914D01*
X185934332Y-81489914D02*
X185972428Y-81566104D01*
X185972428Y-81566104D02*
X186010523Y-81604200D01*
X186010523Y-81604200D02*
X186086713Y-81642295D01*
X186086713Y-81642295D02*
X186391475Y-81642295D01*
X186391475Y-81642295D02*
X186391475Y-80842295D01*
X186391475Y-80842295D02*
X186124809Y-80842295D01*
X186124809Y-80842295D02*
X186048618Y-80880390D01*
X186048618Y-80880390D02*
X186010523Y-80918485D01*
X186010523Y-80918485D02*
X185972428Y-80994676D01*
X185972428Y-80994676D02*
X185972428Y-81070866D01*
X185972428Y-81070866D02*
X186010523Y-81147057D01*
X186010523Y-81147057D02*
X186048618Y-81185152D01*
X186048618Y-81185152D02*
X186124809Y-81223247D01*
X186124809Y-81223247D02*
X186391475Y-81223247D01*
X185439094Y-80842295D02*
X185362904Y-80842295D01*
X185362904Y-80842295D02*
X185286713Y-80880390D01*
X185286713Y-80880390D02*
X185248618Y-80918485D01*
X185248618Y-80918485D02*
X185210523Y-80994676D01*
X185210523Y-80994676D02*
X185172428Y-81147057D01*
X185172428Y-81147057D02*
X185172428Y-81337533D01*
X185172428Y-81337533D02*
X185210523Y-81489914D01*
X185210523Y-81489914D02*
X185248618Y-81566104D01*
X185248618Y-81566104D02*
X185286713Y-81604200D01*
X185286713Y-81604200D02*
X185362904Y-81642295D01*
X185362904Y-81642295D02*
X185439094Y-81642295D01*
X185439094Y-81642295D02*
X185515285Y-81604200D01*
X185515285Y-81604200D02*
X185553380Y-81566104D01*
X185553380Y-81566104D02*
X185591475Y-81489914D01*
X185591475Y-81489914D02*
X185629571Y-81337533D01*
X185629571Y-81337533D02*
X185629571Y-81147057D01*
X185629571Y-81147057D02*
X185591475Y-80994676D01*
X185591475Y-80994676D02*
X185553380Y-80918485D01*
X185553380Y-80918485D02*
X185515285Y-80880390D01*
X185515285Y-80880390D02*
X185439094Y-80842295D01*
X175469475Y-94342295D02*
X175469475Y-93542295D01*
X175469475Y-93542295D02*
X175278999Y-93542295D01*
X175278999Y-93542295D02*
X175164713Y-93580390D01*
X175164713Y-93580390D02*
X175088523Y-93656580D01*
X175088523Y-93656580D02*
X175050428Y-93732771D01*
X175050428Y-93732771D02*
X175012332Y-93885152D01*
X175012332Y-93885152D02*
X175012332Y-93999438D01*
X175012332Y-93999438D02*
X175050428Y-94151819D01*
X175050428Y-94151819D02*
X175088523Y-94228009D01*
X175088523Y-94228009D02*
X175164713Y-94304200D01*
X175164713Y-94304200D02*
X175278999Y-94342295D01*
X175278999Y-94342295D02*
X175469475Y-94342295D01*
X174517094Y-93542295D02*
X174440904Y-93542295D01*
X174440904Y-93542295D02*
X174364713Y-93580390D01*
X174364713Y-93580390D02*
X174326618Y-93618485D01*
X174326618Y-93618485D02*
X174288523Y-93694676D01*
X174288523Y-93694676D02*
X174250428Y-93847057D01*
X174250428Y-93847057D02*
X174250428Y-94037533D01*
X174250428Y-94037533D02*
X174288523Y-94189914D01*
X174288523Y-94189914D02*
X174326618Y-94266104D01*
X174326618Y-94266104D02*
X174364713Y-94304200D01*
X174364713Y-94304200D02*
X174440904Y-94342295D01*
X174440904Y-94342295D02*
X174517094Y-94342295D01*
X174517094Y-94342295D02*
X174593285Y-94304200D01*
X174593285Y-94304200D02*
X174631380Y-94266104D01*
X174631380Y-94266104D02*
X174669475Y-94189914D01*
X174669475Y-94189914D02*
X174707571Y-94037533D01*
X174707571Y-94037533D02*
X174707571Y-93847057D01*
X174707571Y-93847057D02*
X174669475Y-93694676D01*
X174669475Y-93694676D02*
X174631380Y-93618485D01*
X174631380Y-93618485D02*
X174593285Y-93580390D01*
X174593285Y-93580390D02*
X174517094Y-93542295D01*
X183816190Y-119344819D02*
X183816190Y-118678152D01*
X183816190Y-118868628D02*
X183768571Y-118773390D01*
X183768571Y-118773390D02*
X183720952Y-118725771D01*
X183720952Y-118725771D02*
X183625714Y-118678152D01*
X183625714Y-118678152D02*
X183530476Y-118678152D01*
X183197142Y-119344819D02*
X183197142Y-118678152D01*
X183197142Y-118344819D02*
X183244761Y-118392438D01*
X183244761Y-118392438D02*
X183197142Y-118440057D01*
X183197142Y-118440057D02*
X183149523Y-118392438D01*
X183149523Y-118392438D02*
X183197142Y-118344819D01*
X183197142Y-118344819D02*
X183197142Y-118440057D01*
X182292381Y-118678152D02*
X182292381Y-119487676D01*
X182292381Y-119487676D02*
X182340000Y-119582914D01*
X182340000Y-119582914D02*
X182387619Y-119630533D01*
X182387619Y-119630533D02*
X182482857Y-119678152D01*
X182482857Y-119678152D02*
X182625714Y-119678152D01*
X182625714Y-119678152D02*
X182720952Y-119630533D01*
X182292381Y-119297200D02*
X182387619Y-119344819D01*
X182387619Y-119344819D02*
X182578095Y-119344819D01*
X182578095Y-119344819D02*
X182673333Y-119297200D01*
X182673333Y-119297200D02*
X182720952Y-119249580D01*
X182720952Y-119249580D02*
X182768571Y-119154342D01*
X182768571Y-119154342D02*
X182768571Y-118868628D01*
X182768571Y-118868628D02*
X182720952Y-118773390D01*
X182720952Y-118773390D02*
X182673333Y-118725771D01*
X182673333Y-118725771D02*
X182578095Y-118678152D01*
X182578095Y-118678152D02*
X182387619Y-118678152D01*
X182387619Y-118678152D02*
X182292381Y-118725771D01*
X181816190Y-119344819D02*
X181816190Y-118344819D01*
X181387619Y-119344819D02*
X181387619Y-118821009D01*
X181387619Y-118821009D02*
X181435238Y-118725771D01*
X181435238Y-118725771D02*
X181530476Y-118678152D01*
X181530476Y-118678152D02*
X181673333Y-118678152D01*
X181673333Y-118678152D02*
X181768571Y-118725771D01*
X181768571Y-118725771D02*
X181816190Y-118773390D01*
X181054285Y-118678152D02*
X180673333Y-118678152D01*
X180911428Y-118344819D02*
X180911428Y-119201961D01*
X180911428Y-119201961D02*
X180863809Y-119297200D01*
X180863809Y-119297200D02*
X180768571Y-119344819D01*
X180768571Y-119344819D02*
X180673333Y-119344819D01*
X179435237Y-119344819D02*
X179530475Y-119297200D01*
X179530475Y-119297200D02*
X179578094Y-119249580D01*
X179578094Y-119249580D02*
X179625713Y-119154342D01*
X179625713Y-119154342D02*
X179625713Y-118868628D01*
X179625713Y-118868628D02*
X179578094Y-118773390D01*
X179578094Y-118773390D02*
X179530475Y-118725771D01*
X179530475Y-118725771D02*
X179435237Y-118678152D01*
X179435237Y-118678152D02*
X179292380Y-118678152D01*
X179292380Y-118678152D02*
X179197142Y-118725771D01*
X179197142Y-118725771D02*
X179149523Y-118773390D01*
X179149523Y-118773390D02*
X179101904Y-118868628D01*
X179101904Y-118868628D02*
X179101904Y-119154342D01*
X179101904Y-119154342D02*
X179149523Y-119249580D01*
X179149523Y-119249580D02*
X179197142Y-119297200D01*
X179197142Y-119297200D02*
X179292380Y-119344819D01*
X179292380Y-119344819D02*
X179435237Y-119344819D01*
X178530475Y-119344819D02*
X178625713Y-119297200D01*
X178625713Y-119297200D02*
X178673332Y-119201961D01*
X178673332Y-119201961D02*
X178673332Y-118344819D01*
X177768570Y-119297200D02*
X177863808Y-119344819D01*
X177863808Y-119344819D02*
X178054284Y-119344819D01*
X178054284Y-119344819D02*
X178149522Y-119297200D01*
X178149522Y-119297200D02*
X178197141Y-119201961D01*
X178197141Y-119201961D02*
X178197141Y-118821009D01*
X178197141Y-118821009D02*
X178149522Y-118725771D01*
X178149522Y-118725771D02*
X178054284Y-118678152D01*
X178054284Y-118678152D02*
X177863808Y-118678152D01*
X177863808Y-118678152D02*
X177768570Y-118725771D01*
X177768570Y-118725771D02*
X177720951Y-118821009D01*
X177720951Y-118821009D02*
X177720951Y-118916247D01*
X177720951Y-118916247D02*
X178197141Y-119011485D01*
X176863808Y-119344819D02*
X176863808Y-118344819D01*
X176863808Y-119297200D02*
X176959046Y-119344819D01*
X176959046Y-119344819D02*
X177149522Y-119344819D01*
X177149522Y-119344819D02*
X177244760Y-119297200D01*
X177244760Y-119297200D02*
X177292379Y-119249580D01*
X177292379Y-119249580D02*
X177339998Y-119154342D01*
X177339998Y-119154342D02*
X177339998Y-118868628D01*
X177339998Y-118868628D02*
X177292379Y-118773390D01*
X177292379Y-118773390D02*
X177244760Y-118725771D01*
X177244760Y-118725771D02*
X177149522Y-118678152D01*
X177149522Y-118678152D02*
X176959046Y-118678152D01*
X176959046Y-118678152D02*
X176863808Y-118725771D01*
D11*
%TO.C,U2*%
X171450000Y-77470000D02*
X171450000Y-110490000D01*
X171450000Y-110490000D02*
X189230000Y-110490000D01*
X173990000Y-80010000D02*
X171450000Y-80010000D01*
X173990000Y-80010000D02*
X173990000Y-82550000D01*
X173990000Y-82550000D02*
X171450000Y-82550000D01*
X189230000Y-77470000D02*
X171450000Y-77470000D01*
X189230000Y-110490000D02*
X189230000Y-77470000D01*
D10*
X186684635Y-85999030D02*
X186184635Y-85999030D01*
X186184635Y-85899030D01*
X186684635Y-85899030D01*
X186684635Y-85999030D01*
G36*
X186684635Y-85999030D02*
G01*
X186184635Y-85999030D01*
X186184635Y-85899030D01*
X186684635Y-85899030D01*
X186684635Y-85999030D01*
G37*
X186284635Y-86199030D02*
X186184635Y-86199030D01*
X186184635Y-85899030D01*
X186284635Y-85899030D01*
X186284635Y-86199030D01*
G36*
X186284635Y-86199030D02*
G01*
X186184635Y-86199030D01*
X186184635Y-85899030D01*
X186284635Y-85899030D01*
X186284635Y-86199030D01*
G37*
X186284635Y-86699030D02*
X186184635Y-86699030D01*
X186184635Y-86499030D01*
X186284635Y-86499030D01*
X186284635Y-86699030D01*
G36*
X186284635Y-86699030D02*
G01*
X186184635Y-86699030D01*
X186184635Y-86499030D01*
X186284635Y-86499030D01*
X186284635Y-86699030D01*
G37*
X186484635Y-86399030D02*
X186384635Y-86399030D01*
X186384635Y-86299030D01*
X186484635Y-86299030D01*
X186484635Y-86399030D01*
G36*
X186484635Y-86399030D02*
G01*
X186384635Y-86399030D01*
X186384635Y-86299030D01*
X186484635Y-86299030D01*
X186484635Y-86399030D01*
G37*
X186684635Y-86699030D02*
X186584635Y-86699030D01*
X186584635Y-85899030D01*
X186684635Y-85899030D01*
X186684635Y-86699030D01*
G36*
X186684635Y-86699030D02*
G01*
X186584635Y-86699030D01*
X186584635Y-85899030D01*
X186684635Y-85899030D01*
X186684635Y-86699030D01*
G37*
%TO.C,J1*%
X175892500Y-126490000D02*
X175892500Y-132590000D01*
X187992500Y-126490000D02*
X175892500Y-126490000D01*
X187992500Y-126490000D02*
X187992500Y-132590000D01*
X187992500Y-126740000D02*
X189992500Y-126740000D01*
X187992500Y-132340000D02*
X189992500Y-132340000D01*
X187992500Y-132590000D02*
X175892500Y-132590000D01*
X189992500Y-126740000D02*
X189992500Y-132340000D01*
%TD*%
D12*
%TO.C,U2*%
X172720000Y-81280000D03*
D13*
X172720000Y-83820000D03*
X172720000Y-86360000D03*
X172720000Y-88900000D03*
X172720000Y-91440000D03*
X172720000Y-93980000D03*
X172720000Y-96520000D03*
X172720000Y-99060000D03*
X172720000Y-101600000D03*
X172720000Y-104140000D03*
X172720000Y-106680000D03*
X172948600Y-109220000D03*
X187960000Y-109220000D03*
X187960000Y-106680000D03*
X187960000Y-104140000D03*
X187960000Y-101600000D03*
X187960000Y-99060000D03*
X187960000Y-96520000D03*
X187960000Y-93980000D03*
X187960000Y-91440000D03*
X187960000Y-88900000D03*
X187960000Y-86360000D03*
X187960000Y-83820000D03*
X187960000Y-81280000D03*
X175260000Y-109220000D03*
X177800000Y-109220000D03*
X180340000Y-109220000D03*
X182880000Y-109220000D03*
X185420000Y-109220000D03*
%TD*%
D14*
%TO.C,OL2*%
X184150000Y-116840000D03*
X181610000Y-116840000D03*
X179070000Y-116840000D03*
X176530000Y-116840000D03*
%TD*%
M02*
