M48
; DRILL file {KiCad 8.0.3} date 2024-07-02T22:23:46+0100
; FORMAT={-:-/ absolute / metric / decimal}
; #@! TF.CreationDate,2024-07-02T22:23:46+01:00
; #@! TF.GenerationSoftware,Kicad,Pcbnew,8.0.3
; #@! TF.FileFunction,Plated,1,2,PTH
FMAT,2
METRIC
; #@! TA.AperFunction,Plated,PTH,ViaDrill
T1C0.400
; #@! TA.AperFunction,Plated,PTH,ComponentDrill
T2C0.813
; #@! TA.AperFunction,Plated,PTH,ComponentDrill
T3C0.900
; #@! TA.AperFunction,Plated,PTH,ComponentDrill
T4C1.092
; #@! TA.AperFunction,Plated,PTH,ComponentDrill
T5C1.499
%
G90
G05
T1
X163.818Y-104.787
T2
X176.53Y-114.3
X176.53Y-116.84
X179.07Y-114.3
X179.07Y-116.84
X181.61Y-114.3
X181.61Y-116.84
X184.15Y-114.3
X184.15Y-116.84
T4
X172.72Y-81.28
X172.72Y-83.82
X172.72Y-86.36
X172.72Y-88.9
X172.72Y-91.44
X172.72Y-93.98
X172.72Y-96.52
X172.72Y-99.06
X172.72Y-101.6
X172.72Y-104.14
X172.72Y-106.68
X172.949Y-109.22
X175.26Y-109.22
X177.8Y-109.22
X180.34Y-109.22
X182.88Y-109.22
X185.42Y-109.22
X187.96Y-81.28
X187.96Y-83.82
X187.96Y-86.36
X187.96Y-88.9
X187.96Y-91.44
X187.96Y-93.98
X187.96Y-96.52
X187.96Y-99.06
X187.96Y-101.6
X187.96Y-104.14
X187.96Y-106.68
X187.96Y-109.22
T5
X78.94Y-90.361
X78.94Y-109.41
X78.94Y-128.46
X80.21Y-87.82
X80.21Y-106.87
X80.21Y-125.92
X85.29Y-87.82
X85.29Y-106.87
X85.29Y-125.92
X86.56Y-90.361
X86.56Y-109.41
X86.56Y-128.46
X97.94Y-77.787
X97.94Y-96.837
X97.94Y-115.887
X99.21Y-75.248
X99.21Y-94.297
X99.21Y-113.347
X104.29Y-75.248
X104.29Y-94.297
X104.29Y-113.347
X105.56Y-77.787
X105.56Y-96.837
X105.56Y-115.887
X116.94Y-73.025
X116.94Y-92.075
X116.94Y-111.125
X118.21Y-70.485
X118.21Y-89.535
X118.21Y-108.585
X123.29Y-70.485
X123.29Y-89.535
X123.29Y-108.585
X124.56Y-73.025
X124.56Y-92.075
X124.56Y-111.125
X130.455Y-138.205
X132.147Y-135.924
X135.94Y-77.787
X135.94Y-96.837
X135.94Y-115.887
X137.15Y-136.806
X137.21Y-75.248
X137.21Y-94.297
X137.21Y-113.347
X137.959Y-139.528
X142.29Y-75.248
X142.29Y-94.297
X142.29Y-113.347
X143.56Y-77.787
X143.56Y-96.837
X143.56Y-115.887
X150.656Y-142.693
X152.649Y-140.67
X154.94Y-80.645
X154.94Y-99.695
X154.94Y-118.745
X156.21Y-78.105
X156.21Y-97.155
X156.21Y-116.205
X157.48Y-142.24
X157.903Y-145.048
X161.29Y-78.105
X161.29Y-97.155
X161.29Y-116.205
X162.56Y-80.645
X162.56Y-99.695
X162.56Y-118.745
X170.974Y-151.283
X173.423Y-149.844
X177.365Y-155.433
X177.683Y-152.611
T3
X176.892Y-127.24G85X176.492Y-127.24
G05
X176.492Y-131.84G85X176.892Y-131.84
G05
X177.593Y-127.24G85X177.992Y-127.24
G05
X177.992Y-131.84G85X177.593Y-131.84
G05
X181.593Y-127.24G85X181.992Y-127.24
G05
X181.992Y-131.84G85X181.593Y-131.84
G05
X184.593Y-127.24G85X184.992Y-127.24
G05
X184.992Y-131.84G85X184.593Y-131.84
G05
M30
