M48
; DRILL file {KiCad 8.0.3} date 2024-07-02T22:23:46+0100
; FORMAT={-:-/ absolute / metric / decimal}
; #@! TF.CreationDate,2024-07-02T22:23:46+01:00
; #@! TF.GenerationSoftware,Kicad,Pcbnew,8.0.3
; #@! TF.FileFunction,NonPlated,1,2,NPTH
FMAT,2
METRIC
; #@! TA.AperFunction,NonPlated,NPTH,ComponentDrill
T1C0.800
; #@! TA.AperFunction,NonPlated,NPTH,ComponentDrill
T2C1.702
; #@! TA.AperFunction,NonPlated,NPTH,ComponentDrill
T3C3.988
%
G90
G05
T1
X179.392Y-129.54
X179.392Y-129.54
X186.392Y-129.54
X186.392Y-129.54
T2
X77.67Y-92.9
X77.67Y-111.95
X77.67Y-131.0
X87.83Y-92.9
X87.83Y-111.95
X87.83Y-131.0
X96.67Y-80.328
X96.67Y-99.377
X96.67Y-118.427
X106.83Y-80.328
X106.83Y-99.377
X106.83Y-118.427
X115.67Y-75.565
X115.67Y-94.615
X115.67Y-113.665
X125.83Y-75.565
X125.83Y-94.615
X125.83Y-113.665
X128.763Y-140.485
X134.67Y-80.328
X134.67Y-99.377
X134.67Y-118.427
X138.769Y-142.25
X144.83Y-80.328
X144.83Y-99.377
X144.83Y-118.427
X148.663Y-144.717
X153.67Y-83.185
X153.67Y-102.235
X153.67Y-121.285
X158.326Y-147.856
X163.83Y-83.185
X163.83Y-102.235
X163.83Y-121.285
X168.526Y-152.721
X177.046Y-158.255
T3
X82.75Y-92.9
X82.75Y-111.95
X82.75Y-131.0
X101.75Y-80.328
X101.75Y-99.377
X101.75Y-118.427
X120.75Y-75.565
X120.75Y-94.615
X120.75Y-113.665
X133.766Y-141.368
X139.75Y-80.328
X139.75Y-99.377
X139.75Y-118.427
X153.494Y-146.286
X158.75Y-83.185
X158.75Y-102.235
X158.75Y-121.285
X172.786Y-155.488
M30
